<svg width="100" height="100" viewBox="0 0 100 100" fill="none" xmlns="http://www.w3.org/2000/svg">
<path d="M70.3125 10.9375C67.9298 10.9409 65.5976 11.6252 63.5909 12.9098C61.5841 14.1945 59.9863 16.0259 58.9857 18.1884C57.9851 20.3508 57.6235 22.7543 57.9433 25.1154C58.2632 27.4766 59.2512 29.6972 60.791 31.5155L51.9989 45.4926L33.9172 46.698C33.1941 44.0578 31.6242 41.7279 29.4488 40.0662C27.2733 38.4046 24.6125 37.503 21.875 37.5C18.5598 37.5 15.3804 38.817 13.0362 41.1612C10.692 43.5054 9.375 46.6848 9.375 50C9.375 53.3152 10.692 56.4946 13.0362 58.8388C15.3804 61.183 18.5598 62.5 21.875 62.5C24.6146 62.4997 27.2782 61.5993 29.4561 59.9375C31.6341 58.2756 33.2058 55.9443 33.9294 53.302L51.9989 54.5074L60.791 68.4845C59.2512 70.3028 58.2632 72.5234 57.9433 74.8846C57.6235 77.2458 57.9851 79.6491 58.9857 81.8116C59.9863 83.9741 61.5841 85.8055 63.5909 87.0902C65.5976 88.3748 67.9298 89.0591 70.3125 89.0625C73.6277 89.0625 76.8071 87.7455 79.1513 85.4013C81.4955 83.0571 82.8125 79.8777 82.8125 76.5625C82.8125 73.2473 81.4955 70.0679 79.1513 67.7237C76.8071 65.3795 73.6277 64.0625 70.3125 64.0625C69.0131 64.0648 67.7219 64.2697 66.4856 64.6698L59.8236 50L66.4886 35.3241C67.7237 35.726 69.0138 35.9329 70.3125 35.9375C73.6277 35.9375 76.8071 34.6205 79.1513 32.2763C81.4955 29.9321 82.8125 26.7527 82.8125 23.4375C82.8125 20.1223 81.4955 16.9429 79.1513 14.5987C76.8071 12.2545 73.6277 10.9375 70.3125 10.9375Z" fill="white"/>
</svg>
