<svg width="491" height="79" viewBox="0 0 491 79" fill="none" xmlns="http://www.w3.org/2000/svg">
<path d="M60.9375 0C58.5548 0.00337021 56.2226 0.687687 54.2159 1.97233C52.2091 3.25697 50.6113 5.08841 49.6107 7.25088C48.6101 9.41335 48.2485 11.8168 48.5683 14.1779C48.8882 16.5391 49.8762 18.7597 51.416 20.578L42.6239 34.5551L24.5422 35.7605C23.8191 33.1203 22.2492 30.7904 20.0738 29.1287C17.8983 27.4671 15.2375 26.5655 12.5 26.5625C9.18479 26.5625 6.00537 27.8795 3.66116 30.2237C1.31696 32.5679 0 35.7473 0 39.0625C0 42.3777 1.31696 45.5571 3.66116 47.9013C6.00537 50.2455 9.18479 51.5625 12.5 51.5625C15.2396 51.5622 17.9032 50.6618 20.0811 49C22.2591 47.3381 23.8308 45.0068 24.5544 42.3645L42.6239 43.5699L51.416 57.547C49.8762 59.3653 48.8882 61.5859 48.5683 63.9471C48.2485 66.3083 48.6101 68.7116 49.6107 70.8741C50.6113 73.0366 52.2091 74.868 54.2159 76.1527C56.2226 77.4373 58.5548 78.1216 60.9375 78.125C64.2527 78.125 67.4321 76.808 69.7763 74.4638C72.1205 72.1196 73.4375 68.9402 73.4375 65.625C73.4375 62.3098 72.1205 59.1304 69.7763 56.7862C67.4321 54.442 64.2527 53.125 60.9375 53.125C59.6381 53.1273 58.3469 53.3322 57.1106 53.7323L50.4486 39.0625L57.1136 24.3866C58.3487 24.7885 59.6388 24.9954 60.9375 25C64.2527 25 67.4321 23.683 69.7763 21.3388C72.1205 18.9946 73.4375 15.8152 73.4375 12.5C73.4375 9.18479 72.1205 6.00537 69.7763 3.66116C67.4321 1.31696 64.2527 0 60.9375 0Z" fill="white"/>
<path d="M103.444 55V25.2916H118.783C122.295 25.2916 124.935 26.1625 126.705 27.9043C128.475 29.618 129.36 31.9356 129.36 34.8573C129.36 37.7509 128.475 40.0686 126.705 41.8103C124.935 43.5521 122.295 44.423 118.783 44.423H112.546V55H103.444ZM112.546 37.5121H117.561C118.628 37.5121 119.415 37.2873 119.921 36.8379C120.426 36.3603 120.679 35.7001 120.679 34.8573C120.679 34.0145 120.426 33.3684 119.921 32.9189C119.415 32.4413 118.628 32.2025 117.561 32.2025H112.546V37.5121ZM139.835 55.5057C137.053 55.5057 135.003 54.7331 133.682 53.188C132.39 51.6429 131.744 49.2971 131.744 46.1507V33.5088H140.509V46.235C140.509 47.1059 140.691 47.766 141.057 48.2155C141.422 48.6369 141.956 48.8476 142.658 48.8476C143.501 48.8476 144.203 48.5386 144.765 47.9206C145.327 47.2744 145.608 46.4316 145.608 45.3922V33.5088H154.373V55H145.818V51.4603H146.493C145.79 52.7526 144.877 53.7499 143.754 54.4522C142.658 55.1545 141.352 55.5057 139.835 55.5057ZM173.499 55.5057C171.954 55.5057 170.521 55.1405 169.201 54.41C167.88 53.6796 167.01 52.7245 166.588 51.5446H167.052V55H158.413V23.9853H167.178V36.7114H166.63C167.108 35.6158 167.993 34.7309 169.285 34.0567C170.577 33.3543 171.982 33.0032 173.499 33.0032C175.325 33.0032 176.94 33.4667 178.345 34.3938C179.778 35.2927 180.902 36.5991 181.716 38.3127C182.531 39.9983 182.938 42.007 182.938 44.3387C182.938 46.6704 182.531 48.6791 181.716 50.3647C180.902 52.0221 179.778 53.3004 178.345 54.1993C176.94 55.0702 175.325 55.5057 173.499 55.5057ZM170.591 49.0583C171.603 49.0583 172.446 48.7072 173.12 48.0048C173.794 47.3025 174.131 46.0805 174.131 44.3387C174.131 42.5969 173.794 41.3468 173.12 40.5883C172.446 39.8298 171.603 39.4505 170.591 39.4505C169.552 39.4505 168.695 39.8157 168.021 40.5461C167.375 41.2766 167.052 42.5127 167.052 44.2544C167.052 45.9962 167.375 47.2323 168.021 47.9627C168.695 48.6931 169.552 49.0583 170.591 49.0583ZM186.108 55V23.9853H194.873V55H186.108ZM198.865 55V33.5088H207.63V55H198.865ZM198.739 31.0647V23.3953H207.757V31.0647H198.739ZM223.083 55.5057C220.639 55.5057 218.49 55.0562 216.636 54.1572C214.782 53.2582 213.335 51.966 212.296 50.2804C211.284 48.5948 210.779 46.5861 210.779 44.2544C210.779 41.8946 211.284 39.886 212.296 38.2285C213.335 36.5429 214.782 35.2506 216.636 34.3516C218.49 33.4527 220.639 33.0032 223.083 33.0032C224.572 33.0032 226.033 33.1998 227.466 33.5931C228.927 33.9583 230.093 34.478 230.964 35.1523L228.604 41.094C227.986 40.6164 227.255 40.2512 226.413 39.9983C225.598 39.7174 224.811 39.5769 224.053 39.5769C222.704 39.5769 221.651 39.9702 220.892 40.7568C220.162 41.5434 219.797 42.7093 219.797 44.2544C219.797 45.7995 220.162 46.9654 220.892 47.752C221.651 48.5386 222.704 48.9319 224.053 48.9319C224.783 48.9319 225.57 48.7914 226.413 48.5105C227.255 48.2296 227.986 47.8644 228.604 47.4149L230.964 53.3566C230.065 54.0308 228.899 54.5646 227.466 54.9579C226.033 55.3231 224.572 55.5057 223.083 55.5057ZM246.529 55V25.2916H268.105V32.2025H255.631V36.8379H267.093V43.7487H255.631V55H246.529ZM281.64 55.5057C279.167 55.5057 277.018 55.0562 275.192 54.1572C273.366 53.2301 271.948 51.9238 270.936 50.2382C269.953 48.5527 269.461 46.558 269.461 44.2544C269.461 41.9227 269.953 39.9281 270.936 38.2706C271.948 36.585 273.366 35.2927 275.192 34.3938C277.018 33.4667 279.167 33.0032 281.64 33.0032C284.112 33.0032 286.247 33.4667 288.045 34.3938C289.871 35.2927 291.276 36.585 292.259 38.2706C293.27 39.9281 293.776 41.9227 293.776 44.2544C293.776 46.558 293.27 48.5527 292.259 50.2382C291.276 51.9238 289.871 53.2301 288.045 54.1572C286.247 55.0562 284.112 55.5057 281.64 55.5057ZM281.64 49.0583C282.651 49.0583 283.452 48.6931 284.042 47.9627C284.632 47.2323 284.927 45.9962 284.927 44.2544C284.927 42.5127 284.632 41.2766 284.042 40.5461C283.452 39.8157 282.651 39.4505 281.64 39.4505C280.6 39.4505 279.786 39.8157 279.196 40.5461C278.606 41.2766 278.311 42.5127 278.311 44.2544C278.311 45.9962 278.606 47.2323 279.196 47.9627C279.786 48.6931 280.6 49.0583 281.64 49.0583ZM296.93 55V39.6191C296.93 38.6077 296.902 37.5964 296.846 36.585C296.79 35.5456 296.706 34.5202 296.593 33.5088H305.021L305.99 40.5461H304.684C304.965 38.8325 305.386 37.4278 305.948 36.3322C306.538 35.2085 307.297 34.3797 308.224 33.846C309.151 33.2841 310.275 33.0032 311.595 33.0032C312.241 33.0032 312.705 33.0313 312.986 33.0874C313.295 33.1436 313.618 33.242 313.955 33.3824V41.0518C313.196 40.7147 312.592 40.504 312.143 40.4197C311.693 40.3073 311.103 40.2512 310.373 40.2512C309.221 40.2512 308.308 40.4338 307.634 40.799C306.96 41.1361 306.482 41.712 306.201 42.5267C305.92 43.3414 305.78 44.4511 305.78 45.8557V55H296.93ZM327.29 55.5057C323.245 55.5057 320.112 54.4943 317.893 52.4716C315.673 50.4489 314.564 47.6958 314.564 44.2123C314.564 42.0491 315.013 40.1247 315.912 38.4392C316.839 36.7536 318.132 35.4332 319.789 34.478C321.475 33.4948 323.441 33.0032 325.689 33.0032C327.936 33.0032 329.804 33.4948 331.293 34.478C332.782 35.4613 333.892 36.8098 334.622 38.5234C335.353 40.209 335.718 42.1474 335.718 44.3387V46.0243H321.98V42.0632H329.186L328.47 42.6531C328.47 41.2766 328.231 40.2793 327.753 39.6612C327.276 39.0151 326.616 38.692 325.773 38.692C324.79 38.692 324.045 39.0853 323.54 39.8719C323.062 40.6304 322.823 41.8665 322.823 43.5802V44.4651C322.823 46.0945 323.216 47.2744 324.003 48.0048C324.818 48.7072 326.012 49.0583 327.585 49.0583C328.652 49.0583 329.664 48.96 330.619 48.7633C331.574 48.5386 332.487 48.1874 333.358 47.7099L335.549 53.3987C334.426 54.0729 333.161 54.5927 331.757 54.9579C330.38 55.3231 328.891 55.5057 327.29 55.5057ZM349.653 64.4393C347.434 64.4393 345.495 64.2567 343.838 63.8914C342.208 63.5262 340.733 62.9925 339.413 62.2901L340.846 56.0956C341.548 56.4889 342.363 56.826 343.29 57.107C344.217 57.416 345.172 57.6407 346.155 57.7812C347.139 57.9498 348.038 58.034 348.852 58.034C350.594 58.034 351.872 57.6548 352.687 56.8963C353.502 56.1659 353.909 55.1124 353.909 53.7358V50.7439H354.288C353.839 51.8676 352.968 52.7666 351.676 53.4408C350.383 54.1151 348.979 54.4522 347.462 54.4522C345.579 54.4522 343.922 54.0167 342.489 53.1459C341.056 52.275 339.933 51.0389 339.118 49.4376C338.331 47.8363 337.938 45.94 337.938 43.7487C337.938 41.5575 338.331 39.6612 339.118 38.0599C339.933 36.4305 341.056 35.1804 342.489 34.3095C343.922 33.4386 345.579 33.0032 347.462 33.0032C349.035 33.0032 350.439 33.3403 351.676 34.0145C352.912 34.6887 353.754 35.5596 354.204 36.6272H353.909L354.373 33.5088H362.8C362.688 34.5202 362.604 35.5456 362.548 36.585C362.491 37.5964 362.463 38.6077 362.463 39.6191V52.7666C362.463 56.503 361.368 59.3825 359.176 61.4052C356.985 63.4279 353.811 64.4393 349.653 64.4393ZM350.327 48.0048C351.395 48.0048 352.237 47.6537 352.855 46.9513C353.474 46.2209 353.783 45.1534 353.783 43.7487C353.783 42.316 353.474 41.2485 352.855 40.5461C352.237 39.8157 351.395 39.4505 350.327 39.4505C349.231 39.4505 348.361 39.8157 347.714 40.5461C347.096 41.2485 346.787 42.316 346.787 43.7487C346.787 45.1534 347.096 46.2209 347.714 46.9513C348.361 47.6537 349.231 48.0048 350.327 48.0048ZM366.518 55V39.6191C366.518 38.6077 366.49 37.5964 366.434 36.585C366.378 35.5456 366.293 34.5202 366.181 33.5088H374.609L375.578 40.5461H374.272C374.553 38.8325 374.974 37.4278 375.536 36.3322C376.126 35.2085 376.885 34.3797 377.812 33.846C378.739 33.2841 379.862 33.0032 381.183 33.0032C381.829 33.0032 382.292 33.0313 382.573 33.0874C382.882 33.1436 383.205 33.242 383.543 33.3824V41.0518C382.784 40.7147 382.18 40.504 381.731 40.4197C381.281 40.3073 380.691 40.2512 379.961 40.2512C378.809 40.2512 377.896 40.4338 377.222 40.799C376.547 41.1361 376.07 41.712 375.789 42.5267C375.508 43.3414 375.368 44.4511 375.368 45.8557V55H366.518ZM396.33 55.5057C393.858 55.5057 391.709 55.0562 389.883 54.1572C388.057 53.2301 386.638 51.9238 385.627 50.2382C384.643 48.5527 384.152 46.558 384.152 44.2544C384.152 41.9227 384.643 39.9281 385.627 38.2706C386.638 36.585 388.057 35.2927 389.883 34.3938C391.709 33.4667 393.858 33.0032 396.33 33.0032C398.802 33.0032 400.937 33.4667 402.735 34.3938C404.561 35.2927 405.966 36.585 406.949 38.2706C407.96 39.9281 408.466 41.9227 408.466 44.2544C408.466 46.558 407.96 48.5527 406.949 50.2382C405.966 51.9238 404.561 53.2301 402.735 54.1572C400.937 55.0562 398.802 55.5057 396.33 55.5057ZM396.33 49.0583C397.341 49.0583 398.142 48.6931 398.732 47.9627C399.322 47.2323 399.617 45.9962 399.617 44.2544C399.617 42.5127 399.322 41.2766 398.732 40.5461C398.142 39.8157 397.341 39.4505 396.33 39.4505C395.291 39.4505 394.476 39.8157 393.886 40.5461C393.296 41.2766 393.001 42.5127 393.001 44.2544C393.001 45.9962 393.296 47.2323 393.886 47.9627C394.476 48.6931 395.291 49.0583 396.33 49.0583ZM419.585 55.5057C416.804 55.5057 414.753 54.7331 413.433 53.188C412.14 51.6429 411.494 49.2971 411.494 46.1507V33.5088H420.259V46.235C420.259 47.1059 420.442 47.766 420.807 48.2155C421.172 48.6369 421.706 48.8476 422.408 48.8476C423.251 48.8476 423.954 48.5386 424.515 47.9206C425.077 47.2744 425.358 46.4316 425.358 45.3922V33.5088H434.123V55H425.569V51.4603H426.243C425.541 52.7526 424.628 53.7499 423.504 54.4522C422.408 55.1545 421.102 55.5057 419.585 55.5057ZM438.164 55V39.6191C438.164 38.6077 438.136 37.5964 438.079 36.585C438.023 35.5456 437.939 34.5202 437.827 33.5088H446.254L446.718 36.9221H446.254C446.985 35.686 447.982 34.7309 449.246 34.0567C450.511 33.3543 451.929 33.0032 453.502 33.0032C456.031 33.0032 457.913 33.7757 459.149 35.3208C460.385 36.8379 461.003 39.1977 461.003 42.4003V55H452.238V42.7374C452.238 41.5856 452.042 40.7849 451.648 40.3354C451.283 39.886 450.777 39.6612 450.131 39.6612C449.176 39.6612 448.404 39.9843 447.814 40.6304C447.224 41.2485 446.929 42.0772 446.929 43.1167V55H438.164ZM473.551 55.5057C471.725 55.5057 470.096 55.0562 468.663 54.1572C467.23 53.2582 466.092 51.966 465.25 50.2804C464.435 48.5948 464.027 46.5861 464.027 44.2544C464.027 41.9227 464.435 39.914 465.25 38.2285C466.064 36.5429 467.188 35.2506 468.621 34.3516C470.082 33.4527 471.725 33.0032 473.551 33.0032C475.096 33.0032 476.515 33.3543 477.807 34.0567C479.099 34.7309 479.97 35.6158 480.42 36.7114H479.788V23.9853H488.553V55H479.914V51.5446H480.504C480.111 52.7245 479.254 53.6796 477.934 54.41C476.613 55.1405 475.152 55.5057 473.551 55.5057ZM476.459 49.0583C477.47 49.0583 478.313 48.6931 478.987 47.9627C479.661 47.2323 479.998 45.9962 479.998 44.2544C479.998 42.5127 479.661 41.2766 478.987 40.5461C478.313 39.8157 477.47 39.4505 476.459 39.4505C475.447 39.4505 474.59 39.8157 473.888 40.5461C473.214 41.2766 472.877 42.5127 472.877 44.2544C472.877 45.9962 473.214 47.2323 473.888 47.9627C474.59 48.6931 475.447 49.0583 476.459 49.0583Z" fill="white"/>
</svg>
