<svg height="1500" viewBox="0 0 1500 1500" width="1500" xmlns="http://www.w3.org/2000/svg"><clipPath id="a"><path d="M464.56 844.149c-5.473-14.889 8.998-29.36 23.887-23.887l116.586 42.857 115.893 42.603c15.002 5.515 16.53 26.129 2.505 33.796l-90.273 49.343-49.343 90.273c-7.666 14.025-28.281 12.497-33.796-2.505l-42.603-115.893z"/></clipPath><g fill="#231f20"><path d="M732.624 834.508c-138.02 0-267.788-7.147-365.401-20.126-126.121-16.769-152.594-36.482-152.594-50.067s26.474-33.299 152.594-50.067c97.613-12.979 227.381-20.126 365.401-20.126s267.788 7.147 365.401 20.126c126.121 16.769 152.594 36.482 152.594 50.067s-26.474 33.299-152.594 50.067c-97.613 12.979-227.381 20.126-365.401 20.126zm0-137.338c-137.889 0-267.515 7.138-364.999 20.1-135.336 17.994-149.947 38.895-149.947 47.045s14.611 29.051 149.947 47.045c97.484 12.961 227.11 20.1 364.999 20.1s267.515-7.139 364.999-20.1c135.336-17.994 149.947-38.895 149.947-47.045s-14.611-29.051-149.947-47.045c-97.484-12.961-227.11-20.1-364.999-20.1z"/><path d="M732.624 903.177c-138.02 0-267.788-7.147-365.401-20.126-126.121-16.769-152.594-36.482-152.594-50.067s26.474-33.299 152.594-50.067c97.613-12.979 227.381-20.126 365.401-20.126s267.788 7.147 365.401 20.126c126.121 16.769 152.594 36.482 152.594 50.067s-26.474 33.299-152.594 50.067c-97.613 12.979-227.381 20.126-365.401 20.126zm0-137.338c-137.889 0-267.515 7.139-364.999 20.1-135.336 17.994-149.947 38.895-149.947 47.045s14.611 29.051 149.947 47.045c97.484 12.961 227.11 20.1 364.999 20.1s267.515-7.139 364.999-20.1c135.336-17.994 149.947-38.895 149.947-47.045s-14.611-29.051-149.947-47.045c-97.484-12.961-227.11-20.1-364.999-20.1z"/><path d="M732.624 971.846c-138.02 0-267.788-7.147-365.401-20.126-126.121-16.769-152.594-36.482-152.594-50.067s26.474-33.299 152.594-50.067c97.613-12.979 227.381-20.126 365.401-20.126s267.788 7.147 365.401 20.126c126.121 16.769 152.594 36.482 152.594 50.067s-26.474 33.299-152.594 50.067c-97.613 12.979-227.381 20.126-365.401 20.126zm0-137.338c-137.889 0-267.515 7.139-364.999 20.1-135.336 17.994-149.947 38.895-149.947 47.045s14.611 29.051 149.947 47.045c97.484 12.961 227.11 20.1 364.999 20.1s267.515-7.139 364.999-20.1c135.336-17.994 149.947-38.895 149.947-47.045s-14.611-29.051-149.947-47.045c-97.484-12.961-227.11-20.1-364.999-20.1z"/><path d="M732.624 1040.515c-138.02 0-267.788-7.147-365.401-20.126-126.121-16.769-152.594-36.482-152.594-50.067s26.474-33.299 152.594-50.067c97.613-12.979 227.381-20.126 365.401-20.126s267.788 7.147 365.401 20.126c126.121 16.769 152.594 36.482 152.594 50.067s-26.474 33.299-152.594 50.067c-97.613 12.979-227.381 20.126-365.401 20.126zm0-137.338c-137.889 0-267.515 7.139-364.999 20.1-135.336 17.994-149.947 38.895-149.947 47.045s14.611 29.051 149.947 47.045c97.484 12.961 227.11 20.1 364.999 20.1s267.515-7.139 364.999-20.1c135.336-17.994 149.947-38.895 149.947-47.045s-14.611-29.051-149.947-47.045c-97.484-12.961-227.11-20.1-364.999-20.1zm-427.3-491.996h5.671v251.96h-5.671z"/><path d="M434.139 534.326v5.67h-251.96v-5.67z"/><path d="m217.068 450.083 4.01-4.01L399.24 624.234l-4.01 4.01z"/><path d="m395.236 446.07 4.01 4.01-178.16 178.161-4.01-4.01z"/><circle cx="308.159" cy="537.161" r="22.491"/></g><circle cx="1189.624" cy="726.485" fill="#fff" r="126.673"/><path d="M1189.623 854.682c-70.688 0-128.197-57.509-128.197-128.197s57.509-128.197 128.197-128.197 128.197 57.509 128.197 128.197c.001 70.688-57.508 128.197-128.197 128.197zm0-253.345c-69.007 0-125.148 56.141-125.148 125.148s56.142 125.148 125.148 125.148 125.148-56.142 125.148-125.148-56.141-125.148-125.148-125.148z" fill="#231f20"/><path d="M1189.623 817.606c-38.708 0-73.294-24.581-86.064-61.167l2.879-1.004c12.342 35.362 45.772 59.122 83.185 59.122s70.843-23.76 83.186-59.122l2.879 1.004c-12.77 36.586-47.357 61.167-86.065 61.167z" fill="#231f20"/><path d="M1279.226 759.086c-7.609 0-13.719-3.222-13.998-3.371l1.438-2.688c.067.035 6.778 3.553 14.416 2.937l.246 3.039a26.29 26.29 0 0 1-2.102.083zm-179.876 0c-.69 0-1.392-.026-2.103-.084l.246-3.039c7.634.618 14.349-2.901 14.416-2.937l1.438 2.688c-.278.151-6.389 3.372-13.997 3.372z" fill="#231f20"/><ellipse cx="1221.262" cy="691.021" fill="#231f20" rx="20.313" ry="42.819"/><ellipse cx="1157.985" cy="691.021" fill="#231f20" rx="20.313" ry="42.819"/><path d="M363.78 512.365h737.689c14.337 0 25.958 11.622 25.958 25.958V651.92H337.821V538.323c0-14.336 11.622-25.958 25.959-25.958z" fill="#fff"/><path d="M1128.952 653.445H336.297V538.324c0-15.154 12.329-27.483 27.483-27.483h737.689c15.154 0 27.483 12.329 27.483 27.483zm-789.606-3.049h786.557V538.324c0-13.473-10.961-24.434-24.434-24.434H363.78c-13.473 0-24.434 10.961-24.434 24.434z" fill="#231f20"/><path d="M421.714 605.715c-12.998 0-23.572-10.574-23.572-23.572s10.574-23.572 23.572-23.572 23.572 10.574 23.572 23.572-10.575 23.572-23.572 23.572zm0-44.095c-11.316 0-20.523 9.207-20.523 20.523s9.207 20.523 20.523 20.523 20.523-9.207 20.523-20.523-9.207-20.523-20.523-20.523zm76.188 44.095c-12.998 0-23.572-10.574-23.572-23.572s10.574-23.572 23.572-23.572 23.572 10.574 23.572 23.572-10.575 23.572-23.572 23.572zm0-44.095c-11.316 0-20.523 9.207-20.523 20.523s9.207 20.523 20.523 20.523 20.523-9.207 20.523-20.523-9.207-20.523-20.523-20.523zm76.188 44.095c-12.998 0-23.572-10.574-23.572-23.572s10.574-23.572 23.572-23.572 23.572 10.574 23.572 23.572-10.575 23.572-23.572 23.572zm0-44.095c-11.316 0-20.523 9.207-20.523 20.523s9.207 20.523 20.523 20.523 20.523-9.207 20.523-20.523-9.207-20.523-20.523-20.523z" fill="#231f20"/><path d="M337.821 651.921h789.606v320.762c0 14.336-11.622 25.958-25.958 25.958H363.78c-14.336 0-25.958-11.622-25.958-25.958V651.921z" fill="#fff"/><path d="M1101.469 1000.165H363.78c-15.154 0-27.483-12.328-27.483-27.482V650.396h792.655v322.287c0 15.154-12.329 27.482-27.483 27.482zm-762.123-346.72v319.238c0 13.473 10.961 24.434 24.434 24.434h737.689c13.473 0 24.434-10.961 24.434-24.434V653.445z" fill="#231f20"/><path d="M467.453 897.476c-.51 0-.987-.255-1.27-.681-11.571-17.407-32.285-25.988-52.778-21.866a1.55 1.55 0 0 1-1.456-.495 1.522 1.522 0 0 1-.333-1.369c4.11-20.43-4.473-41.146-21.88-52.717a1.524 1.524 0 0 1 0-2.54c17.407-11.57 25.99-32.286 21.867-52.777a1.535 1.535 0 0 1 .426-1.395c.369-.36.896-.518 1.397-.404 20.47 4.121 41.186-4.463 52.757-21.87.564-.852 1.975-.852 2.539 0 11.57 17.406 32.284 25.986 52.777 21.866a1.508 1.508 0 0 1 1.459.498c.325.375.451.885.331 1.366-4.11 20.43 4.473 41.146 21.88 52.717a1.524 1.524 0 0 1 0 2.54c-17.407 11.57-25.99 32.286-21.867 52.777a1.535 1.535 0 0 1-.426 1.395 1.522 1.522 0 0 1-1.397.404c-20.471-4.122-41.186 4.463-52.757 21.87a1.521 1.521 0 0 1-1.269.681zm-43.83-26.617c17.208 0 33.511 8.174 43.829 22.42 12.034-16.613 32.211-24.973 52.467-21.732-3.238-20.263 5.12-40.435 21.732-52.467-16.614-12.034-24.971-32.21-21.732-52.467-20.256 3.24-40.433-5.117-52.466-21.732-12.034 16.613-32.213 24.972-52.467 21.732 3.238 20.263-5.12 40.435-21.732 52.467 16.614 12.034 24.971 32.21 21.732 52.467a54.556 54.556 0 0 1 8.637-.688z" fill="#231f20"/><path d="M464.56 844.149c-5.473-14.889 8.998-29.36 23.887-23.887l116.586 42.857 115.893 42.603c15.002 5.515 16.53 26.129 2.505 33.796l-90.273 49.343-49.343 90.273c-7.666 14.025-28.281 12.497-33.796-2.505l-42.603-115.893z" fill="#231f20"/><circle cx="467.453" cy="819.08" fill="#231f20" r="39.157"/><circle clip-path="url(#a)" cx="467.453" cy="819.08" fill="#fff" r="39.157"/><g clip-path="url(#a)"><path d="M467.453 897.476c-.51 0-.987-.255-1.27-.681-11.571-17.407-32.285-25.988-52.778-21.866a1.55 1.55 0 0 1-1.456-.495 1.522 1.522 0 0 1-.333-1.369c4.11-20.43-4.473-41.146-21.88-52.717a1.524 1.524 0 0 1 0-2.54c17.407-11.57 25.99-32.286 21.867-52.777a1.535 1.535 0 0 1 .426-1.395c.369-.36.896-.518 1.397-.404 20.47 4.121 41.186-4.463 52.757-21.87.564-.852 1.975-.852 2.539 0 11.57 17.406 32.284 25.986 52.777 21.866a1.508 1.508 0 0 1 1.459.498c.325.375.451.885.331 1.366-4.11 20.43 4.473 41.146 21.88 52.717a1.524 1.524 0 0 1 0 2.54c-17.407 11.57-25.99 32.286-21.867 52.777a1.535 1.535 0 0 1-.426 1.395 1.522 1.522 0 0 1-1.397.404c-20.471-4.122-41.186 4.463-52.757 21.87a1.521 1.521 0 0 1-1.269.681zm-43.83-26.617c17.208 0 33.511 8.174 43.829 22.42 12.034-16.613 32.211-24.973 52.467-21.732-3.238-20.263 5.12-40.435 21.732-52.467-16.614-12.034-24.971-32.21-21.732-52.467-20.256 3.24-40.433-5.117-52.466-21.732-12.034 16.613-32.213 24.972-52.467 21.732 3.238 20.263-5.12 40.435-21.732 52.467 16.614 12.034 24.971 32.21 21.732 52.467a54.556 54.556 0 0 1 8.637-.688z" fill="#fff"/></g><circle cx="722.249" cy="819.08" fill="#fff" r="39.157"/><path d="M722.249 859.76c-22.432 0-40.681-18.249-40.681-40.681s18.25-40.681 40.681-40.681 40.681 18.249 40.681 40.681-18.25 40.681-40.681 40.681zm0-78.312c-20.75 0-37.632 16.882-37.632 37.632s16.882 37.632 37.632 37.632 37.632-16.882 37.632-37.632-16.882-37.632-37.632-37.632z" fill="#231f20"/><circle cx="977.045" cy="819.08" fill="#fff" r="39.157"/><path d="M977.045 859.76c-22.432 0-40.681-18.249-40.681-40.681s18.25-40.681 40.681-40.681 40.681 18.249 40.681 40.681-18.25 40.681-40.681 40.681zm0-78.312c-20.75 0-37.632 16.882-37.632 37.632s16.882 37.632 37.632 37.632 37.632-16.882 37.632-37.632-16.882-37.632-37.632-37.632zM462.172 430.319h727.451v3.049H462.172z" fill="#231f20"/><circle cx="462.172" cy="431.843" fill="#231f20" r="6.851"/><circle cx="1189.624" cy="431.843" fill="#231f20" r="6.851"/></svg>