<svg height="1500" viewBox="0 0 1500 1500" width="1500" xmlns="http://www.w3.org/2000/svg"><circle cx="1280.909" cy="243.711" fill="#fff" r="53.422"/><path d="M1280.91 299.027c-30.501 0-55.315-24.815-55.315-55.316s24.814-55.315 55.315-55.315 55.315 24.814 55.315 55.315-24.814 55.316-55.315 55.316zm0-106.844c-28.413 0-51.528 23.115-51.528 51.528s23.115 51.529 51.528 51.529 51.528-23.116 51.528-51.529-23.115-51.528-51.528-51.528z" fill="#231f20"/><path d="M1280.91 283.39c-16.855 0-31.916-10.704-37.477-26.634l3.574-1.248c5.031 14.412 18.655 24.095 33.902 24.095s28.871-9.683 33.9-24.095l3.576 1.248c-5.559 15.93-20.62 26.634-37.475 26.634z" fill="#231f20"/><path d="M1318.712 258.71c-3.534 0-6.379-1.5-6.508-1.57l1.787-3.338-.894 1.669.888-1.672c.025.014 2.57 1.327 5.395 1.098l.305 3.774c-.328.027-.653.039-.973.039zm-75.888 0c-.319 0-.644-.012-.973-.039l.305-3.774c2.831.23 5.369-1.084 5.395-1.098l1.781 3.341c-.129.07-2.975 1.57-6.508 1.57z" fill="#231f20"/><ellipse cx="1294.253" cy="228.755" fill="#231f20" rx="8.567" ry="18.058"/><ellipse cx="1267.566" cy="228.755" fill="#231f20" rx="8.567" ry="18.058"/><path d="M134.778 362.767h1230.444v863.249c0 12.548-10.172 22.72-22.72 22.72H157.498c-12.548 0-22.72-10.172-22.72-22.72z" fill="#fff"/><path d="M1342.501 1250.63H157.499c-13.572 0-24.614-11.042-24.614-24.613V360.874h1234.231v865.143c0 13.571-11.042 24.613-24.615 24.613zM136.671 364.661v861.356c0 11.484 9.343 20.827 20.827 20.827h1185.003c11.484 0 20.827-9.343 20.827-20.827V364.661z" fill="#231f20"/><path d="M134.778 1216.549h1230.444v3.787H134.778z" fill="#231f20"/><path d="M157.498 276.147h1185.003c12.548 0 22.72 10.172 22.72 22.72v63.9H134.778v-63.9c0-12.548 10.172-22.72 22.72-22.72z" fill="#fff"/><g fill="#231f20"><path d="M1367.116 364.66H132.884v-65.793c0-13.572 11.042-24.614 24.614-24.614h1185.003c13.572 0 24.614 11.042 24.614 24.614v65.793zm-1230.445-3.786h1226.657v-62.007c0-11.484-9.343-20.827-20.827-20.827H157.499c-11.484 0-20.827 9.343-20.827 20.827v62.007z"/><circle cx="186.849" cy="319.457" r="13.685"/><circle cx="234.138" cy="319.457" r="13.685"/><circle cx="281.427" cy="319.457" r="13.685"/><path d="M151.401 362.767h3.787v18.517h-3.787zm13.951 0h3.787v9.258h-3.787zm13.95 0h3.787v18.517h-3.787zm13.951 0h3.787v9.258h-3.787zm13.951 0h3.787v18.517h-3.787zm13.95 0h3.787v9.258h-3.787zm13.951 0h3.787v18.517h-3.787zm13.95 0h3.787v9.258h-3.787zm13.95 0h3.787v18.517h-3.787z"/><path d="M263.005 362.767h3.787v18.517h-3.787zm13.952 0h3.787v9.258h-3.787zm13.95 0h3.787v18.517h-3.787zm13.951 0h3.787v9.258h-3.787zm13.95 0h3.787v18.517h-3.787zm13.95 0h3.787v9.258h-3.787zm13.951 0h3.787v18.517h-3.787zm13.951 0h3.787v9.258h-3.787zm13.95 0h3.787v18.517h-3.787z"/><path d="M374.61 362.767h3.787v18.517h-3.787zm13.951 0h3.787v9.258h-3.787zm13.95 0h3.787v18.517h-3.787zm13.95 0h3.787v9.258h-3.787zm13.952 0h3.787v18.517h-3.787zm13.95 0h3.787v9.258h-3.787zm13.951 0h3.787v18.517h-3.787zm13.95 0h3.787v9.258h-3.787zm13.95 0h3.787v18.517h-3.787z"/><path d="M486.214 362.767h3.787v18.517h-3.787zm13.952 0h3.787v9.258h-3.787zm13.95 0h3.787v18.517h-3.787zm13.95 0h3.787v9.258h-3.787zm13.951 0h3.787v18.517h-3.787zm13.95 0h3.787v9.258h-3.787zm13.95 0h3.787v18.517h-3.787zm13.952 0h3.787v9.258h-3.787zm13.95 0h3.787v18.517h-3.787z"/><path d="M597.819 362.767h3.787v18.517h-3.787zm13.951 0h3.787v9.258h-3.787zm13.95 0h3.787v18.517h-3.787zm13.95 0h3.787v9.258h-3.787zm13.952 0h3.787v18.517h-3.787zm13.95 0h3.787v9.258h-3.787zm13.95 0h3.787v18.517h-3.787zm13.951 0h3.787v9.258h-3.787zm13.95 0h3.787v18.517h-3.787z"/><path d="M709.423 362.767h3.787v18.517h-3.787zm13.952 0h3.787v9.258h-3.787zm13.95 0h3.787v18.517h-3.787zm13.95 0h3.787v9.258h-3.787zm13.951 0h3.787v18.517h-3.787zm13.95 0h3.787v9.258h-3.787zm13.95 0h3.787v18.517h-3.787zm13.952 0h3.787v9.258h-3.787zm13.95 0h3.787v18.517h-3.787z"/><path d="M821.028 362.767h3.787v18.517h-3.787zm13.95 0h3.787v9.258h-3.787zm13.951 0h3.787v18.517h-3.787zm13.95 0h3.787v9.258h-3.787zm13.952 0h3.787v18.517h-3.787zm13.95 0h3.787v9.258h-3.787zm13.95 0h3.787v18.517h-3.787zm13.951 0h3.787v9.258h-3.787zm13.95 0h3.787v18.517h-3.787z"/><path d="M932.632 362.767h3.787v18.517h-3.787zm13.951 0h3.787v9.258h-3.787zm13.951 0h3.787v18.517h-3.787zm13.95 0h3.787v9.258h-3.787zm13.95 0h3.787v18.517h-3.787zm13.951 0h3.787v9.258h-3.787zm13.95 0h3.787v18.517h-3.787zm13.952 0h3.787v9.258h-3.787zm13.95 0h3.787v18.517h-3.787z"/><path d="M1044.237 362.767h3.787v18.517h-3.787zm13.95 0h3.787v9.258h-3.787zm13.951 0h3.787v18.517h-3.787zm13.95 0h3.787v9.258h-3.787zm13.951 0h3.787v18.517h-3.787zm13.951 0h3.787v9.258h-3.787zm13.95 0h3.787v18.517h-3.787zm13.951 0h3.787v9.258h-3.787zm13.95 0h3.787v18.517h-3.787z"/><path d="M1155.841 362.767h3.787v18.517h-3.787zm13.951 0h3.787v9.258h-3.787zm13.951 0h3.787v18.517h-3.787z"/><path d="M1183.743 362.767h3.787v18.517h-3.787zm13.95 0h3.787v9.258h-3.787zm13.95 0h3.787v18.517h-3.787zm13.951 0h3.787v9.258h-3.787zm13.95 0h3.787v18.517h-3.787zm13.951 0h3.787v9.258h-3.787zm13.951 0h3.787v18.517h-3.787zm13.95 0h3.787v9.258h-3.787zm13.951 0h3.787v18.517h-3.787z"/><path d="M1295.347 362.767h3.787v18.517h-3.787zm13.95 0h3.787v9.258h-3.787zm13.951 0h3.787v18.517h-3.787zm13.951 0h3.787v9.258h-3.787zm13.95 0h3.787v18.517h-3.787z"/><path d="M134.778 379.39h1230.444v3.787H134.778zm0 823.1h9.259v3.787h-9.259zm0-13.95h18.517v3.787h-18.517zm0-13.951h9.259v3.787h-9.259zm0-13.95h18.517v3.787h-18.517zm0-13.951h9.259v3.787h-9.259zm0-13.95h18.517v3.787h-18.517z"/><path d="M134.778 1132.738h18.517v3.787h-18.517zm0-13.951h9.259v3.787h-9.259zm0-13.951h18.517v3.787h-18.517zm0-13.95h9.259v3.787h-9.259zm0-13.95h18.517v3.787h-18.517zm0-13.951h9.259v3.787h-9.259zm0-13.951h18.517v3.787h-18.517zm0-13.95h9.259v3.787h-9.259zm0-13.951h18.517v3.787h-18.517z"/><path d="M134.778 1021.133h18.517v3.787h-18.517zm0-13.95h9.259v3.787h-9.259zm0-13.951h18.517v3.787h-18.517zm0-13.95h9.259v3.787h-9.259zm0-13.951h18.517v3.787h-18.517zm0-13.951h9.259v3.787h-9.259zm0-13.95h18.517v3.787h-18.517zm0-13.951h9.259v3.787h-9.259zm0-13.95h18.517v3.787h-18.517z"/><path d="M134.778 909.529h18.517v3.787h-18.517zm0-13.951h9.259v3.787h-9.259zm0-13.95h18.517v3.787h-18.517zm0-13.951h9.259v3.787h-9.259zm0-13.95h18.517v3.787h-18.517zm0-13.951h9.259v3.787h-9.259zm0-13.95h18.517v3.787h-18.517zm0-13.951h9.259v3.787h-9.259zm0-13.951h18.517v3.787h-18.517z"/><path d="M134.778 797.924h18.517v3.787h-18.517zm0-13.95h9.259v3.787h-9.259zm0-13.951h18.517v3.787h-18.517zm0-13.95h9.259v3.787h-9.259zm0-13.951h18.517v3.787h-18.517zm0-13.95h9.259v3.787h-9.259zm0-13.951h18.517v3.787h-18.517zm0-13.95h9.259v3.787h-9.259zm0-13.951h18.517v3.787h-18.517z"/><path d="M134.778 686.32h18.517v3.787h-18.517zm0-13.95h9.259v3.787h-9.259zm0-13.951h18.517v3.787h-18.517zm0-13.951h9.259v3.787h-9.259zm0-13.95h18.517v3.787h-18.517zm0-13.951h9.259v3.787h-9.259zm0-13.95h18.517v3.787h-18.517zm0-13.951h9.259v3.787h-9.259zm0-13.951h18.517v3.787h-18.517z"/><path d="M134.778 574.715h18.517v3.787h-18.517zm0-13.95h9.259v3.787h-9.259zm0-13.951h18.517v3.787h-18.517zm0-13.95h9.259v3.787h-9.259zm0-13.951h18.517v3.787h-18.517zm0-13.95h9.259v3.787h-9.259zm0-13.951h18.517v3.787h-18.517zm0-13.951h9.259v3.787h-9.259zm0-13.95h18.517v3.787h-18.517z"/><path d="M134.778 463.111h18.517v3.787h-18.517zm0-13.95h9.259v3.787h-9.259zm0-13.951h18.517v3.787h-18.517zm0-13.951h9.259v3.787h-9.259zm0-13.95h18.517v3.787h-18.517zm0-13.951h9.259v3.787h-9.259z"/><path d="M151.401 381.284h3.787v837.159h-3.787z"/></g><path d="m495.045 872 74.066 146.672 74.066 146.672H346.912l74.066-146.672z" fill="#fff"/><path d="M643.177 1167.237H346.913a1.892 1.892 0 0 1-1.69-2.747l148.132-293.344a1.893 1.893 0 0 1 3.38 0l148.133 293.344a1.894 1.894 0 0 1-1.691 2.747zm-293.187-3.787H640.1L495.044 876.2z" fill="#231f20"/><path d="M641.812 1165.346c0-.36.17-.69.43-.89a1.14 1.14 0 0 1 .71-2.03c.62 0 1.13.51 1.13 1.14 0 .36-.16.68-.43.89.27.2.43.53.43.89a1.135 1.135 0 0 1-2.27 0zm-7.57 0c0-.63.51-1.14 1.13-1.14.63 0 1.14.51 1.14 1.14a1.135 1.135 0 0 1-2.27 0zm-7.58 0a1.14 1.14 0 1 1 2.281 0c0 .62-.511 1.13-1.141 1.13-.631 0-1.14-.51-1.14-1.13zm-7.571 0c0-.63.511-1.14 1.141-1.14a1.135 1.135 0 1 1-1.141 1.14zm-7.569 0c0-.63.5-1.14 1.13-1.14.63 0 1.14.51 1.14 1.14 0 .62-.51 1.13-1.14 1.13-.63 0-1.13-.51-1.13-1.13zm-7.58 0c0-.63.51-1.14 1.14-1.14.63 0 1.13.51 1.13 1.14 0 .62-.5 1.13-1.13 1.13-.63 0-1.14-.51-1.14-1.13zm-7.57 0c0-.63.51-1.14 1.14-1.14a1.136 1.136 0 1 1-1.14 1.14zm-7.58 0a1.14 1.14 0 1 1 2.281 0c0 .62-.51 1.13-1.141 1.13s-1.14-.51-1.14-1.13zm-7.571 0a1.14 1.14 0 0 1 2.281 0c0 .62-.51 1.13-1.14 1.13-.63 0-1.141-.51-1.141-1.13zm-7.569 0c0-.63.51-1.14 1.14-1.14a1.135 1.135 0 1 1-1.14 1.14zm-7.57 0c0-.63.51-1.14 1.13-1.14.63 0 1.141.51 1.141 1.14a1.135 1.135 0 0 1-2.271 0zm-7.581 0a1.14 1.14 0 1 1 2.281 0c0 .62-.51 1.13-1.14 1.13-.631 0-1.141-.51-1.141-1.13zm-7.57 0c0-.63.511-1.14 1.141-1.14a1.135 1.135 0 1 1-1.141 1.14zm-7.569 0c0-.63.51-1.14 1.13-1.14.63 0 1.14.51 1.14 1.14a1.135 1.135 0 0 1-2.27 0zm-7.58 0a1.14 1.14 0 1 1 2.281 0c0 .62-.511 1.13-1.141 1.13s-1.14-.51-1.14-1.13zm-7.571 0c0-.63.51-1.14 1.141-1.14a1.136 1.136 0 1 1-1.141 1.14zm-7.569 0c0-.63.51-1.14 1.13-1.14.63 0 1.14.51 1.14 1.14a1.135 1.135 0 0 1-2.27 0zm-7.58 0c0-.63.51-1.14 1.14-1.14.63 0 1.13.51 1.13 1.14 0 .62-.5 1.13-1.13 1.13-.63 0-1.14-.51-1.14-1.13zm-7.57 0c0-.63.51-1.14 1.14-1.14a1.135 1.135 0 1 1-1.14 1.14zm-7.58 0a1.14 1.14 0 1 1 2.281 0c0 .62-.511 1.13-1.141 1.13-.631 0-1.14-.51-1.14-1.13zm-7.571 0c0-.63.511-1.14 1.141-1.14s1.13.51 1.13 1.14c0 .62-.5 1.13-1.13 1.13-.63 0-1.141-.51-1.141-1.13zm-7.569 0c0-.63.51-1.14 1.14-1.14a1.135 1.135 0 1 1-1.14 1.14zm-7.57 0c0-.63.5-1.14 1.13-1.14.63 0 1.14.51 1.14 1.14 0 .62-.51 1.13-1.14 1.13-.63 0-1.13-.51-1.13-1.13zm-7.58 0a1.14 1.14 0 1 1 2.281 0c0 .62-.51 1.13-1.141 1.13s-1.14-.51-1.14-1.13zm-7.571 0c0-.63.511-1.14 1.141-1.14a1.135 1.135 0 1 1-1.141 1.14zm-7.569 0c0-.63.5-1.14 1.13-1.14.63 0 1.14.51 1.14 1.14 0 .62-.51 1.13-1.14 1.13-.63 0-1.13-.51-1.13-1.13zm-7.58 0c0-.63.51-1.14 1.14-1.14.63 0 1.13.51 1.13 1.14 0 .62-.5 1.13-1.13 1.13-.63 0-1.14-.51-1.14-1.13zm-7.57 0c0-.63.51-1.14 1.13-1.14.63 0 1.141.51 1.141 1.14a1.135 1.135 0 0 1-2.271 0zm-7.571 0c0-.63.5-1.14 1.131-1.14.63 0 1.14.51 1.14 1.14 0 .62-.51 1.13-1.14 1.13-.631 0-1.131-.51-1.131-1.13zm-7.58 0c0-.63.511-1.14 1.141-1.14a1.135 1.135 0 1 1-1.141 1.14zm-7.569 0c0-.63.51-1.14 1.13-1.14.63 0 1.14.51 1.14 1.14a1.135 1.135 0 0 1-2.27 0zm-7.58 0a1.14 1.14 0 1 1 2.281 0c0 .62-.511 1.13-1.141 1.13s-1.14-.51-1.14-1.13zm-7.571 0c0-.63.51-1.14 1.141-1.14a1.136 1.136 0 1 1-1.141 1.14zm-7.569 0c0-.63.51-1.14 1.13-1.14.63 0 1.14.51 1.14 1.14a1.135 1.135 0 0 1-2.27 0zm-7.58 0a1.14 1.14 0 1 1 2.28 0c0 .62-.51 1.13-1.14 1.13-.63 0-1.14-.51-1.14-1.13zm-7.57 0a1.14 1.14 0 1 1 2.281 0c0 .62-.511 1.13-1.141 1.13-.631 0-1.14-.51-1.14-1.13zm-7.571 0c0-.63.51-1.14 1.141-1.14a1.136 1.136 0 1 1-1.141 1.14zm-7.569 0c0-.63.5-1.14 1.13-1.14.63 0 1.14.51 1.14 1.14 0 .62-.51 1.13-1.14 1.13-.63 0-1.13-.51-1.13-1.13zm-7.58 0c0-.63.51-1.14 1.14-1.14a1.135 1.135 0 1 1-1.14 1.14zm-7.57 0c0-.63.51-1.14 1.13-1.14.63 0 1.14.51 1.14 1.14a1.135 1.135 0 0 1-2.27 0zm-.451-7.13c0-.63.51-1.14 1.141-1.14.63 0 1.13.51 1.13 1.14 0 .63-.5 1.14-1.13 1.14a1.14 1.14 0 0 1-1.141-1.14zm295.811-2.23c0-.63.51-1.13 1.14-1.13.62 0 1.13.5 1.13 1.13 0 .63-.51 1.14-1.13 1.14-.63 0-1.14-.51-1.14-1.14zm-295.811-5.34c0-.63.51-1.14 1.141-1.14.63 0 1.13.51 1.13 1.14 0 .62-.5 1.13-1.13 1.13-.631 0-1.141-.51-1.141-1.13zm295.811-2.23c0-.63.51-1.14 1.14-1.14a1.135 1.135 0 1 1-1.14 1.14zm-295.811-5.35c0-.62.51-1.13 1.141-1.13.63 0 1.13.51 1.13 1.13 0 .63-.5 1.14-1.13 1.14a1.14 1.14 0 0 1-1.141-1.14zm295.811-2.23a1.135 1.135 0 1 1 2.27.01 1.135 1.135 0 0 1-2.27-.01zm-295.811-5.34c0-.63.51-1.14 1.141-1.14.63 0 1.13.51 1.13 1.14 0 .63-.5 1.14-1.13 1.14a1.14 1.14 0 0 1-1.141-1.14zm295.811-2.23c0-.63.51-1.13 1.14-1.13.62 0 1.13.5 1.13 1.13 0 .63-.51 1.14-1.13 1.14-.63 0-1.14-.51-1.14-1.14zm-295.811-5.34c0-.63.51-1.14 1.141-1.14.63 0 1.13.51 1.13 1.14 0 .62-.5 1.13-1.13 1.13-.631 0-1.141-.51-1.141-1.13zm295.811-2.23c0-.63.51-1.14 1.14-1.14a1.135 1.135 0 1 1-1.14 1.14zm-295.811-5.35c0-.62.51-1.13 1.141-1.13.63 0 1.13.51 1.13 1.13 0 .63-.5 1.14-1.13 1.14a1.14 1.14 0 0 1-1.141-1.14zm295.811-2.23a1.135 1.135 0 1 1 2.27.01 1.135 1.135 0 0 1-2.27-.01zm-295.811-5.34c0-.63.51-1.14 1.141-1.14.63 0 1.13.51 1.13 1.14 0 .63-.5 1.14-1.13 1.14a1.14 1.14 0 0 1-1.141-1.14zm295.811-2.23c0-.63.51-1.14 1.14-1.14.62 0 1.13.51 1.13 1.14 0 .63-.51 1.14-1.13 1.14-.63 0-1.14-.51-1.14-1.14zm-295.811-5.34c0-.63.51-1.14 1.141-1.14.63 0 1.13.51 1.13 1.14 0 .62-.5 1.13-1.13 1.13-.631 0-1.141-.51-1.141-1.13zm295.811-2.23c0-.63.51-1.14 1.14-1.14a1.135 1.135 0 1 1-1.14 1.14zm-295.811-5.35c0-.62.51-1.13 1.141-1.13.63 0 1.13.51 1.13 1.13 0 .63-.5 1.14-1.13 1.14a1.14 1.14 0 0 1-1.141-1.14zm295.811-2.23a1.135 1.135 0 1 1 2.27.01 1.135 1.135 0 0 1-2.27-.01zm-295.811-5.34c0-.63.51-1.14 1.141-1.14.63 0 1.13.51 1.13 1.14 0 .63-.5 1.13-1.13 1.13-.631 0-1.141-.5-1.141-1.13zm295.811-2.23c0-.63.51-1.14 1.14-1.14.62 0 1.13.51 1.13 1.14 0 .63-.51 1.14-1.13 1.14-.63 0-1.14-.51-1.14-1.14zm-295.811-5.34c0-.63.51-1.14 1.141-1.14.63 0 1.13.51 1.13 1.14 0 .62-.5 1.13-1.13 1.13-.631 0-1.141-.51-1.141-1.13zm295.811-2.23c0-.63.51-1.14 1.14-1.14a1.135 1.135 0 1 1-1.14 1.14zm-295.811-5.35c0-.62.51-1.13 1.141-1.13.63 0 1.13.51 1.13 1.13 0 .63-.5 1.14-1.13 1.14a1.14 1.14 0 0 1-1.141-1.14zm295.811-2.23a1.135 1.135 0 1 1 2.27.01 1.135 1.135 0 0 1-2.27-.01zm-295.811-5.34c0-.63.51-1.14 1.141-1.14.63 0 1.13.51 1.13 1.14 0 .63-.5 1.13-1.13 1.13-.631 0-1.141-.5-1.141-1.13zm295.811-2.23c0-.63.51-1.14 1.14-1.14.62 0 1.13.51 1.13 1.14 0 .63-.51 1.14-1.13 1.14-.63 0-1.14-.51-1.14-1.14zm-295.811-5.34c0-.63.51-1.14 1.141-1.14.63 0 1.13.51 1.13 1.14 0 .62-.5 1.13-1.13 1.13-.631 0-1.141-.51-1.141-1.13zm295.811-2.23c0-.63.51-1.14 1.14-1.14a1.135 1.135 0 1 1-1.14 1.14zm-295.811-5.35c0-.63.51-1.13 1.141-1.13.63 0 1.13.5 1.13 1.13 0 .63-.5 1.14-1.13 1.14a1.14 1.14 0 0 1-1.141-1.14zm295.811-2.23a1.135 1.135 0 1 1 2.27.01 1.135 1.135 0 0 1-2.27-.01zm-295.811-5.34c0-.63.51-1.14 1.141-1.14.63 0 1.13.51 1.13 1.14 0 .63-.5 1.14-1.13 1.14a1.14 1.14 0 0 1-1.141-1.14zm295.811-2.23c0-.63.51-1.14 1.14-1.14.62 0 1.13.51 1.13 1.14 0 .63-.51 1.13-1.13 1.13-.63 0-1.14-.5-1.14-1.13zm-295.811-5.34c0-.63.51-1.14 1.141-1.14.63 0 1.13.51 1.13 1.14 0 .62-.5 1.13-1.13 1.13-.631 0-1.141-.51-1.141-1.13zm295.811-2.23c0-.63.51-1.14 1.14-1.14a1.135 1.135 0 1 1-1.14 1.14zm-295.811-5.35c0-.62.51-1.13 1.141-1.13.63 0 1.13.51 1.13 1.13 0 .63-.5 1.14-1.13 1.14a1.14 1.14 0 0 1-1.141-1.14zm295.811-2.23c0-.63.51-1.13 1.14-1.13.62 0 1.13.5 1.13 1.13 0 .63-.51 1.14-1.13 1.14-.63 0-1.14-.51-1.14-1.14zm-295.811-5.34c0-.63.51-1.14 1.141-1.14.63 0 1.13.51 1.13 1.14 0 .63-.5 1.14-1.13 1.14a1.14 1.14 0 0 1-1.141-1.14zm295.811-2.23c0-.63.51-1.14 1.14-1.14.62 0 1.13.51 1.13 1.14 0 .63-.51 1.13-1.13 1.13-.63 0-1.14-.5-1.14-1.13zm-295.811-5.34c0-.63.51-1.14 1.141-1.14.63 0 1.13.51 1.13 1.14 0 .62-.5 1.13-1.13 1.13-.631 0-1.141-.51-1.141-1.13zm295.811-2.23c0-.63.51-1.14 1.14-1.14a1.135 1.135 0 1 1-1.14 1.14zm-295.811-5.35c0-.62.51-1.13 1.141-1.13.63 0 1.13.51 1.13 1.13 0 .63-.5 1.14-1.13 1.14a1.14 1.14 0 0 1-1.141-1.14zm295.811-2.23a1.135 1.135 0 1 1 2.27.01 1.135 1.135 0 0 1-2.27-.01zm-295.811-5.34c0-.63.51-1.14 1.141-1.14.63 0 1.13.51 1.13 1.14 0 .63-.5 1.13-1.13 1.13-.631 0-1.141-.5-1.141-1.13zm295.811-2.23c0-.63.51-1.14 1.14-1.14.62 0 1.13.51 1.13 1.14 0 .63-.51 1.14-1.13 1.14-.63 0-1.14-.51-1.14-1.14zm-295.811-5.35c0-.62.51-1.13 1.141-1.13.63 0 1.13.51 1.13 1.13 0 .63-.5 1.14-1.13 1.14a1.14 1.14 0 0 1-1.141-1.14zm295.811-2.22c0-.63.51-1.14 1.14-1.14a1.135 1.135 0 1 1-1.14 1.14zm-295.811-5.35c0-.63.51-1.14 1.141-1.14.63 0 1.13.51 1.13 1.14 0 .63-.5 1.14-1.13 1.14a1.14 1.14 0 0 1-1.141-1.14zm295.811-2.23a1.135 1.135 0 1 1 2.27.01 1.135 1.135 0 0 1-2.27-.01zm-295.811-5.34c0-.63.51-1.14 1.141-1.14.63 0 1.13.51 1.13 1.14 0 .62-.5 1.13-1.13 1.13-.631 0-1.141-.51-1.141-1.13zm295.811-2.23c0-.63.51-1.14 1.14-1.14.62 0 1.13.51 1.13 1.14 0 .63-.51 1.14-1.13 1.14-.63 0-1.14-.51-1.14-1.14zm-295.811-5.35c0-.62.51-1.13 1.141-1.13.63 0 1.13.51 1.13 1.13 0 .63-.5 1.14-1.13 1.14a1.14 1.14 0 0 1-1.141-1.14zm295.811-2.22c0-.63.51-1.14 1.14-1.14a1.135 1.135 0 1 1-1.14 1.14zm-295.811-5.35c0-.63.51-1.14 1.141-1.14.63 0 1.13.51 1.13 1.14 0 .63-.5 1.14-1.13 1.14a1.14 1.14 0 0 1-1.141-1.14zm295.811-2.23a1.135 1.135 0 1 1 2.27.01 1.135 1.135 0 0 1-2.27-.01zm-295.811-5.34c0-.63.51-1.14 1.141-1.14.63 0 1.13.51 1.13 1.14 0 .63-.5 1.13-1.13 1.13-.631 0-1.141-.5-1.141-1.13zm295.811-2.23c0-.63.51-1.14 1.14-1.14.62 0 1.13.51 1.13 1.14 0 .63-.51 1.13-1.13 1.13-.63 0-1.14-.5-1.14-1.13zm-295.811-5.34c0-.63.51-1.14 1.141-1.14.63 0 1.13.51 1.13 1.14 0 .62-.5 1.13-1.13 1.13-.631 0-1.141-.51-1.141-1.13zm295.811-2.24a1.135 1.135 0 1 1 2.27.01 1.135 1.135 0 0 1-2.27-.01zm-295.811-5.34c0-.63.51-1.13 1.141-1.13.63 0 1.13.5 1.13 1.13 0 .63-.5 1.14-1.13 1.14a1.14 1.14 0 0 1-1.141-1.14zm295.811-2.23c0-.63.51-1.13 1.14-1.13.62 0 1.13.5 1.13 1.13 0 .63-.51 1.14-1.13 1.14-.63 0-1.14-.51-1.14-1.14zm-295.811-5.34c0-.63.51-1.14 1.141-1.14.63 0 1.13.51 1.13 1.14 0 .63-.5 1.14-1.13 1.14a1.14 1.14 0 0 1-1.141-1.14zm295.811-2.23c0-.63.51-1.14 1.14-1.14a1.135 1.135 0 1 1-1.14 1.14zm-295.811-5.34c0-.63.51-1.14 1.141-1.14.63 0 1.13.51 1.13 1.14 0 .62-.5 1.13-1.13 1.13-.631 0-1.141-.51-1.141-1.13zm295.811-2.24a1.135 1.135 0 1 1 2.27.01 1.135 1.135 0 0 1-2.27-.01zm-295.811-5.34c0-.62.51-1.13 1.141-1.13.63 0 1.13.51 1.13 1.13 0 .63-.5 1.14-1.13 1.14a1.14 1.14 0 0 1-1.141-1.14zm295.811-2.23c0-.63.51-1.13 1.14-1.13.62 0 1.13.5 1.13 1.13 0 .63-.51 1.14-1.13 1.14-.63 0-1.14-.51-1.14-1.14zm-295.811-5.34c0-.63.51-1.14 1.141-1.14.63 0 1.13.51 1.13 1.14 0 .62-.5 1.13-1.13 1.13-.631 0-1.141-.51-1.141-1.13zm295.811-2.23c0-.63.51-1.14 1.14-1.14.62 0 1.13.51 1.13 1.14 0 .63-.51 1.13-1.13 1.13-.63 0-1.14-.5-1.14-1.13zm-295.811-5.35c0-.62.51-1.13 1.141-1.13.63 0 1.13.51 1.13 1.13 0 .63-.5 1.14-1.13 1.14a1.14 1.14 0 0 1-1.141-1.14zm295.811-2.22c0-.63.51-1.14 1.14-1.14a1.135 1.135 0 1 1-1.14 1.14zm-295.811-5.35c0-.63.51-1.13 1.141-1.13.63 0 1.13.5 1.13 1.13 0 .63-.5 1.14-1.13 1.14a1.14 1.14 0 0 1-1.141-1.14zm295.811-2.23a1.135 1.135 0 1 1 2.27.01 1.135 1.135 0 0 1-2.27-.01zm-295.811-5.34c0-.63.51-1.14 1.141-1.14.63 0 1.13.51 1.13 1.14 0 .62-.5 1.13-1.13 1.13-.631 0-1.141-.51-1.141-1.13zm295.811-2.23c0-.63.51-1.14 1.14-1.14.62 0 1.13.51 1.13 1.14 0 .63-.51 1.14-1.13 1.14-.63 0-1.14-.51-1.14-1.14zm-295.811-5.35c0-.62.51-1.13 1.141-1.13.63 0 1.13.51 1.13 1.13 0 .63-.5 1.14-1.13 1.14a1.14 1.14 0 0 1-1.141-1.14zm295.811-2.22c0-.63.51-1.14 1.14-1.14a1.135 1.135 0 1 1-1.14 1.14zm-295.811-5.35c0-.63.51-1.14 1.141-1.14.63 0 1.13.51 1.13 1.14 0 .63-.5 1.14-1.13 1.14a1.14 1.14 0 0 1-1.141-1.14zm294.47-.89a1.14 1.14 0 0 1 2.281 0c0 .63-.51 1.13-1.14 1.13-.63 0-1.141-.5-1.141-1.13zm-7.569 0c0-.63.51-1.14 1.14-1.14.62 0 1.13.51 1.13 1.14 0 .63-.51 1.13-1.13 1.13-.63 0-1.14-.5-1.14-1.13zm-7.57 0c0-.63.5-1.14 1.13-1.14.63 0 1.141.51 1.141 1.14 0 .63-.511 1.13-1.141 1.13s-1.13-.5-1.13-1.13zm-7.581 0a1.14 1.14 0 1 1 2.281 0c0 .63-.51 1.13-1.14 1.13-.631 0-1.141-.5-1.141-1.13zm-7.57 0c0-.63.511-1.14 1.141-1.14.62 0 1.13.51 1.13 1.14 0 .63-.51 1.13-1.13 1.13-.63 0-1.141-.5-1.141-1.13zm-7.569 0c0-.63.51-1.14 1.13-1.14.63 0 1.14.51 1.14 1.14 0 .63-.51 1.13-1.14 1.13-.62 0-1.13-.5-1.13-1.13zm-7.58 0c0-.63.51-1.14 1.14-1.14.63 0 1.13.51 1.13 1.14 0 .63-.5 1.13-1.13 1.13-.63 0-1.14-.5-1.14-1.13zm-7.571 0c0-.63.51-1.14 1.141-1.14.619 0 1.13.51 1.13 1.14 0 .63-.511 1.13-1.13 1.13-.631 0-1.141-.5-1.141-1.13zm-7.569 0c0-.63.5-1.14 1.13-1.14.63 0 1.14.51 1.14 1.14 0 .63-.51 1.13-1.14 1.13-.63 0-1.13-.5-1.13-1.13zm-7.58 0c0-.63.51-1.14 1.14-1.14.62 0 1.13.51 1.13 1.14 0 .63-.51 1.13-1.13 1.13-.63 0-1.14-.5-1.14-1.13zm-7.57 0c0-.63.51-1.14 1.13-1.14.63 0 1.14.51 1.14 1.14 0 .63-.51 1.13-1.14 1.13-.621 0-1.13-.5-1.13-1.13zm-7.58 0a1.14 1.14 0 1 1 2.281 0c0 .63-.511 1.13-1.141 1.13-.631 0-1.14-.5-1.14-1.13zm-7.571 0c0-.63.511-1.14 1.141-1.14s1.13.51 1.13 1.14c0 .63-.5 1.13-1.13 1.13-.63 0-1.141-.5-1.141-1.13zm-7.569 0c0-.63.51-1.14 1.14-1.14.62 0 1.13.51 1.13 1.14 0 .63-.51 1.13-1.13 1.13-.63 0-1.14-.5-1.14-1.13zm-7.58 0a1.14 1.14 0 1 1 2.28 0c0 .63-.51 1.13-1.14 1.13-.63 0-1.14-.5-1.14-1.13zm-7.57 0a1.14 1.14 0 1 1 2.281 0c0 .63-.51 1.13-1.141 1.13s-1.14-.5-1.14-1.13zm-7.571 0c0-.63.511-1.14 1.141-1.14.62 0 1.13.51 1.13 1.14 0 .63-.51 1.13-1.13 1.13-.63 0-1.141-.5-1.141-1.13zm-7.569 0c0-.63.5-1.14 1.13-1.14.63 0 1.14.51 1.14 1.14 0 .63-.51 1.13-1.14 1.13-.63 0-1.13-.5-1.13-1.13zm-7.58 0c0-.63.51-1.14 1.14-1.14.62 0 1.13.51 1.13 1.14 0 .63-.51 1.13-1.13 1.13-.63 0-1.14-.5-1.14-1.13zm-7.57 0c0-.63.51-1.14 1.13-1.14.63 0 1.141.51 1.141 1.14 0 .63-.511 1.13-1.141 1.13-.621 0-1.13-.5-1.13-1.13zm-7.581 0a1.14 1.14 0 1 1 2.281 0c0 .63-.51 1.13-1.14 1.13-.631 0-1.141-.5-1.141-1.13zm-7.57 0c0-.63.511-1.14 1.141-1.14.62 0 1.13.51 1.13 1.14 0 .63-.51 1.13-1.13 1.13-.63 0-1.141-.5-1.141-1.13zm-7.569 0c0-.63.5-1.14 1.13-1.14.63 0 1.14.51 1.14 1.14 0 .63-.51 1.13-1.14 1.13-.63 0-1.13-.5-1.13-1.13zm-7.58 0a1.14 1.14 0 1 1 2.281 0c0 .63-.511 1.13-1.141 1.13s-1.14-.5-1.14-1.13zm-7.571 0c0-.63.51-1.14 1.141-1.14.619 0 1.13.51 1.13 1.14 0 .63-.511 1.13-1.13 1.13-.631 0-1.141-.5-1.141-1.13zm-7.569 0c0-.63.51-1.14 1.14-1.14.62 0 1.13.51 1.13 1.14 0 .63-.51 1.13-1.13 1.13-.63 0-1.14-.5-1.14-1.13zm-7.58 0a1.14 1.14 0 1 1 2.28 0c0 .63-.51 1.13-1.14 1.13-.63 0-1.14-.5-1.14-1.13zm-7.57 0c0-.63.51-1.14 1.14-1.14.63 0 1.13.51 1.13 1.14 0 .63-.5 1.13-1.13 1.13-.631 0-1.14-.5-1.14-1.13zm-7.571 0c0-.63.51-1.14 1.141-1.14.619 0 1.13.51 1.13 1.14 0 .63-.511 1.13-1.13 1.13-.631 0-1.141-.5-1.141-1.13zm-7.569 0c0-.63.5-1.14 1.13-1.14.63 0 1.14.51 1.14 1.14 0 .63-.51 1.13-1.14 1.13-.63 0-1.13-.5-1.13-1.13zm-7.58 0c0-.63.51-1.14 1.14-1.14.62 0 1.13.51 1.13 1.14 0 .63-.51 1.13-1.13 1.13-.63 0-1.14-.5-1.14-1.13zm-7.57 0c0-.63.51-1.14 1.13-1.14.63 0 1.14.51 1.14 1.14 0 .63-.51 1.13-1.14 1.13-.621 0-1.13-.5-1.13-1.13zm-7.58 0a1.14 1.14 0 1 1 2.281 0c0 .63-.51 1.13-1.141 1.13s-1.14-.5-1.14-1.13zm-7.571 0c0-.63.511-1.14 1.141-1.14.62 0 1.13.51 1.13 1.14 0 .63-.51 1.13-1.13 1.13-.63 0-1.141-.5-1.141-1.13zm-7.569 0c0-.63.5-1.14 1.13-1.14.63 0 1.14.51 1.14 1.14 0 .63-.51 1.13-1.14 1.13-.63 0-1.13-.5-1.13-1.13zm-7.58 0a1.14 1.14 0 1 1 2.28 0c0 .63-.51 1.13-1.14 1.13-.63 0-1.14-.5-1.14-1.13zm-7.57 0c0-.63.51-1.14 1.14-1.14.62 0 1.131.51 1.131 1.14 0 .63-.511 1.13-1.131 1.13-.631 0-1.14-.5-1.14-1.13zm-7.571 0c0-.63.511-1.14 1.131-1.14.63 0 1.14.51 1.14 1.14 0 .63-.51 1.13-1.14 1.13-.62 0-1.131-.5-1.131-1.13zm-7.58 0a1.14 1.14 0 0 1 2.281 0c0 .63-.51 1.13-1.14 1.13-.63 0-1.141-.5-1.141-1.13z" fill="#231f20"/><path d="M631.462 858.049h22.973v22.973h-22.973z" fill="#fff"/><path d="M656.329 882.916h-26.76v-26.76h26.76zm-22.973-3.787h19.186v-19.186h-19.186zm-144.762-16.044h12.901v12.901h-12.901zm0 295.808h12.901v12.901h-12.901zM649.4 1010.99v12.9h-12.902v-12.9zm-295.809 0v12.9h-12.9v-12.9z" fill="#231f20"/><path d="M631.462 1153.857h22.973v22.973h-22.973z" fill="#fff"/><path d="M656.329 1178.724h-26.76v-26.761h26.76zm-22.973-3.787h19.186v-19.187h-19.186z" fill="#231f20"/><path d="M335.654 858.049h22.973v22.973h-22.973z" fill="#fff"/><path d="M360.521 882.916H333.76v-26.76h26.761zm-22.974-3.787h19.187v-19.186h-19.187z" fill="#231f20"/><path d="M335.654 1153.857h22.973v22.973h-22.973z" fill="#fff"/><path d="M360.521 1178.724H333.76v-26.761h26.761zm-22.974-3.787h19.187v-19.187h-19.187zm820.515-453.781c0-.36.17-.68.43-.89a1.14 1.14 0 0 1 .71-2.03 1.137 1.137 0 0 1 .7 2.03 1.137 1.137 0 0 1-.7 2.03c-.63 0-1.14-.51-1.14-1.14zm-7.58 0c0-.63.51-1.13 1.14-1.13.63 0 1.14.5 1.14 1.13a1.14 1.14 0 1 1-2.28 0zm-7.57 0c0-.63.51-1.13 1.14-1.13.63 0 1.13.5 1.13 1.13 0 .63-.5 1.14-1.13 1.14-.631 0-1.14-.51-1.14-1.14zm-7.571 0c0-.63.511-1.13 1.141-1.13.62 0 1.13.5 1.13 1.13 0 .63-.51 1.14-1.13 1.14a1.14 1.14 0 0 1-1.141-1.14zm-7.58 0c0-.63.511-1.13 1.141-1.13s1.14.5 1.14 1.13a1.14 1.14 0 1 1-2.281 0zm-7.569 0c0-.63.51-1.13 1.14-1.13.62 0 1.13.5 1.13 1.13 0 .63-.51 1.14-1.13 1.14-.63 0-1.14-.51-1.14-1.14zm-7.57 0c0-.63.51-1.13 1.13-1.13.63 0 1.14.5 1.14 1.13 0 .63-.51 1.14-1.14 1.14-.621 0-1.13-.51-1.13-1.14zm-7.58 0c0-.63.51-1.13 1.14-1.13.631 0 1.141.5 1.141 1.13a1.14 1.14 0 1 1-2.281 0zm-7.571 0c0-.63.511-1.13 1.141-1.13.62 0 1.13.5 1.13 1.13 0 .63-.51 1.14-1.13 1.14a1.14 1.14 0 0 1-1.141-1.14zm-7.569 0c0-.63.5-1.13 1.14-1.13.62 0 1.13.5 1.13 1.13 0 .63-.51 1.14-1.13 1.14-.64 0-1.14-.51-1.14-1.14zm-7.58 0c0-.63.51-1.13 1.14-1.13.63 0 1.141.5 1.141 1.13a1.14 1.14 0 0 1-2.281 0zm-7.571 0c0-.63.51-1.13 1.14-1.13.631 0 1.131.5 1.131 1.13 0 .63-.5 1.14-1.131 1.14-.63 0-1.14-.51-1.14-1.14zm-7.57 0c0-.63.511-1.13 1.131-1.13.63 0 1.14.5 1.14 1.13 0 .63-.51 1.14-1.14 1.14-.62 0-1.131-.51-1.131-1.14zm-7.579 0c0-.63.51-1.13 1.14-1.13.63 0 1.14.5 1.14 1.13a1.14 1.14 0 1 1-2.28 0zm-7.57 0c0-.63.51-1.13 1.14-1.13.62 0 1.13.5 1.13 1.13 0 .63-.51 1.14-1.13 1.14-.63 0-1.14-.51-1.14-1.14zm-7.571 0c0-.63.51-1.13 1.13-1.13.63 0 1.141.5 1.141 1.13 0 .63-.511 1.14-1.141 1.14-.62 0-1.13-.51-1.13-1.14zm-7.57 0c0-.63.5-1.13 1.131-1.13.63 0 1.14.5 1.14 1.13 0 .63-.51 1.14-1.14 1.14-.631 0-1.131-.51-1.131-1.14zm-7.579 0c0-.63.51-1.13 1.14-1.13.63 0 1.13.5 1.13 1.13 0 .63-.5 1.14-1.13 1.14-.63 0-1.14-.51-1.14-1.14zm-7.57 0c0-.63.51-1.13 1.13-1.13.63 0 1.14.5 1.14 1.13 0 .63-.51 1.14-1.14 1.14-.621 0-1.13-.51-1.13-1.14zm-7.58 0c0-.63.51-1.13 1.14-1.13.63 0 1.13.5 1.13 1.13 0 .63-.5 1.14-1.13 1.14-.631 0-1.14-.51-1.14-1.14zm-7.571 0c0-.63.511-1.13 1.141-1.13.62 0 1.13.5 1.13 1.13 0 .63-.51 1.14-1.13 1.14a1.14 1.14 0 0 1-1.141-1.14zm-7.569 0c0-.63.51-1.13 1.13-1.13.63 0 1.14.5 1.14 1.13 0 .63-.51 1.14-1.14 1.14-.62 0-1.13-.51-1.13-1.14zm-7.58 0c0-.63.51-1.13 1.14-1.13.63 0 1.14.5 1.14 1.13a1.14 1.14 0 1 1-2.28 0zm-7.57 0c0-.63.51-1.13 1.14-1.13.62 0 1.13.5 1.13 1.13 0 .63-.51 1.14-1.13 1.14-.631 0-1.14-.51-1.14-1.14zm-7.571 0c0-.63.5-1.13 1.141-1.13.62 0 1.13.5 1.13 1.13 0 .63-.51 1.14-1.13 1.14-.641 0-1.141-.51-1.141-1.14zm-7.58 0c0-.63.511-1.13 1.141-1.13.62 0 1.13.5 1.13 1.13 0 .63-.51 1.14-1.13 1.14a1.14 1.14 0 0 1-1.141-1.14zm-7.569 0c0-.63.51-1.13 1.14-1.13.62 0 1.13.5 1.13 1.13 0 .63-.51 1.14-1.13 1.14-.63 0-1.14-.51-1.14-1.14zm-7.57 0c0-.63.51-1.13 1.13-1.13.63 0 1.141.5 1.141 1.13 0 .63-.511 1.14-1.141 1.14-.621 0-1.13-.51-1.13-1.14zm-7.581 0c0-.63.51-1.13 1.14-1.13.631 0 1.141.5 1.141 1.13a1.14 1.14 0 1 1-2.281 0zm-7.57 0c0-.63.511-1.13 1.141-1.13.62 0 1.13.5 1.13 1.13 0 .63-.51 1.14-1.13 1.14a1.14 1.14 0 0 1-1.141-1.14zm-7.579 0c0-.63.51-1.13 1.14-1.13.63 0 1.14.5 1.14 1.13a1.14 1.14 0 1 1-2.28 0zm-7.57 0c0-.63.51-1.13 1.14-1.13.63 0 1.141.5 1.141 1.13a1.14 1.14 0 0 1-2.281 0zm-7.571 0c0-.63.51-1.13 1.13-1.13.63 0 1.141.5 1.141 1.13 0 .63-.511 1.14-1.141 1.14-.62 0-1.13-.51-1.13-1.14zm-7.57 0c0-.63.5-1.13 1.131-1.13.63 0 1.14.5 1.14 1.13 0 .63-.51 1.14-1.14 1.14-.631 0-1.131-.51-1.131-1.14zm-7.579 0c0-.63.51-1.13 1.14-1.13.63 0 1.13.5 1.13 1.13 0 .63-.5 1.14-1.13 1.14-.63 0-1.14-.51-1.14-1.14zm-7.57 0c0-.63.51-1.13 1.14-1.13.62 0 1.13.5 1.13 1.13 0 .63-.51 1.14-1.13 1.14-.631 0-1.14-.51-1.14-1.14zm-7.571 0c0-.63.51-1.13 1.13-1.13.63 0 1.141.5 1.141 1.13 0 .63-.511 1.14-1.141 1.14-.62 0-1.13-.51-1.13-1.14zm-7.58 0c0-.63.511-1.13 1.141-1.13s1.14.5 1.14 1.13a1.14 1.14 0 1 1-2.281 0zm-7.569 0c0-.63.51-1.13 1.13-1.13.63 0 1.14.5 1.14 1.13 0 .63-.51 1.14-1.14 1.14-.62 0-1.13-.51-1.13-1.14zm-7.58 0c0-.63.51-1.13 1.14-1.13.63 0 1.14.5 1.14 1.13a1.14 1.14 0 1 1-2.28 0zm-.441-7.13c0-.63.51-1.14 1.141-1.14.63 0 1.13.51 1.13 1.14 0 .63-.5 1.14-1.13 1.14a1.14 1.14 0 0 1-1.141-1.14zm295.811-2.23a1.135 1.135 0 1 1 2.27.01 1.135 1.135 0 0 1-2.27-.01zm-295.811-5.34c0-.63.51-1.14 1.141-1.14.63 0 1.13.51 1.13 1.14 0 .62-.5 1.13-1.13 1.13-.631 0-1.141-.51-1.141-1.13zm295.811-2.23a1.135 1.135 0 1 1 2.27.01 1.135 1.135 0 0 1-2.27-.01zm-295.811-5.35c0-.62.51-1.13 1.141-1.13.63 0 1.13.51 1.13 1.13 0 .63-.5 1.14-1.13 1.14a1.14 1.14 0 0 1-1.141-1.14zm295.811-2.22c0-.63.51-1.14 1.14-1.14.62 0 1.13.51 1.13 1.14 0 .63-.51 1.13-1.13 1.13-.63 0-1.14-.5-1.14-1.13zm-295.811-5.35c0-.63.51-1.13 1.141-1.13.63 0 1.13.5 1.13 1.13 0 .63-.5 1.14-1.13 1.14a1.14 1.14 0 0 1-1.141-1.14zm295.811-2.22c0-.63.51-1.14 1.14-1.14a1.135 1.135 0 1 1-1.14 1.14zm-295.811-5.35c0-.63.51-1.14 1.141-1.14.63 0 1.13.51 1.13 1.14 0 .62-.5 1.13-1.13 1.13-.631 0-1.141-.51-1.141-1.13zm295.811-2.23c0-.63.51-1.14 1.14-1.14.62 0 1.13.51 1.13 1.14 0 .63-.51 1.14-1.13 1.14-.63 0-1.14-.51-1.14-1.14zm-295.811-5.34c0-.63.51-1.14 1.141-1.14.63 0 1.13.51 1.13 1.14 0 .62-.5 1.13-1.13 1.13-.631 0-1.141-.51-1.141-1.13zm295.811-2.23c0-.63.51-1.14 1.14-1.14.62 0 1.13.51 1.13 1.14 0 .63-.51 1.14-1.13 1.14-.63 0-1.14-.51-1.14-1.14zm-295.811-5.35c0-.63.51-1.14 1.141-1.14.63 0 1.13.51 1.13 1.14 0 .63-.5 1.14-1.13 1.14a1.14 1.14 0 0 1-1.141-1.14zm295.811-2.23a1.135 1.135 0 1 1 2.27.01 1.135 1.135 0 0 1-2.27-.01zm-295.811-5.34c0-.63.51-1.14 1.141-1.14.63 0 1.13.51 1.13 1.14 0 .62-.5 1.13-1.13 1.13-.631 0-1.141-.51-1.141-1.13zm295.811-2.23c0-.63.51-1.13 1.14-1.13.62 0 1.13.5 1.13 1.13 0 .63-.51 1.14-1.13 1.14-.63 0-1.14-.51-1.14-1.14zm-295.811-5.35c0-.62.51-1.13 1.141-1.13.63 0 1.13.51 1.13 1.13 0 .63-.5 1.14-1.13 1.14a1.14 1.14 0 0 1-1.141-1.14zm295.811-2.22c0-.63.51-1.14 1.14-1.14a1.135 1.135 0 1 1-1.14 1.14zm-295.811-5.35c0-.63.51-1.14 1.141-1.14.63 0 1.13.51 1.13 1.14 0 .63-.5 1.14-1.13 1.14a1.14 1.14 0 0 1-1.141-1.14zm295.811-2.23a1.135 1.135 0 1 1 2.27.01 1.135 1.135 0 0 1-2.27-.01zm-295.811-5.34c0-.63.51-1.14 1.141-1.14.63 0 1.13.51 1.13 1.14 0 .62-.5 1.13-1.13 1.13-.631 0-1.141-.51-1.141-1.13zm295.811-2.23a1.135 1.135 0 1 1 2.27.01 1.135 1.135 0 0 1-2.27-.01zm-295.811-5.35c0-.62.51-1.13 1.141-1.13.63 0 1.13.51 1.13 1.13 0 .63-.5 1.14-1.13 1.14a1.14 1.14 0 0 1-1.141-1.14zm295.811-2.22c0-.63.51-1.14 1.14-1.14.62 0 1.13.51 1.13 1.14 0 .63-.51 1.13-1.13 1.13-.63 0-1.14-.5-1.14-1.13zm-295.811-5.35c0-.63.51-1.14 1.141-1.14.63 0 1.13.51 1.13 1.14 0 .63-.5 1.14-1.13 1.14a1.14 1.14 0 0 1-1.141-1.14zm295.811-2.22c0-.63.51-1.14 1.14-1.14a1.135 1.135 0 1 1-1.14 1.14zm-295.811-5.35c0-.63.51-1.14 1.141-1.14.63 0 1.13.51 1.13 1.14 0 .62-.5 1.13-1.13 1.13-.631 0-1.141-.51-1.141-1.13zm295.811-2.23c0-.63.51-1.14 1.14-1.14.62 0 1.13.51 1.13 1.14 0 .63-.51 1.14-1.13 1.14-.63 0-1.14-.51-1.14-1.14zm-295.811-5.35c0-.62.51-1.13 1.141-1.13.63 0 1.13.51 1.13 1.13 0 .63-.5 1.14-1.13 1.14a1.14 1.14 0 0 1-1.141-1.14zm295.811-2.22c0-.63.51-1.14 1.14-1.14a1.135 1.135 0 1 1-1.14 1.14zm-295.811-5.35c0-.63.51-1.14 1.141-1.14.63 0 1.13.51 1.13 1.14 0 .63-.5 1.13-1.13 1.13-.631 0-1.141-.5-1.141-1.13zm295.811-2.23a1.135 1.135 0 1 1 2.27.01 1.135 1.135 0 0 1-2.27-.01zm-295.811-5.34c0-.63.51-1.14 1.141-1.14.63 0 1.13.51 1.13 1.14 0 .62-.5 1.13-1.13 1.13-.631 0-1.141-.51-1.141-1.13zm295.811-2.23c0-.63.51-1.13 1.14-1.13.62 0 1.13.5 1.13 1.13 0 .63-.51 1.14-1.13 1.14-.63 0-1.14-.51-1.14-1.14zm-295.811-5.35c0-.62.51-1.13 1.141-1.13.63 0 1.13.51 1.13 1.13 0 .63-.5 1.14-1.13 1.14a1.14 1.14 0 0 1-1.141-1.14zm295.811-2.22c0-.63.51-1.14 1.14-1.14a1.135 1.135 0 1 1-1.14 1.14zm-295.811-5.35c0-.63.51-1.14 1.141-1.14.63 0 1.13.51 1.13 1.14 0 .63-.5 1.14-1.13 1.14a1.14 1.14 0 0 1-1.141-1.14zm295.811-2.22c0-.64.51-1.14 1.14-1.14a1.135 1.135 0 1 1-1.14 1.14zm-295.811-5.35c0-.63.51-1.14 1.141-1.14.63 0 1.13.51 1.13 1.14 0 .62-.5 1.13-1.13 1.13-.631 0-1.141-.51-1.141-1.13zm295.811-2.23c0-.63.51-1.14 1.14-1.14.62 0 1.13.51 1.13 1.14 0 .63-.51 1.14-1.13 1.14-.63 0-1.14-.51-1.14-1.14zm-295.811-5.35c0-.63.51-1.13 1.141-1.13.63 0 1.13.5 1.13 1.13 0 .63-.5 1.14-1.13 1.14a1.14 1.14 0 0 1-1.141-1.14zm295.811-2.22c0-.63.51-1.14 1.14-1.14.62 0 1.13.51 1.13 1.14 0 .63-.51 1.13-1.13 1.13-.63 0-1.14-.5-1.14-1.13zm-295.811-5.35c0-.63.51-1.14 1.141-1.14.63 0 1.13.51 1.13 1.14 0 .62-.5 1.13-1.13 1.13-.631 0-1.141-.51-1.141-1.13zm295.811-2.23a1.135 1.135 0 1 1 2.27.01 1.135 1.135 0 0 1-2.27-.01zm-295.811-5.34c0-.63.51-1.14 1.141-1.14.63 0 1.13.51 1.13 1.14 0 .62-.5 1.13-1.13 1.13-.631 0-1.141-.51-1.141-1.13zm295.811-2.23c0-.63.51-1.14 1.14-1.14.62 0 1.13.51 1.13 1.14 0 .63-.51 1.14-1.13 1.14-.63 0-1.14-.51-1.14-1.14zm-295.811-5.35c0-.62.51-1.13 1.141-1.13.63 0 1.13.51 1.13 1.13 0 .63-.5 1.14-1.13 1.14a1.14 1.14 0 0 1-1.141-1.14zm295.811-2.22c0-.63.51-1.14 1.14-1.14a1.135 1.135 0 1 1-1.14 1.14zm-295.811-5.35c0-.63.51-1.14 1.141-1.14.63 0 1.13.51 1.13 1.14 0 .63-.5 1.14-1.13 1.14a1.14 1.14 0 0 1-1.141-1.14zm295.811-2.23a1.135 1.135 0 1 1 2.27.01 1.135 1.135 0 0 1-2.27-.01zm-295.811-5.34c0-.63.51-1.14 1.141-1.14.63 0 1.13.51 1.13 1.14 0 .62-.5 1.13-1.13 1.13-.631 0-1.141-.51-1.141-1.13zm295.811-2.23c0-.63.51-1.13 1.14-1.13.62 0 1.13.5 1.13 1.13 0 .63-.51 1.14-1.13 1.14-.63 0-1.14-.51-1.14-1.14zm-295.811-5.35c0-.63.51-1.13 1.141-1.13.63 0 1.13.5 1.13 1.13 0 .63-.5 1.14-1.13 1.14a1.14 1.14 0 0 1-1.141-1.14zm295.811-2.22c0-.63.51-1.14 1.14-1.14.62 0 1.13.51 1.13 1.14 0 .63-.51 1.13-1.13 1.13-.63 0-1.14-.5-1.14-1.13zm-295.811-5.35c0-.63.51-1.14 1.141-1.14.63 0 1.13.51 1.13 1.14 0 .63-.5 1.14-1.13 1.14a1.14 1.14 0 0 1-1.141-1.14zm295.811-2.23a1.135 1.135 0 1 1 2.27.01 1.135 1.135 0 0 1-2.27-.01zm-295.811-5.35c0-.62.51-1.13 1.141-1.13.63 0 1.13.51 1.13 1.13 0 .63-.5 1.14-1.13 1.14a1.14 1.14 0 0 1-1.141-1.14zm295.811-2.22c0-.63.51-1.14 1.14-1.14.62 0 1.13.51 1.13 1.14 0 .63-.51 1.13-1.13 1.13-.63 0-1.14-.5-1.14-1.13zm-295.811-5.35c0-.63.51-1.13 1.141-1.13.63 0 1.13.5 1.13 1.13 0 .63-.5 1.14-1.13 1.14a1.14 1.14 0 0 1-1.141-1.14zm295.811-2.22c0-.63.51-1.14 1.14-1.14a1.135 1.135 0 1 1-1.14 1.14zm-295.811-5.35c0-.63.51-1.14 1.141-1.14.63 0 1.13.51 1.13 1.14 0 .63-.5 1.13-1.13 1.13-.631 0-1.141-.5-1.141-1.13zm295.811-2.23a1.135 1.135 0 1 1 2.27.01 1.135 1.135 0 0 1-2.27-.01zm-295.811-5.34c0-.63.51-1.14 1.141-1.14.63 0 1.13.51 1.13 1.14 0 .62-.5 1.13-1.13 1.13-.631 0-1.141-.51-1.141-1.13zm295.811-2.23c0-.63.51-1.14 1.14-1.14.62 0 1.13.51 1.13 1.14 0 .63-.51 1.14-1.13 1.14-.63 0-1.14-.51-1.14-1.14zm-295.811-5.35c0-.62.51-1.13 1.141-1.13.63 0 1.13.51 1.13 1.13 0 .63-.5 1.14-1.13 1.14a1.14 1.14 0 0 1-1.141-1.14zm295.811-2.22c0-.63.51-1.14 1.14-1.14a1.135 1.135 0 1 1-1.14 1.14zm-295.811-5.35c0-.63.51-1.14 1.141-1.14.63 0 1.13.51 1.13 1.14 0 .63-.5 1.14-1.13 1.14a1.14 1.14 0 0 1-1.141-1.14zm295.811-2.23c0-.63.51-1.13 1.14-1.13.62 0 1.13.5 1.13 1.13 0 .63-.51 1.14-1.13 1.14-.63 0-1.14-.51-1.14-1.14zm-295.811-5.35c0-.62.51-1.13 1.141-1.13.63 0 1.13.51 1.13 1.13 0 .63-.5 1.14-1.13 1.14a1.14 1.14 0 0 1-1.141-1.14zm295.811-2.22c0-.63.51-1.14 1.14-1.14.62 0 1.13.51 1.13 1.14 0 .63-.51 1.14-1.13 1.14-.63 0-1.14-.51-1.14-1.14zm-295.811-5.35c0-.63.51-1.14 1.141-1.14.63 0 1.13.51 1.13 1.14 0 .63-.5 1.14-1.13 1.14a1.14 1.14 0 0 1-1.141-1.14zm295.811-2.22c0-.63.51-1.14 1.14-1.14a1.135 1.135 0 1 1-1.14 1.14zm-295.811-5.35c0-.63.51-1.14 1.141-1.14.63 0 1.13.51 1.13 1.14 0 .62-.5 1.13-1.13 1.13-.631 0-1.141-.51-1.141-1.13zm295.811-2.23a1.135 1.135 0 1 1 2.27.01 1.135 1.135 0 0 1-2.27-.01zm-295.811-5.35c0-.62.51-1.13 1.141-1.13.63 0 1.13.51 1.13 1.13 0 .63-.5 1.14-1.13 1.14a1.14 1.14 0 0 1-1.141-1.14zm295.811-2.22c0-.63.51-1.14 1.14-1.14.62 0 1.13.51 1.13 1.14 0 .63-.51 1.13-1.13 1.13-.63 0-1.14-.5-1.14-1.13zm-295.811-5.35c0-.63.51-1.13 1.141-1.13.63 0 1.13.5 1.13 1.13 0 .63-.5 1.14-1.13 1.14a1.14 1.14 0 0 1-1.141-1.14zm294.47-.89c0-.63.511-1.14 1.141-1.14.62 0 1.13.51 1.13 1.14 0 .63-.51 1.14-1.13 1.14a1.14 1.14 0 0 1-1.141-1.14zm-7.569 0c0-.63.51-1.14 1.14-1.14.62 0 1.13.51 1.13 1.14 0 .63-.51 1.14-1.13 1.14-.63 0-1.14-.51-1.14-1.14zm-7.57 0c0-.63.51-1.14 1.13-1.14a1.14 1.14 0 1 1 0 2.28c-.621 0-1.13-.51-1.13-1.14zm-7.581 0a1.14 1.14 0 1 1 2.279-.001 1.14 1.14 0 0 1-2.279.001zm-7.57 0c0-.63.511-1.14 1.141-1.14.62 0 1.13.51 1.13 1.14 0 .63-.51 1.14-1.13 1.14a1.14 1.14 0 0 1-1.141-1.14zm-7.579 0a1.14 1.14 0 1 1 2.279-.001 1.14 1.14 0 0 1-2.279.001zm-7.57 0a1.14 1.14 0 1 1 2.279-.001 1.14 1.14 0 0 1-2.279.001zm-7.571 0c0-.63.51-1.14 1.13-1.14a1.14 1.14 0 1 1 0 2.28c-.62 0-1.13-.51-1.13-1.14zm-7.57 0c0-.63.5-1.14 1.131-1.14a1.14 1.14 0 1 1 0 2.28c-.631 0-1.131-.51-1.131-1.14zm-7.579 0c0-.63.51-1.14 1.14-1.14.63 0 1.13.51 1.13 1.14 0 .63-.5 1.14-1.13 1.14-.63 0-1.14-.51-1.14-1.14zm-7.57 0c0-.63.51-1.14 1.14-1.14.62 0 1.13.51 1.13 1.14 0 .63-.51 1.14-1.13 1.14-.631 0-1.14-.51-1.14-1.14zm-7.571 0c0-.63.51-1.14 1.13-1.14a1.14 1.14 0 1 1 0 2.28c-.62 0-1.13-.51-1.13-1.14zm-7.58 0a1.14 1.14 0 1 1 2.28 0 1.14 1.14 0 0 1-2.28 0zm-7.569 0c0-.63.51-1.14 1.13-1.14a1.14 1.14 0 1 1 0 2.28c-.62 0-1.13-.51-1.13-1.14zm-7.58 0a1.14 1.14 0 1 1 2.279-.001 1.14 1.14 0 0 1-2.279.001zm-7.57 0c0-.63.51-1.14 1.14-1.14.62 0 1.13.51 1.13 1.14 0 .63-.51 1.14-1.13 1.14-.631 0-1.14-.51-1.14-1.14zm-7.571 0c0-.63.511-1.14 1.13-1.14a1.14 1.14 0 1 1 0 2.28c-.619 0-1.13-.51-1.13-1.14zm-7.569 0c0-.63.5-1.14 1.13-1.14a1.14 1.14 0 1 1 0 2.28c-.63 0-1.13-.51-1.13-1.14zm-7.58 0c0-.63.51-1.14 1.14-1.14.63 0 1.13.51 1.13 1.14 0 .63-.5 1.14-1.13 1.14-.63 0-1.14-.51-1.14-1.14zm-7.57 0c0-.63.51-1.14 1.14-1.14.62 0 1.131.51 1.131 1.14 0 .63-.511 1.14-1.131 1.14-.631 0-1.14-.51-1.14-1.14zm-7.581 0a1.14 1.14 0 1 1 2.279-.001 1.14 1.14 0 0 1-2.279.001zm-7.57 0c0-.63.511-1.14 1.141-1.14.62 0 1.13.51 1.13 1.14 0 .63-.51 1.14-1.13 1.14a1.14 1.14 0 0 1-1.141-1.14zm-7.569 0c0-.63.51-1.14 1.13-1.14a1.14 1.14 0 1 1 0 2.28c-.62 0-1.13-.51-1.13-1.14zm-7.58 0a1.14 1.14 0 1 1 2.279-.001 1.14 1.14 0 0 1-2.279.001zm-7.571 0c0-.63.51-1.14 1.141-1.14.619 0 1.13.51 1.13 1.14 0 .63-.511 1.14-1.13 1.14a1.14 1.14 0 0 1-1.141-1.14zm-7.57 0c0-.63.511-1.14 1.141-1.14.62 0 1.13.51 1.13 1.14 0 .63-.51 1.14-1.13 1.14a1.14 1.14 0 0 1-1.141-1.14zm-7.579 0a1.14 1.14 0 1 1 2.279-.001 1.14 1.14 0 0 1-2.279.001zm-7.57 0c0-.63.51-1.14 1.14-1.14.63 0 1.13.51 1.13 1.14 0 .63-.5 1.14-1.13 1.14-.631 0-1.14-.51-1.14-1.14zm-7.571 0c0-.63.51-1.14 1.13-1.14a1.14 1.14 0 1 1 0 2.28c-.62 0-1.13-.51-1.13-1.14zm-7.58 0c0-.63.511-1.14 1.141-1.14s1.13.51 1.13 1.14c0 .63-.5 1.14-1.13 1.14a1.14 1.14 0 0 1-1.141-1.14zm-7.569 0c0-.63.51-1.14 1.14-1.14.62 0 1.13.51 1.13 1.14 0 .63-.51 1.14-1.13 1.14-.63 0-1.14-.51-1.14-1.14zm-7.57 0c0-.63.51-1.14 1.13-1.14a1.14 1.14 0 1 1 0 2.28c-.621 0-1.13-.51-1.13-1.14zm-7.571 0c0-.63.5-1.14 1.13-1.14a1.14 1.14 0 1 1 0 2.28c-.63 0-1.13-.51-1.13-1.14zm-7.58 0c0-.63.511-1.14 1.141-1.14.62 0 1.13.51 1.13 1.14 0 .63-.51 1.14-1.13 1.14a1.14 1.14 0 0 1-1.141-1.14zm-7.569 0c0-.63.5-1.14 1.13-1.14a1.14 1.14 0 1 1 0 2.28c-.63 0-1.13-.51-1.13-1.14zm-7.58 0a1.14 1.14 0 1 1 2.279-.001 1.14 1.14 0 0 1-2.279.001zm-7.57 0c0-.63.51-1.14 1.14-1.14.631 0 1.131.51 1.131 1.14 0 .63-.5 1.14-1.131 1.14s-1.14-.51-1.14-1.14zm-7.571 0c0-.63.511-1.14 1.131-1.14a1.14 1.14 0 1 1 0 2.28c-.62 0-1.131-.51-1.131-1.14zm-7.58 0a1.14 1.14 0 1 1 2.28 0 1.14 1.14 0 0 1-2.28 0z" fill="#231f20"/><path d="M1011.293 721.156c-81.685 0-147.904-66.219-147.904-147.904s66.219-147.904 147.904-147.904 147.904 66.219 147.904 147.904-66.219 147.904-147.904 147.904z" fill="#fff"/><path d="M1011.293 723.049c-82.599 0-149.798-67.199-149.798-149.797s67.198-149.798 149.797-149.798 149.798 67.199 149.798 149.797-67.198 149.798-149.797 149.798zm0-295.808c-80.511 0-146.011 65.5-146.011 146.01 0 80.511 65.5 146.011 146.01 146.011h.001c80.51 0 146.01-65.5 146.01-146.01 0-80.511-65.5-146.011-146.01-146.011z" fill="#231f20"/><path d="M1147.71 413.861h22.973v22.973h-22.973z" fill="#fff"/><path d="M1172.577 438.728h-26.76v-26.76h26.76zm-22.973-3.787h19.186v-19.186h-19.186zm-144.762-16.044h12.901v12.901h-12.901zm0 295.808h12.901v12.901h-12.901zM1165.648 566.8v12.902h-12.901V566.8zm-295.808 0v12.902h-12.901V566.8z" fill="#231f20"/><path d="M1147.71 709.669h22.973v22.973h-22.973z" fill="#fff"/><path d="M1172.577 734.536h-26.76v-26.76h26.76zm-22.973-3.787h19.186v-19.186h-19.186z" fill="#231f20"/><path d="M851.902 413.861h22.973v22.973h-22.973z" fill="#fff"/><path d="M876.769 438.728h-26.761v-26.76h26.761zm-22.974-3.787h19.187v-19.186h-19.187z" fill="#231f20"/><path d="M851.902 709.669h22.973v22.973h-22.973z" fill="#fff"/><path d="M876.769 734.536h-26.761v-26.76h26.761zm-22.974-3.787h19.187v-19.186h-19.187zm91.716 275.777c0-.04 0-.08.011-.12-.011-.04-.011-.08-.011-.12 0-.63.511-1.13 1.141-1.13.62 0 1.13.5 1.13 1.13v.24c0 .63-.51 1.14-1.13 1.14a1.14 1.14 0 0 1-1.141-1.14zm-7.569 0c0-.63.5-1.13 1.14-1.13.62 0 1.13.5 1.13 1.13 0 .63-.51 1.14-1.13 1.14-.64 0-1.14-.51-1.14-1.14zm-7.58 0c0-.63.51-1.13 1.14-1.13.63 0 1.14.5 1.14 1.13a1.14 1.14 0 1 1-2.28 0zm-7.57 0c0-.63.51-1.13 1.14-1.13.631 0 1.131.5 1.131 1.13 0 .63-.5 1.14-1.131 1.14s-1.14-.51-1.14-1.14zm-7.571 0c0-.63.511-1.13 1.141-1.13.62 0 1.13.5 1.13 1.13 0 .63-.51 1.14-1.13 1.14a1.14 1.14 0 0 1-1.141-1.14zm-7.569 0c0-.63.5-1.13 1.13-1.13.63 0 1.14.5 1.14 1.13 0 .63-.51 1.14-1.14 1.14-.63 0-1.13-.51-1.13-1.14zm-7.58 0c0-.63.51-1.13 1.14-1.13.63 0 1.13.5 1.13 1.13 0 .63-.5 1.14-1.13 1.14-.63 0-1.14-.51-1.14-1.14zm-7.571 0c0-.63.51-1.13 1.13-1.13.63 0 1.141.5 1.141 1.13 0 .63-.511 1.14-1.141 1.14-.62 0-1.13-.51-1.13-1.14zm-7.57 0c0-.63.5-1.13 1.131-1.13.63 0 1.14.5 1.14 1.13 0 .63-.51 1.14-1.14 1.14-.631 0-1.131-.51-1.131-1.14zm-7.579 0c0-.63.51-1.13 1.14-1.13.63 0 1.13.5 1.13 1.13 0 .63-.5 1.14-1.13 1.14-.63 0-1.14-.51-1.14-1.14zm-7.57 0c0-.63.51-1.13 1.13-1.13.63 0 1.14.5 1.14 1.13 0 .63-.51 1.14-1.14 1.14-.62 0-1.13-.51-1.13-1.14zm-7.58 0c0-.63.51-1.13 1.14-1.13.63 0 1.141.5 1.141 1.13a1.14 1.14 0 0 1-2.281 0zm-7.571 0c0-.63.511-1.13 1.141-1.13s1.13.5 1.13 1.13c0 .63-.5 1.14-1.13 1.14a1.14 1.14 0 0 1-1.141-1.14zm-7.569 0c0-.63.51-1.13 1.13-1.13.63 0 1.14.5 1.14 1.13 0 .63-.51 1.14-1.14 1.14-.62 0-1.13-.51-1.13-1.14zm-7.58 0c0-.63.51-1.13 1.14-1.13.63 0 1.14.5 1.14 1.13a1.14 1.14 0 1 1-2.28 0zm-7.57 0c0-.63.51-1.13 1.14-1.13.62 0 1.13.5 1.13 1.13 0 .63-.51 1.14-1.13 1.14-.631 0-1.14-.51-1.14-1.14zm-7.571 0c0-.63.511-1.13 1.13-1.13.631 0 1.141.5 1.141 1.13 0 .63-.51 1.14-1.141 1.14-.619 0-1.13-.51-1.13-1.14zm-7.569 0c0-.63.5-1.13 1.13-1.13.63 0 1.14.5 1.14 1.13 0 .63-.51 1.14-1.14 1.14-.63 0-1.13-.51-1.13-1.14zm-7.58 0c0-.63.51-1.13 1.14-1.13.63 0 1.13.5 1.13 1.13 0 .63-.5 1.14-1.13 1.14-.63 0-1.14-.51-1.14-1.14zm-7.57 0c0-.63.51-1.13 1.13-1.13.63 0 1.141.5 1.141 1.13 0 .63-.511 1.14-1.141 1.14-.621 0-1.13-.51-1.13-1.14zm-7.58 0c0-.63.51-1.13 1.14-1.13.631 0 1.141.5 1.141 1.13a1.14 1.14 0 1 1-2.281 0zm-7.571 0c0-.63.511-1.13 1.131-1.13.63 0 1.14.5 1.14 1.13 0 .63-.51 1.14-1.14 1.14-.62 0-1.131-.51-1.131-1.14zm-7.569 0c0-.63.51-1.13 1.13-1.13.63 0 1.14.5 1.14 1.13 0 .63-.51 1.14-1.14 1.14-.62 0-1.13-.51-1.13-1.14zm-7.58 0c0-.63.51-1.13 1.14-1.13.63 0 1.141.5 1.141 1.13a1.14 1.14 0 0 1-2.281 0zm-.061-7.51a1.14 1.14 0 0 1 2.281 0c0 .62-.51 1.13-1.14 1.13-.63 0-1.141-.51-1.141-1.13zm174.25-.3c0-.63.511-1.14 1.141-1.14.62 0 1.13.51 1.13 1.14 0 .63-.51 1.13-1.13 1.13-.63 0-1.141-.5-1.141-1.13zm-174.25-7.28c0-.62.511-1.13 1.141-1.13s1.14.51 1.14 1.13a1.14 1.14 0 1 1-2.281 0zm174.25-.29c0-.63.511-1.14 1.141-1.14a1.135 1.135 0 1 1-1.141 1.14zm-174.25-7.28c0-.63.511-1.13 1.141-1.13s1.14.5 1.14 1.13a1.14 1.14 0 1 1-2.281 0zm174.25-.3c0-.63.511-1.13 1.141-1.13.62 0 1.13.5 1.13 1.13 0 .63-.51 1.14-1.13 1.14a1.14 1.14 0 0 1-1.141-1.14zm-174.25-7.27a1.14 1.14 0 0 1 2.281 0c0 .62-.51 1.13-1.14 1.13-.63 0-1.141-.51-1.141-1.13zm174.25-.3c0-.63.511-1.14 1.141-1.14.62 0 1.13.51 1.13 1.14 0 .63-.51 1.13-1.13 1.13-.63 0-1.141-.5-1.141-1.13zm-174.25-7.28c0-.62.511-1.13 1.141-1.13s1.14.51 1.14 1.13a1.14 1.14 0 1 1-2.281 0zm174.25-.3a1.135 1.135 0 1 1 2.271.01 1.135 1.135 0 0 1-2.271-.01zm-174.25-7.27a1.14 1.14 0 1 1 2.28 0 1.14 1.14 0 0 1-2.28 0zm174.25-.3c0-.63.511-1.13 1.141-1.13.62 0 1.13.5 1.13 1.13 0 .63-.51 1.14-1.13 1.14a1.14 1.14 0 0 1-1.141-1.14zm-174.25-7.27a1.14 1.14 0 0 1 2.281 0c0 .62-.51 1.13-1.14 1.13-.63 0-1.141-.51-1.141-1.13zm174.25-.3c0-.63.511-1.14 1.141-1.14.62 0 1.13.51 1.13 1.14 0 .63-.51 1.13-1.13 1.13-.63 0-1.141-.5-1.141-1.13zm-174.25-7.28c0-.62.511-1.13 1.141-1.13s1.14.51 1.14 1.13a1.14 1.14 0 1 1-2.281 0zm174.25-.3a1.135 1.135 0 1 1 2.271.01 1.135 1.135 0 0 1-2.271-.01zm-174.25-7.27a1.14 1.14 0 1 1 2.28 0 1.14 1.14 0 0 1-2.28 0zm174.25-.3c0-.63.511-1.13 1.141-1.13.62 0 1.13.5 1.13 1.13 0 .63-.51 1.14-1.13 1.14a1.14 1.14 0 0 1-1.141-1.14zm-174.25-7.27a1.14 1.14 0 0 1 2.281 0c0 .62-.51 1.13-1.14 1.13-.63 0-1.141-.51-1.141-1.13zm174.25-.3c0-.63.511-1.14 1.141-1.14.62 0 1.13.51 1.13 1.14 0 .63-.51 1.13-1.13 1.13-.63 0-1.141-.5-1.141-1.13zm-174.25-7.28c0-.62.511-1.13 1.141-1.13s1.14.51 1.14 1.13a1.14 1.14 0 1 1-2.281 0zm174.25-.3a1.135 1.135 0 1 1 2.271.01 1.135 1.135 0 0 1-2.271-.01zm-174.25-7.27a1.14 1.14 0 1 1 2.28 0 1.14 1.14 0 0 1-2.28 0zm174.25-.3c0-.63.511-1.13 1.141-1.13.62 0 1.13.5 1.13 1.13 0 .63-.51 1.14-1.13 1.14a1.14 1.14 0 0 1-1.141-1.14zm-174.25-7.27a1.14 1.14 0 0 1 2.281 0c0 .62-.51 1.13-1.14 1.13-.63 0-1.141-.51-1.141-1.13zm174.25-.3c0-.63.511-1.14 1.141-1.14.62 0 1.13.51 1.13 1.14 0 .63-.51 1.14-1.13 1.14a1.14 1.14 0 0 1-1.141-1.14zm-174.25-7.28c0-.62.511-1.13 1.141-1.13s1.14.51 1.14 1.13a1.14 1.14 0 1 1-2.281 0zm174.25-.3a1.135 1.135 0 1 1 2.271.01 1.135 1.135 0 0 1-2.271-.01zm-174.25-7.27a1.14 1.14 0 0 1 2.281 0c0 .63-.51 1.13-1.14 1.13-.63 0-1.141-.5-1.141-1.13zm174.25-.3c0-.63.511-1.13 1.141-1.13.62 0 1.13.5 1.13 1.13 0 .63-.51 1.14-1.13 1.14a1.14 1.14 0 0 1-1.141-1.14zm-174.25-7.27a1.14 1.14 0 0 1 2.281 0c0 .62-.51 1.13-1.14 1.13-.63 0-1.141-.51-1.141-1.13zm174.25-.3c0-.63.511-1.14 1.141-1.14.62 0 1.13.51 1.13 1.14 0 .62-.51 1.14-1.13 1.14-.63 0-1.141-.52-1.141-1.14zm-174.25-7.28c0-.63.511-1.13 1.141-1.13s1.14.5 1.14 1.13a1.14 1.14 0 1 1-2.281 0zm174.25-.3a1.135 1.135 0 1 1 2.271.01 1.135 1.135 0 0 1-2.271-.01zm-174.25-7.27a1.14 1.14 0 0 1 2.281 0c0 .63-.51 1.13-1.14 1.13-.63 0-1.141-.5-1.141-1.13zm174.25-.3c0-.63.511-1.14 1.141-1.14.62 0 1.13.51 1.13 1.14 0 .63-.51 1.14-1.13 1.14a1.14 1.14 0 0 1-1.141-1.14zm-174.25-7.27a1.14 1.14 0 0 1 2.281 0c0 .62-.51 1.13-1.14 1.13-.63 0-1.141-.51-1.141-1.13zm174.25-.3c0-.63.511-1.14 1.141-1.14a1.135 1.135 0 1 1-1.141 1.14zm-174.25-7.28c0-.63.511-1.13 1.141-1.13s1.14.5 1.14 1.13a1.14 1.14 0 1 1-2.281 0zm174.25-.3a1.135 1.135 0 1 1 2.271.01 1.135 1.135 0 0 1-2.271-.01zm-174.25-7.27a1.14 1.14 0 0 1 2.281 0c0 .63-.51 1.13-1.14 1.13-.63 0-1.141-.5-1.141-1.13zm174.25-.3c0-.63.511-1.14 1.141-1.14.62 0 1.13.51 1.13 1.14 0 .63-.51 1.14-1.13 1.14a1.14 1.14 0 0 1-1.141-1.14zm-174.25-7.27a1.14 1.14 0 0 1 2.281 0c0 .62-.51 1.13-1.14 1.13-.63 0-1.141-.51-1.141-1.13zm174.25-.3c0-.63.511-1.14 1.141-1.14a1.135 1.135 0 1 1-1.141 1.14zm-174.25-7.28c0-.63.511-1.13 1.141-1.13s1.14.5 1.14 1.13a1.14 1.14 0 1 1-2.281 0zm174.071-.12c0-.62.51-1.13 1.14-1.13.631 0 1.131.51 1.131 1.13 0 .63-.5 1.14-1.131 1.14s-1.14-.51-1.14-1.14zm-7.571 0a1.136 1.136 0 0 1 2.271 0c0 .63-.51 1.14-1.141 1.14-.619 0-1.13-.51-1.13-1.14zm-7.569 0c0-.62.5-1.13 1.13-1.13.63 0 1.14.51 1.14 1.13 0 .63-.51 1.14-1.14 1.14-.63 0-1.13-.51-1.13-1.14zm-7.58 0c0-.62.51-1.13 1.14-1.13.62 0 1.14.51 1.14 1.13a1.14 1.14 0 1 1-2.28 0zm-7.57 0a1.135 1.135 0 1 1 2.27.01 1.135 1.135 0 0 1-2.27-.01zm-7.581 0c0-.62.521-1.13 1.141-1.13.63 0 1.14.51 1.14 1.13a1.14 1.14 0 1 1-2.281 0zm-7.569 0c0-.62.51-1.13 1.14-1.13.62 0 1.14.51 1.14 1.13a1.14 1.14 0 1 1-2.28 0zm-7.57 0a1.135 1.135 0 1 1 2.27.01 1.135 1.135 0 0 1-2.27-.01zm-7.571 0a1.135 1.135 0 1 1 2.27.01 1.135 1.135 0 0 1-2.27-.01zm-7.58 0a1.136 1.136 0 1 1 1.141 1.14 1.14 1.14 0 0 1-1.141-1.14zm-7.569 0a1.135 1.135 0 1 1 2.27.01 1.135 1.135 0 0 1-2.27-.01zm-7.58 0c0-.62.51-1.13 1.14-1.13.63 0 1.14.51 1.14 1.13a1.14 1.14 0 1 1-2.28 0zm-7.57 0a1.135 1.135 0 1 1 2.27.01 1.135 1.135 0 0 1-2.27-.01zm-7.571 0a1.136 1.136 0 0 1 2.271 0c0 .63-.51 1.14-1.141 1.14-.619 0-1.13-.51-1.13-1.14zm-7.58 0c0-.62.511-1.13 1.141-1.13s1.14.51 1.14 1.13a1.14 1.14 0 1 1-2.281 0zm-7.569 0a1.135 1.135 0 1 1 2.27.01 1.135 1.135 0 0 1-2.27-.01zm-7.57 0a1.135 1.135 0 1 1 2.27.01 1.135 1.135 0 0 1-2.27-.01zm-7.58 0c0-.62.51-1.13 1.14-1.13.631 0 1.141.51 1.141 1.13a1.14 1.14 0 1 1-2.281 0zm-7.571 0a1.135 1.135 0 1 1 2.271.01 1.135 1.135 0 0 1-2.271-.01zm-7.569 0a1.135 1.135 0 1 1 2.27.01 1.135 1.135 0 0 1-2.27-.01zm-7.58 0c0-.62.51-1.13 1.14-1.13.63 0 1.141.51 1.141 1.13a1.14 1.14 0 0 1-2.281 0zm-7.57 0a1.136 1.136 0 1 1 1.14 1.14c-.631 0-1.14-.51-1.14-1.14zm-7.571 0c0-.62.5-1.13 1.131-1.13.63 0 1.14.51 1.14 1.13 0 .63-.51 1.14-1.14 1.14-.631 0-1.131-.51-1.131-1.14z" fill="#231f20"/><path d="M935.163 820.793h22.973v22.973h-22.973z" fill="#fff"/><path d="M960.03 845.659h-26.76v-26.76h26.76zm-22.973-3.787h19.186v-19.186h-19.186zm-83.982-16.043h12.901v12.901h-12.901zm0 173.674h12.901v12.901h-12.901zm100.025-86.55v12.901h-12.9v-12.9zm-174.248 0v12.9H765.95v-12.9z" fill="#231f20"/><path d="M935.163 994.466h22.973v22.973h-22.973z" fill="#fff"/><path d="M960.03 1019.333h-26.76v-26.761h26.76zm-22.973-3.787h19.186V996.36h-19.186z" fill="#231f20"/><path d="M760.915 820.793h22.973v22.973h-22.973z" fill="#fff"/><path d="M785.782 845.659h-26.761v-26.76h26.761zm-22.974-3.787h19.187v-19.186h-19.187z" fill="#231f20"/><path d="M760.915 994.466h22.973v22.973h-22.973z" fill="#fff"/><path d="M785.782 1019.333h-26.761v-26.761h26.761zm-22.974-3.787h19.187V996.36h-19.187z" fill="#231f20"/><path d="m859.526 832.279 11.274 45.047 32.288-33.374-12.759 44.648 44.649-12.759-33.374 32.288 45.046 11.274-45.046 11.275 33.374 32.287-44.649-12.759 12.759 44.649-32.288-33.374-11.274 45.047-11.275-45.047-32.287 33.374 12.759-44.649-44.649 12.759 33.374-32.287-45.046-11.275 45.046-11.274-33.374-32.288 44.649 12.759-12.759-44.648 32.287 33.374z" fill="#fff"/><path d="M859.526 1008.421a1.894 1.894 0 0 1-1.837-1.434l-10.446-41.74-29.919 30.924a1.892 1.892 0 0 1-3.181-1.837l11.823-41.371-41.372 11.822a1.894 1.894 0 0 1-1.837-3.182l30.924-29.917-41.739-10.447a1.893 1.893 0 0 1 0-3.674l41.739-10.447-30.924-29.917a1.893 1.893 0 0 1 1.837-3.182l41.372 11.822-11.823-41.371a1.892 1.892 0 0 1 3.181-1.837l29.919 30.924 10.446-41.74a1.894 1.894 0 0 1 3.674 0l10.446 41.74 29.919-30.924a1.892 1.892 0 0 1 3.181 1.837l-11.823 41.371 41.372-11.822a1.894 1.894 0 0 1 1.837 3.182l-30.924 29.917 41.739 10.447a1.893 1.893 0 0 1 0 3.674l-41.739 10.447 30.924 29.917a1.893 1.893 0 0 1-1.837 3.182l-41.372-11.822 11.823 41.371a1.892 1.892 0 0 1-3.181 1.837l-29.919-30.924-10.446 41.74a1.894 1.894 0 0 1-1.837 1.434zm-11.275-48.834a1.894 1.894 0 0 1 1.837 1.434l9.438 37.708 9.438-37.708a1.894 1.894 0 0 1 3.198-.857l27.028 27.937-10.681-37.375a1.893 1.893 0 0 1 2.34-2.34l37.376 10.68-27.938-27.027a1.896 1.896 0 0 1 .856-3.198l37.708-9.438-37.708-9.438a1.896 1.896 0 0 1-.856-3.198l27.938-27.027-37.376 10.68a1.89 1.89 0 0 1-2.34-2.34l10.681-37.375-27.028 27.937a1.892 1.892 0 0 1-3.198-.857l-9.438-37.708-9.438 37.708a1.894 1.894 0 0 1-3.198.857l-27.028-27.937 10.681 37.375a1.893 1.893 0 0 1-2.34 2.34l-37.376-10.68 27.938 27.027a1.896 1.896 0 0 1-.856 3.198l-37.708 9.438 37.708 9.438a1.896 1.896 0 0 1 .856 3.198l-27.938 27.027 37.376-10.68a1.89 1.89 0 0 1 2.34 2.34l-10.681 37.375 27.028-27.937a1.9 1.9 0 0 1 1.361-.577zM574.582 684.656c0-.04 0-.08.01-.12-.01-.04-.01-.08-.01-.12 0-.63.51-1.14 1.14-1.14.631 0 1.131.51 1.131 1.14v.24a1.137 1.137 0 0 1-2.271 0zm-7.571 0c0-.63.5-1.14 1.131-1.14.63 0 1.14.51 1.14 1.14 0 .62-.51 1.13-1.14 1.13-.631 0-1.131-.51-1.131-1.13zm-7.58 0c0-.63.511-1.14 1.141-1.14a1.135 1.135 0 1 1-1.141 1.14zm-7.569 0c0-.63.51-1.14 1.14-1.14a1.135 1.135 0 1 1-1.14 1.14zm-7.57 0c0-.63.5-1.14 1.13-1.14.63 0 1.141.51 1.141 1.14 0 .62-.511 1.13-1.141 1.13s-1.13-.51-1.13-1.13zm-7.581 0c0-.63.51-1.14 1.141-1.14.63 0 1.13.51 1.13 1.14 0 .62-.5 1.13-1.13 1.13-.631 0-1.141-.51-1.141-1.13zm-7.569 0c0-.63.51-1.14 1.13-1.14.63 0 1.14.51 1.14 1.14a1.135 1.135 0 0 1-2.27 0zm-7.57 0c0-.63.5-1.14 1.13-1.14.63 0 1.14.51 1.14 1.14 0 .62-.51 1.13-1.14 1.13-.63 0-1.13-.51-1.13-1.13zm-7.58 0c0-.63.51-1.14 1.14-1.14.63 0 1.13.51 1.13 1.14 0 .62-.5 1.13-1.13 1.13-.631 0-1.14-.51-1.14-1.13zm-7.571 0c0-.63.51-1.14 1.13-1.14.63 0 1.141.51 1.141 1.14a1.135 1.135 0 0 1-2.271 0zm-7.569 0c0-.63.5-1.14 1.13-1.14.63 0 1.14.51 1.14 1.14 0 .62-.51 1.13-1.14 1.13-.63 0-1.13-.51-1.13-1.13zm-7.58 0a1.14 1.14 0 1 1 2.28 0c0 .62-.51 1.13-1.14 1.13-.63 0-1.14-.51-1.14-1.13zm-7.57 0c0-.63.51-1.14 1.14-1.14a1.135 1.135 0 1 1-1.14 1.14zm-7.58 0a1.14 1.14 0 1 1 2.281 0c0 .62-.51 1.13-1.141 1.13s-1.14-.51-1.14-1.13zm-7.571 0a1.14 1.14 0 0 1 2.281 0c0 .62-.52 1.13-1.14 1.13-.63 0-1.141-.51-1.141-1.13zm-7.569 0c0-.63.51-1.14 1.14-1.14a1.135 1.135 0 1 1-1.14 1.14zm-7.58 0a1.14 1.14 0 1 1 2.28 0c0 .62-.51 1.13-1.14 1.13-.63 0-1.14-.51-1.14-1.13zm-7.57 0c0-.63.51-1.14 1.14-1.14a1.136 1.136 0 1 1-1.14 1.14zm-7.571 0c0-.63.511-1.14 1.141-1.14a1.135 1.135 0 1 1-1.141 1.14zm-7.58 0a1.14 1.14 0 0 1 2.281 0c0 .62-.51 1.13-1.14 1.13-.63 0-1.141-.51-1.141-1.13zm-7.569 0c0-.63.51-1.14 1.14-1.14a1.135 1.135 0 1 1-1.14 1.14zm-7.57 0c0-.63.51-1.14 1.13-1.14.63 0 1.141.51 1.141 1.14a1.135 1.135 0 0 1-2.271 0zm-7.571 0c0-.63.5-1.14 1.131-1.14.63 0 1.14.51 1.14 1.14 0 .62-.51 1.13-1.14 1.13-.631 0-1.131-.51-1.131-1.13zm-7.579 0c0-.63.51-1.14 1.14-1.14.63 0 1.13.51 1.13 1.14 0 .62-.5 1.13-1.13 1.13-.63 0-1.14-.51-1.14-1.13zm-.06-7.51a1.14 1.14 0 1 1 2.281 0c0 .62-.51 1.13-1.141 1.13s-1.14-.51-1.14-1.13zm174.25-.31c0-.62.51-1.13 1.14-1.13.631 0 1.131.51 1.131 1.13 0 .63-.5 1.14-1.131 1.14s-1.14-.51-1.14-1.14zm-174.25-7.27a1.14 1.14 0 1 1 2.279-.001 1.14 1.14 0 0 1-2.279.001zm174.25-.3c0-.63.51-1.13 1.14-1.13.631 0 1.131.5 1.131 1.13 0 .63-.5 1.14-1.131 1.14s-1.14-.51-1.14-1.14zm-174.25-7.27a1.14 1.14 0 1 1 2.279-.001 1.14 1.14 0 0 1-2.279.001zm174.25-.3c0-.63.51-1.14 1.14-1.14.631 0 1.131.51 1.131 1.14 0 .63-.5 1.13-1.131 1.13s-1.14-.5-1.14-1.13zm-174.25-7.27a1.14 1.14 0 1 1 2.281 0c0 .62-.51 1.13-1.141 1.13s-1.14-.51-1.14-1.13zm174.25-.31c0-.62.51-1.13 1.14-1.13.631 0 1.131.51 1.131 1.13 0 .63-.5 1.14-1.131 1.14s-1.14-.51-1.14-1.14zm-174.25-7.27a1.14 1.14 0 1 1 2.279-.001 1.14 1.14 0 0 1-2.279.001zm174.25-.3c0-.62.51-1.13 1.14-1.13.631 0 1.131.51 1.131 1.13 0 .63-.5 1.14-1.131 1.14s-1.14-.51-1.14-1.14zm-174.25-7.27a1.14 1.14 0 1 1 2.281 0c0 .62-.51 1.13-1.141 1.13s-1.14-.51-1.14-1.13zm174.25-.3c0-.63.51-1.14 1.14-1.14.631 0 1.131.51 1.131 1.14 0 .63-.5 1.13-1.131 1.13s-1.14-.5-1.14-1.13zm-174.25-7.27a1.14 1.14 0 1 1 2.281 0c0 .62-.51 1.13-1.141 1.13s-1.14-.51-1.14-1.13zm174.25-.31c0-.62.51-1.13 1.14-1.13.631 0 1.131.51 1.131 1.13 0 .63-.5 1.14-1.131 1.14s-1.14-.51-1.14-1.14zm-174.25-7.27c0-.63.51-1.13 1.14-1.13.631 0 1.141.5 1.141 1.13a1.14 1.14 0 1 1-2.281 0zm174.25-.3c0-.63.51-1.14 1.14-1.14.631 0 1.131.51 1.131 1.14 0 .63-.5 1.14-1.131 1.14s-1.14-.51-1.14-1.14zm-174.25-7.27a1.14 1.14 0 1 1 2.281 0c0 .62-.51 1.13-1.141 1.13s-1.14-.51-1.14-1.13zm174.25-.3c0-.63.51-1.14 1.14-1.14.631 0 1.131.51 1.131 1.14 0 .63-.5 1.13-1.131 1.13s-1.14-.5-1.14-1.13zm-174.25-7.28c0-.62.51-1.13 1.14-1.13.631 0 1.141.51 1.141 1.13a1.14 1.14 0 1 1-2.281 0zm174.25-.3c0-.62.51-1.13 1.14-1.13.631 0 1.131.51 1.131 1.13 0 .63-.5 1.14-1.131 1.14s-1.14-.51-1.14-1.14zm-174.25-7.27c0-.63.51-1.13 1.14-1.13.631 0 1.141.5 1.141 1.13a1.14 1.14 0 1 1-2.281 0zm174.25-.3c0-.63.51-1.14 1.14-1.14.631 0 1.131.51 1.131 1.14 0 .63-.5 1.13-1.131 1.13s-1.14-.5-1.14-1.13zm-174.25-7.27a1.14 1.14 0 1 1 2.281 0c0 .62-.51 1.13-1.141 1.13s-1.14-.51-1.14-1.13zm174.25-.3c0-.63.51-1.14 1.14-1.14.631 0 1.131.51 1.131 1.14a1.137 1.137 0 0 1-2.271 0zm-174.25-7.28c0-.62.51-1.13 1.14-1.13.631 0 1.141.51 1.141 1.13a1.14 1.14 0 1 1-2.281 0zm174.25-.29c0-.63.51-1.14 1.14-1.14.631 0 1.131.51 1.131 1.14a1.137 1.137 0 0 1-2.271 0zm-174.25-7.28a1.14 1.14 0 1 1 2.279-.001 1.14 1.14 0 0 1-2.279.001zm174.25-.3c0-.63.51-1.14 1.14-1.14.631 0 1.131.51 1.131 1.14 0 .63-.5 1.14-1.131 1.14s-1.14-.51-1.14-1.14zm-174.25-7.27a1.14 1.14 0 1 1 2.281 0c0 .63-.51 1.13-1.141 1.13s-1.14-.5-1.14-1.13zm174.25-.3c0-.63.51-1.14 1.14-1.14.631 0 1.131.51 1.131 1.14a1.137 1.137 0 0 1-2.271 0zm-174.25-7.28c0-.62.51-1.13 1.14-1.13.631 0 1.141.51 1.141 1.13a1.14 1.14 0 1 1-2.281 0zm174.25-.3c0-.62.51-1.13 1.14-1.13.631 0 1.131.51 1.131 1.13 0 .63-.5 1.14-1.131 1.14s-1.14-.51-1.14-1.14zm-174.25-7.27a1.14 1.14 0 1 1 2.279-.001 1.14 1.14 0 0 1-2.279.001zm174.25-.3c0-.63.51-1.13 1.14-1.13.631 0 1.131.5 1.131 1.13 0 .63-.5 1.14-1.131 1.14s-1.14-.51-1.14-1.14zm-174.25-7.27a1.14 1.14 0 1 1 2.281 0c0 .62-.51 1.13-1.141 1.13s-1.14-.51-1.14-1.13zm174.25-.3c0-.63.51-1.14 1.14-1.14.631 0 1.131.51 1.131 1.14a1.137 1.137 0 0 1-2.271 0zm-174.25-7.28c0-.62.51-1.13 1.14-1.13.631 0 1.141.51 1.141 1.13a1.14 1.14 0 1 1-2.281 0zm174.25-.3c0-.62.51-1.13 1.14-1.13.631 0 1.131.51 1.131 1.13 0 .63-.5 1.14-1.131 1.14s-1.14-.51-1.14-1.14zm-174.25-7.27a1.14 1.14 0 1 1 2.281 0c0 .63-.51 1.13-1.141 1.13s-1.14-.5-1.14-1.13zm174.25-.3c0-.63.51-1.13 1.14-1.13.631 0 1.131.5 1.131 1.13 0 .63-.5 1.14-1.131 1.14s-1.14-.51-1.14-1.14zm-174.25-7.27a1.14 1.14 0 1 1 2.281 0c0 .62-.51 1.13-1.141 1.13s-1.14-.51-1.14-1.13zm174.25-.3c0-.63.51-1.14 1.14-1.14.631 0 1.131.51 1.131 1.14a1.137 1.137 0 0 1-2.271 0zm-174.25-7.27a1.14 1.14 0 1 1 2.281 0c0 .62-.51 1.13-1.141 1.13s-1.14-.51-1.14-1.13zm174.25-.31c0-.62.51-1.13 1.14-1.13.631 0 1.131.51 1.131 1.13 0 .63-.5 1.14-1.131 1.14s-1.14-.51-1.14-1.14zm-174.25-7.27a1.14 1.14 0 1 1 2.279-.001 1.14 1.14 0 0 1-2.279.001zm174.07-.12c0-.63.51-1.14 1.14-1.14.62 0 1.13.51 1.13 1.14 0 .63-.51 1.14-1.13 1.14-.63 0-1.14-.51-1.14-1.14zm-7.57 0c0-.63.5-1.14 1.13-1.14a1.14 1.14 0 1 1 0 2.28c-.63 0-1.13-.51-1.13-1.14zm-7.581 0c0-.63.51-1.14 1.141-1.14.63 0 1.13.51 1.13 1.14 0 .63-.5 1.14-1.13 1.14a1.14 1.14 0 0 1-1.141-1.14zm-7.57 0c0-.63.511-1.14 1.141-1.14.62 0 1.13.51 1.13 1.14 0 .63-.51 1.14-1.13 1.14a1.14 1.14 0 0 1-1.141-1.14zm-7.569 0c0-.63.5-1.14 1.13-1.14a1.14 1.14 0 1 1 0 2.28c-.63 0-1.13-.51-1.13-1.14zm-7.58 0c0-.63.51-1.14 1.14-1.14.63 0 1.13.51 1.13 1.14 0 .63-.5 1.14-1.13 1.14-.63 0-1.14-.51-1.14-1.14zm-7.571 0c0-.63.51-1.14 1.141-1.14.619 0 1.13.51 1.13 1.14 0 .63-.511 1.14-1.13 1.14a1.14 1.14 0 0 1-1.141-1.14zm-7.569 0c0-.63.5-1.14 1.13-1.14a1.14 1.14 0 1 1 0 2.28c-.63 0-1.13-.51-1.13-1.14zm-7.58 0c0-.63.51-1.14 1.14-1.14.63 0 1.13.51 1.13 1.14 0 .63-.5 1.14-1.13 1.14-.63 0-1.14-.51-1.14-1.14zm-7.57 0c0-.63.51-1.14 1.13-1.14a1.14 1.14 0 1 1 0 2.28c-.621 0-1.13-.51-1.13-1.14zm-7.571 0c0-.63.51-1.14 1.13-1.14a1.14 1.14 0 1 1 0 2.28c-.62 0-1.13-.51-1.13-1.14zm-7.58 0a1.14 1.14 0 1 1 2.28 0 1.14 1.14 0 0 1-2.28 0zm-7.569 0c0-.63.51-1.14 1.13-1.14a1.14 1.14 0 1 1 0 2.28c-.62 0-1.13-.51-1.13-1.14zm-7.58 0a1.14 1.14 0 1 1 2.279-.001 1.14 1.14 0 0 1-2.279.001zm-7.57 0a1.14 1.14 0 1 1 2.279-.001 1.14 1.14 0 0 1-2.279.001zm-7.571 0c0-.63.511-1.14 1.141-1.14.62 0 1.13.51 1.13 1.14 0 .63-.51 1.14-1.13 1.14a1.14 1.14 0 0 1-1.141-1.14zm-7.58 0a1.14 1.14 0 1 1 2.28 0 1.14 1.14 0 0 1-2.28 0zm-7.569 0a1.14 1.14 0 1 1 2.279-.001 1.14 1.14 0 0 1-2.279.001zm-7.57 0c0-.63.51-1.14 1.14-1.14.62 0 1.131.51 1.131 1.14 0 .63-.511 1.14-1.131 1.14-.631 0-1.14-.51-1.14-1.14zm-7.581 0a1.14 1.14 0 1 1 2.28 0 1.14 1.14 0 0 1-2.28 0zm-7.57 0c0-.63.511-1.14 1.141-1.14.62 0 1.13.51 1.13 1.14 0 .63-.51 1.14-1.13 1.14a1.14 1.14 0 0 1-1.141-1.14zm-7.569 0c0-.63.51-1.14 1.14-1.14.62 0 1.13.51 1.13 1.14 0 .63-.51 1.14-1.13 1.14-.63 0-1.14-.51-1.14-1.14zm-7.57 0c0-.63.5-1.14 1.13-1.14a1.14 1.14 0 1 1 0 2.28c-.63 0-1.13-.51-1.13-1.14z" fill="#231f20"/><path d="M564.232 498.92h22.973v22.973h-22.973z" fill="#fff"/><path d="M589.098 523.787h-26.76v-26.761h26.76zM566.125 520h19.186v-19.187h-19.186zm-83.981-16.044h12.901v12.901h-12.901zm0 173.674h12.901v12.901h-12.901zm100.025-86.55v12.901h-12.901v-12.9zm-174.249 0v12.9h-12.9v-12.9z" fill="#231f20"/><path d="M564.232 672.594h22.973v22.973h-22.973z" fill="#fff"/><path d="M589.098 697.46h-26.76V670.7h26.76zm-22.973-3.787h19.186v-19.186h-19.186z" fill="#231f20"/><path d="M389.983 498.92h22.973v22.973h-22.973z" fill="#fff"/><path d="M414.85 523.787h-26.761v-26.761h26.761zM391.876 520h19.187v-19.187h-19.187z" fill="#231f20"/><path d="M389.983 672.594h22.973v22.973h-22.973z" fill="#fff"/><path d="M414.85 697.46h-26.761V670.7h26.761zm-22.974-3.787h19.187v-19.186h-19.187z" fill="#231f20"/><path d="m488.594 510.406 24.21 62.915 62.914 24.209-62.914 24.21-24.21 62.915-24.233-62.891-62.891-24.234 62.914-24.209z" fill="#fff"/><path d="M488.594 686.548a1.895 1.895 0 0 1-1.767-1.213l-23.932-62.107-62.106-23.932a1.894 1.894 0 0 1 .001-3.534l62.129-23.907 23.908-62.13a1.892 1.892 0 0 1 3.534 0l23.908 62.13 62.129 23.907a1.894 1.894 0 0 1 0 3.534l-62.129 23.908-23.908 62.13a1.894 1.894 0 0 1-1.767 1.214zm-81.855-89.017 58.303 22.466c.499.192.894.587 1.086 1.086l22.466 58.303 22.444-58.326c.191-.5.587-.895 1.087-1.087l58.321-22.443-58.321-22.442a1.887 1.887 0 0 1-1.087-1.087l-22.443-58.323-22.443 58.323c-.191.5-.587.895-1.087 1.087zm536.911 418.43c-2.769-7.533 4.553-14.856 12.086-12.086l58.99 21.685 58.64 21.556c7.591 2.79 8.364 13.221 1.267 17.1l-45.676 24.966-24.966 45.676c-3.879 7.097-14.309 6.323-17.1-1.267l-21.556-58.64zm172.631 27.661v28.955h1.584v-28.955a6.271 6.271 0 0 1-1.584 0zm1.584-12.46v-28.955h-1.584v28.955a6.271 6.271 0 0 1 1.584 0zm5.438 7.022h28.955v-1.584h-28.955c.033.26.052.523.052.792s-.019.532-.052.792zm-12.46-1.584h-28.955v1.584h28.955c-.033-.26-.052-.523-.052-.792s.019-.533.052-.792zm2.385-4.173-20.474-20.474-1.12 1.12 20.474 20.474a6.25 6.25 0 0 1 1.12-1.12zm7.69 9.93 20.474 20.474 1.12-1.12-20.474-20.474a6.283 6.283 0 0 1-1.12 1.12zm1.12-8.811 20.474-20.474-1.12-1.12-20.474 20.474c.419.325.796.702 1.12 1.12zm-9.93 7.691-20.474 20.474 1.12 1.12 20.474-20.474a6.283 6.283 0 0 1-1.12-1.12zm157.634-231.187-4.772 10.743 4.772 10.742-10.742-4.772-10.743 4.772 4.767-10.742-4.767-10.743 10.743 4.772zM292.17 1290.119l-4.773 10.743 4.773 10.742-10.743-4.772-10.742 4.772 4.766-10.742-4.766-10.743 10.742 4.772zm-58.38-671.658-4.772 10.742 4.772 10.743-10.742-4.772-10.743 4.772 4.767-10.743-4.767-10.742 10.743 4.772zM498.851 207.27l-4.773 10.742 4.773 10.743-10.743-4.773-10.742 4.773 4.766-10.743-4.766-10.742 10.742 4.772zm671.088 1061.364-4.772 10.742 4.772 10.743-10.742-4.772-10.743 4.772 4.767-10.743-4.767-10.742 10.743 4.772zm-423.186-583.81-4.773 10.743 4.773 10.742-10.743-4.772-10.742 4.772 4.766-10.742-4.766-10.743 10.742 4.773z" fill="#231f20"/></svg>