<svg width="163" height="118" viewBox="0 0 163 118" fill="none" xmlns="http://www.w3.org/2000/svg">
<path fill-rule="evenodd" clip-rule="evenodd" d="M8.19439 8.08844C0.583008 15.6998 0.583008 27.9502 0.583008 52.4508V65.4443C0.583008 89.945 0.583008 102.195 8.19439 109.807C15.8058 117.418 28.0561 117.418 52.5568 117.418H111.027C135.528 117.418 147.778 117.418 155.39 109.807C163.001 102.195 163.001 89.945 163.001 65.4443V52.4508C163.001 27.9502 163.001 15.6998 155.39 8.08844C147.778 0.477051 135.528 0.477051 111.027 0.477051H52.5568C28.0561 0.477051 15.8058 0.477051 8.19439 8.08844ZM45.0073 83.9341C48.5329 85.554 52.6778 86.3639 57.442 86.3639C62.1586 86.3639 66.2797 85.554 69.8053 83.9341C73.3308 82.2666 76.2609 80.0989 78.5954 77.4309C80.9298 74.7153 82.6688 71.7853 83.8122 68.6409C85.0033 65.4964 85.5988 62.4473 85.5988 59.4935V57.9213C85.5988 54.6339 84.9795 51.418 83.7408 48.2736C82.5497 45.0816 80.7631 42.1992 78.381 39.6265C75.9988 37.0538 73.045 35.0052 69.5194 33.4806C66.0415 31.956 62.0157 31.1937 57.442 31.1937C52.8207 31.1937 48.7472 31.956 45.2217 33.4806C41.7438 35.0052 38.8138 37.0538 36.4316 39.6265C34.0495 42.1992 32.2629 45.0816 31.0718 48.2736C29.8808 51.418 29.2852 54.6339 29.2852 57.9213V59.4935C29.2852 62.4473 29.8569 65.4964 31.0004 68.6409C32.1438 71.7853 33.8827 74.7153 36.2172 77.4309C38.5517 80.0989 41.4817 82.2666 45.0073 83.9341ZM63.5879 72.7858C61.7775 73.548 59.7289 73.9292 57.442 73.9292C55.1552 73.9292 53.1065 73.548 51.2961 72.7858C49.4857 72.0235 47.9373 70.9515 46.651 69.5699C45.3646 68.1882 44.3879 66.5922 43.7209 64.7818C43.054 62.9237 42.7205 60.9227 42.7205 58.7788C42.7205 56.492 43.054 54.4195 43.7209 52.5615C44.3879 50.7034 45.3646 49.1074 46.651 47.7734C47.9373 46.4394 49.4857 45.4151 51.2961 44.7004C53.1065 43.9858 55.1552 43.6285 57.442 43.6285C59.6812 43.6285 61.706 43.9858 63.5165 44.7004C65.3269 45.4151 66.8753 46.4394 68.1616 47.7734C69.448 49.1074 70.4246 50.7034 71.0916 52.5615C71.8063 54.4195 72.1636 56.492 72.1636 58.7788C72.1636 60.9227 71.8301 62.9237 71.1631 64.7818C70.4961 66.5922 69.5194 68.1882 68.2331 69.5699C66.9467 70.9515 65.3983 72.0235 63.5879 72.7858ZM99.4215 84.0771C102.756 85.6016 106.854 86.3639 111.713 86.3639C116.239 86.3639 120.098 85.6731 123.29 84.2915C126.53 82.9098 129.008 80.9565 130.723 78.4314C132.485 75.9064 133.367 72.9525 133.367 69.5699C133.367 66.1873 132.509 63.3287 130.794 60.9942C129.079 58.6597 126.721 56.8255 123.719 55.4915C120.718 54.1099 117.264 53.2523 113.357 52.9188L109.998 52.6329C107.759 52.4424 106.187 51.8706 105.282 50.9178C104.376 49.9649 103.924 48.8215 103.924 47.4875C103.924 46.487 104.162 45.5818 104.638 44.7719C105.162 43.962 105.901 43.3426 106.854 42.9138C107.854 42.4374 109.069 42.1992 110.498 42.1992C112.023 42.1992 113.309 42.4851 114.357 43.0568C115.453 43.5808 116.287 44.3193 116.859 45.2721C117.43 46.225 117.716 47.2731 117.716 48.4166H130.58C130.58 44.9863 129.794 41.9848 128.221 39.4121C126.649 36.7918 124.362 34.7669 121.361 33.3377C118.407 31.9084 114.786 31.1937 110.498 31.1937C106.544 31.1937 103.114 31.8369 100.208 33.1233C97.3014 34.4096 95.0384 36.2677 93.4185 38.6975C91.8463 41.1272 91.0602 44.0573 91.0602 47.4875C91.0602 52.2994 92.6563 56.1585 95.8483 59.0647C99.0404 61.9709 103.328 63.6622 108.712 64.1386L112.071 64.4245C115.12 64.6627 117.287 65.2106 118.574 66.0682C119.86 66.8781 120.503 68.0453 120.503 69.5699C120.503 70.7609 120.146 71.7853 119.431 72.6428C118.764 73.5004 117.764 74.1674 116.43 74.6438C115.144 75.1203 113.571 75.3585 111.713 75.3585C109.569 75.3585 107.807 75.0726 106.425 74.5009C105.043 73.9292 103.995 73.1431 103.281 72.1426C102.614 71.0945 102.28 69.951 102.28 68.7123H89.4165C89.4165 72.1426 90.2503 75.1917 91.9178 77.8597C93.6329 80.48 96.1342 82.5525 99.4215 84.0771Z" fill="#FFA3E0"/>
</svg>
