<svg height="1000" viewBox="0 0 1500 1000" width="1500" xmlns="http://www.w3.org/2000/svg"><path d="M454.402 183.428H704.48v3.049H454.402z" fill="#231f20"/><path d="M577.917 59.914h3.049v250.078h-3.049z" fill="#231f20"/><path d="m580.658 310.91-2.435-1.836c.414-.549 41.373-55.688 41.373-124.121S578.638 61.38 578.224 60.831l2.435-1.836c.42.557 41.987 56.476 41.987 125.957s-41.568 125.401-41.988 125.958z" fill="#231f20"/><path d="M579.442 311.516c-69.787 0-126.563-56.776-126.563-126.563S509.654 58.389 579.442 58.389s126.563 56.776 126.563 126.563-56.776 126.564-126.563 126.564zm0-250.078c-68.106 0-123.515 55.408-123.515 123.515s55.408 123.515 123.515 123.515 123.515-55.408 123.515-123.515S647.548 61.438 579.442 61.438z" fill="#231f20"/><path d="m579.925 311.437-.968-2.891c.206-.069 20.862-7.137 41.228-25.854 18.746-17.229 41.092-48.171 41.092-97.739s-22.346-80.511-41.092-97.739c-20.365-18.718-41.021-25.785-41.228-25.854l.968-2.891c.864.288 21.388 7.296 42.227 26.412 19.239 17.648 42.174 49.336 42.174 100.072s-22.935 82.424-42.174 100.072c-20.839 19.116-41.363 26.124-42.227 26.412z" fill="#231f20"/><path d="M578.225 310.91c-.42-.557-41.987-56.476-41.987-125.957s41.567-125.4 41.987-125.957l2.435 1.836c-.414.549-41.373 55.688-41.373 124.121s40.959 123.572 41.373 124.121z" fill="#231f20"/><path d="M578.958 311.437c-.864-.288-21.388-7.296-42.227-26.412-19.239-17.648-42.174-49.336-42.174-100.072s22.935-82.424 42.174-100.072c20.839-19.116 41.362-26.124 42.227-26.412l.968 2.891c-.206.069-20.862 7.137-41.228 25.854-18.746 17.229-41.092 48.171-41.092 97.739s22.346 80.511 41.092 97.739c20.365 18.718 41.021 25.785 41.228 25.854z" fill="#231f20"/><path d="M690.669 242.356c-12.463-5.352-48.251-17.799-111.228-17.799-62.98 0-98.764 12.447-111.225 17.798l-1.203-2.801c37.927-16.288 91.259-18.046 112.428-18.046 21.168 0 74.498 1.759 112.431 18.047zM497.8 280.476l-1.299-2.758c14.068-6.629 39.878-14.53 82.94-14.53 42.822 0 68.576 7.825 82.64 14.389l-1.289 2.764c-13.784-6.434-39.088-14.104-81.351-14.104-42.498 0-67.854 7.743-81.641 14.239zm81.642-132.079c-21.169 0-74.501-1.758-112.428-18.046l1.203-2.801c12.461 5.351 48.244 17.798 111.225 17.798 62.977 0 98.765-12.447 111.228-17.799l1.203 2.801c-37.933 16.288-91.264 18.047-112.431 18.047zm0-41.68c-43.062 0-68.872-7.901-82.94-14.53l1.299-2.758c13.787 6.496 39.143 14.239 81.642 14.239 42.263 0 67.566-7.67 81.351-14.104l1.289 2.764c-14.065 6.564-39.819 14.389-82.641 14.389z" fill="#231f20"/><path d="M640.259 668.94c-28.399 0-55.124-17.714-73.324-48.599-15.93-27.032-24.702-62.423-24.702-99.655 0-37.231 8.773-72.623 24.702-99.654 18.2-30.886 44.926-48.599 73.324-48.599s55.123 17.714 73.323 48.599c15.93 27.031 24.702 62.423 24.702 99.654s-8.773 72.623-24.702 99.655c-18.2 30.886-44.925 48.599-73.323 48.599z" fill="#fff"/><path d="M640.259 670.465c-28.952 0-56.156-17.987-74.638-49.35-16.065-27.263-24.913-62.93-24.913-100.43s8.848-73.165 24.913-100.428c18.481-31.362 45.686-49.35 74.638-49.35 28.951 0 56.155 17.987 74.637 49.35 16.065 27.263 24.913 62.928 24.913 100.428s-8.848 73.167-24.913 100.43c-18.482 31.363-45.686 49.35-74.637 49.35zm0-296.508c-27.845 0-54.092 17.44-72.011 47.85-15.793 26.8-24.491 61.915-24.491 98.879s8.698 72.08 24.491 98.881c17.919 30.409 44.166 47.85 72.011 47.85 27.844 0 54.091-17.44 72.01-47.85 15.793-26.801 24.491-61.917 24.491-98.881s-8.698-72.079-24.491-98.879c-17.919-30.409-44.166-47.85-72.01-47.85z" fill="#231f20"/><ellipse cx="640.259" cy="520.687" fill="#231f20" rx="72.066" ry="122.293"/><path d="M640.259 644.504c-40.578 0-73.59-55.544-73.59-123.817s33.012-123.818 73.59-123.818 73.59 55.545 73.59 123.818-33.012 123.817-73.59 123.817zm0-244.587c-38.896 0-70.541 54.177-70.541 120.77 0 66.592 31.645 120.769 70.541 120.769S710.8 587.279 710.8 520.687c0-66.593-31.645-120.77-70.541-120.77z" fill="#231f20"/><path d="m646.289 670.205-.258-3.039 423.144-35.791c1.785-1.367 10.848-8.76 19.806-24.243 9.189-15.885 20.144-43.776 20.144-86.444 0-42.669-10.954-70.564-20.145-86.453-8.957-15.487-18.02-22.884-19.805-24.252L646.031 374.21l.258-3.039 423.986 35.846.337.236c.429.301 10.62 7.57 20.898 25.268 9.426 16.23 20.662 44.701 20.662 88.168s-11.236 71.933-20.662 88.159c-10.278 17.692-20.471 24.958-20.899 25.259l-.337.236-.409.035z" fill="#231f20"/><path d="m1081.28 622.852-.258-3.039L1268.8 603.93c1.5-1.164 8.189-6.733 14.803-18.181 6.907-11.954 15.14-32.945 15.14-65.062 0-17.728-2.627-43.406-15.14-65.069-6.611-11.446-13.299-17.02-14.804-18.188l-187.77-15.874.258-3.039 188.615 15.946.338.236c1.288.903 31.551 22.858 31.551 85.987s-30.264 85.07-31.552 85.974l-.337.236-.409.035z" fill="#231f20"/><path d="m1291.539 574.439-.258-3.039 25.36-2.146c2.323-1.877 17.306-15.286 17.306-48.568 0-33.27-14.972-46.689-17.307-48.577l-25.361-2.144.256-3.039 26.22 2.217.338.236c.771.541 18.903 13.693 18.903 51.307 0 37.612-18.132 50.757-18.904 51.298l-.337.236z" fill="#231f20"/><path d="M426.734 668.94c-28.399 0-55.124-17.714-73.324-48.599-15.93-27.032-24.702-62.423-24.702-99.655 0-37.231 8.773-72.623 24.702-99.654 18.2-30.886 44.926-48.599 73.324-48.599s55.123 17.714 73.323 48.599c15.93 27.031 24.702 62.423 24.702 99.654s-8.773 72.623-24.702 99.655c-18.2 30.886-44.925 48.599-73.323 48.599z" fill="#fff"/><g fill="#231f20"><path d="M426.734 670.465c-28.952 0-56.156-17.987-74.638-49.35-16.065-27.263-24.913-62.93-24.913-100.43s8.848-73.165 24.913-100.428c18.481-31.362 45.686-49.35 74.638-49.35 28.951 0 56.155 17.987 74.637 49.35 16.065 27.263 24.913 62.928 24.913 100.428s-8.848 73.167-24.913 100.43c-18.481 31.363-45.685 49.35-74.637 49.35zm0-296.508c-27.845 0-54.092 17.44-72.011 47.85-15.793 26.8-24.491 61.915-24.491 98.879s8.698 72.08 24.491 98.881c17.919 30.409 44.166 47.85 72.011 47.85 27.844 0 54.091-17.44 72.01-47.85 15.793-26.801 24.491-61.917 24.491-98.881s-8.698-72.079-24.491-98.879c-17.919-30.409-44.166-47.85-72.01-47.85z"/><ellipse cx="426.734" cy="520.687" rx="72.066" ry="122.293"/><path d="M426.734 644.504c-40.578 0-73.591-55.544-73.591-123.817s33.013-123.818 73.591-123.818 73.59 55.545 73.59 123.818-33.011 123.817-73.59 123.817zm0-244.587c-38.896 0-70.542 54.177-70.542 120.77 0 66.592 31.646 120.769 70.542 120.769s70.541-54.177 70.541-120.769c.001-66.593-31.644-120.77-70.541-120.77zm5.746 267.267 164.954-13.989.258 3.04-164.954 13.988zm-.008-292.965.257-3.04 164.015 13.86-.257 3.04zm292.321 335.144 8.178 21.253 21.253 8.178-21.253 8.178-8.178 21.254-8.186-21.246-21.246-8.186 21.254-8.178zM325.237 319.175l8.178 21.253 21.253 8.178-21.253 8.179-8.178 21.253-8.186-21.245-21.245-8.187 21.253-8.178zm506.853-19.534 8.178 21.253 21.253 8.179-21.253 8.178-8.178 21.253-8.186-21.245-21.245-8.186 21.253-8.179zm468.176 313.908 8.179 21.253 21.253 8.178-21.253 8.178-8.179 21.253-8.186-21.245-21.245-8.186 21.253-8.178zm-213.05 105.366h5.012v222.696h-5.012z"/><path d="M1201.07 827.757v5.012H978.374v-5.012z"/><path d="m1009.203 753.302 3.544-3.544 157.468 157.469-3.544 3.544z"/><path d="m1166.683 749.744 3.544 3.544-157.469 157.468-3.544-3.544z"/><circle cx="1089.722" cy="830.263" r="19.879"/><path d="M1313.44 367.15h-197.435c-10.545 0-19.124-8.579-19.124-19.124V234.211c0-8.864-7.211-16.076-16.075-16.076H879.203c-10.545 0-19.124-8.579-19.124-19.124V98h3.049v101.011c0 8.864 7.211 16.075 16.075 16.075h201.603c10.545 0 19.124 8.579 19.124 19.125v113.814c0 8.864 7.211 16.075 16.075 16.075h197.435z"/><circle cx="861.604" cy="98.001" r="8.36"/><circle cx="1313.44" cy="365.625" r="8.36"/><path d="M857.93 883.697H525.166c-11.362 0-20.605-9.244-20.605-20.606V752.239c0-9.681-7.876-17.557-17.557-17.557h-198.64c-11.362 0-20.605-9.243-20.605-20.605v-65.303c0-9.681-7.876-17.557-17.558-17.557h-78.838v-3.049h78.838c11.362 0 20.606 9.243 20.606 20.605v65.303c0 9.681 7.876 17.557 17.557 17.557h198.64c11.362 0 20.605 9.243 20.605 20.605V863.09c0 9.682 7.876 17.558 17.557 17.558H857.93z"/><circle cx="171.364" cy="629.693" r="8.36"/><circle cx="857.93" cy="882.172" r="8.36"/></g></svg>