<svg height="1000" viewBox="0 0 1500 1000" width="1500" xmlns="http://www.w3.org/2000/svg"><g fill="#231f20"><path d="m326.719 352.968-28.488-74.032-74.032-28.488 74.032-28.488 28.487-74.029 28.446 73.824 169.638 28.694-169.664 28.666zm-94.03-102.52 67.901 26.129 26.128 67.901 26.198-68.08 153.594-25.951-153.567-25.976-26.224-68.057-26.129 67.904zm528.266 238.129c-182.245 0-353.585-4.093-482.459-11.525-62.689-3.615-111.917-7.827-146.314-12.518-48.684-6.638-54.927-12.478-54.927-16.824s6.243-10.186 54.927-16.824c34.398-4.689 83.625-8.901 146.314-12.517 128.875-7.433 300.216-11.525 482.459-11.525s353.585 4.093 482.46 11.525c62.689 3.615 111.917 7.827 146.314 12.517 48.684 6.639 54.927 12.479 54.927 16.824 0 4.347-6.243 10.187-54.927 16.824-34.398 4.69-83.625 8.902-146.314 12.518-128.874 7.432-300.215 11.525-482.46 11.525zm0-78.685c-182.187 0-353.465 4.092-482.284 11.521-188.804 10.888-198.368 23.816-198.368 26.296 0 2.481 9.564 15.409 198.369 26.298 128.818 7.429 300.096 11.521 482.284 11.521s353.466-4.092 482.284-11.521c188.805-10.889 198.369-23.816 198.369-26.298 0-2.48-9.564-15.408-198.369-26.297-128.819-7.428-300.098-11.52-482.285-11.52z"/><path d="M760.955 527.919c-182.245 0-353.585-4.093-482.459-11.525-62.689-3.615-111.917-7.827-146.314-12.518-48.684-6.638-54.927-12.479-54.927-16.824s6.243-10.187 54.927-16.824c34.398-4.69 83.625-8.902 146.314-12.518 128.875-7.433 300.215-11.525 482.459-11.525s353.586 4.093 482.46 11.525c62.689 3.615 111.917 7.827 146.314 12.518 48.684 6.638 54.927 12.479 54.927 16.824s-6.243 10.187-54.927 16.824c-34.398 4.69-83.625 8.902-146.314 12.518-128.874 7.433-300.215 11.525-482.46 11.525zm0-78.685c-182.188 0-353.466 4.092-482.284 11.521-188.804 10.888-198.368 23.817-198.368 26.297s9.564 15.409 198.369 26.298c128.818 7.429 300.096 11.521 482.284 11.521s353.466-4.092 482.284-11.521c188.805-10.889 198.369-23.817 198.369-26.298s-9.564-15.409-198.369-26.298c-128.818-7.428-300.097-11.52-482.285-11.52z"/><path d="M760.955 567.262c-182.245 0-353.585-4.093-482.459-11.525-62.689-3.615-111.917-7.827-146.314-12.518-48.684-6.638-54.927-12.479-54.927-16.824s6.243-10.187 54.927-16.824c34.398-4.69 83.625-8.902 146.314-12.518 128.875-7.433 300.215-11.525 482.459-11.525s353.586 4.093 482.46 11.525c62.689 3.615 111.917 7.827 146.314 12.518 48.684 6.638 54.927 12.479 54.927 16.824s-6.243 10.187-54.927 16.824c-34.398 4.69-83.625 8.902-146.314 12.518-128.874 7.432-300.215 11.525-482.46 11.525zm0-78.685c-182.188 0-353.466 4.092-482.284 11.521-188.804 10.888-198.368 23.816-198.368 26.297s9.564 15.409 198.369 26.298c128.818 7.429 300.096 11.521 482.284 11.521s353.466-4.092 482.284-11.521c188.805-10.889 198.369-23.817 198.369-26.298s-9.564-15.409-198.369-26.298c-128.818-7.429-300.097-11.52-482.285-11.52z"/><path d="M760.955 606.605c-182.245 0-353.585-4.093-482.459-11.525-62.689-3.615-111.917-7.827-146.314-12.518-48.684-6.638-54.927-12.479-54.927-16.824s6.243-10.187 54.927-16.824c34.398-4.69 83.625-8.902 146.314-12.518 128.875-7.433 300.215-11.525 482.459-11.525s353.586 4.093 482.46 11.525c62.689 3.615 111.917 7.827 146.314 12.518 48.684 6.638 54.927 12.479 54.927 16.824s-6.243 10.187-54.927 16.824c-34.398 4.69-83.625 8.902-146.314 12.518-128.874 7.432-300.215 11.525-482.46 11.525zm0-78.686c-182.188 0-353.466 4.092-482.284 11.521-188.804 10.888-198.368 23.817-198.368 26.298s9.564 15.409 198.369 26.298c128.818 7.429 300.096 11.521 482.284 11.521s353.466-4.092 482.284-11.521c188.805-10.889 198.369-23.817 198.369-26.298s-9.564-15.409-198.369-26.298c-128.818-7.429-300.097-11.521-482.285-11.521z"/><path d="M760.955 645.947c-182.244 0-353.584-4.093-482.459-11.525-62.689-3.615-111.917-7.827-146.314-12.517-48.684-6.639-54.927-12.479-54.927-16.824 0-4.347 6.243-10.187 54.927-16.824 34.398-4.69 83.625-8.902 146.314-12.518 128.875-7.433 300.215-11.525 482.459-11.525s353.586 4.093 482.46 11.525c62.689 3.615 111.917 7.827 146.314 12.518 48.684 6.638 54.927 12.478 54.927 16.824s-6.243 10.186-54.927 16.824c-34.398 4.689-83.625 8.901-146.314 12.517-128.875 7.432-300.216 11.525-482.46 11.525zm0-78.685c-182.188 0-353.466 4.092-482.284 11.521C89.867 589.671 80.303 602.599 80.303 605.08c0 2.48 9.564 15.408 198.369 26.297 128.818 7.429 300.097 11.521 482.284 11.521s353.466-4.092 482.284-11.521c188.805-10.889 198.369-23.816 198.369-26.297s-9.564-15.409-198.369-26.298c-128.818-7.428-300.097-11.52-482.285-11.52zm86.808 117.25h191.158v3.049H847.763z"/><path d="M941.818 590.457h3.049v191.158h-3.049z"/><path d="m944.56 782.534-2.435-1.836c.315-.419 31.553-42.479 31.553-94.661 0-52.221-31.237-94.243-31.553-94.661l2.435-1.836c.322.427 32.167 43.268 32.167 96.497s-31.845 96.07-32.167 96.497z"/><path d="M943.343 783.14c-53.543 0-97.104-43.561-97.104-97.104s43.561-97.104 97.104-97.104 97.104 43.561 97.104 97.104-43.561 97.104-97.104 97.104zm0-191.158c-51.862 0-94.055 42.192-94.055 94.055s42.193 94.055 94.055 94.055 94.055-42.192 94.055-94.055-42.194-94.055-94.055-94.055z"/><path d="m943.826 783.061-.968-2.891c.157-.053 15.896-5.442 31.407-19.707 14.266-13.12 31.272-36.683 31.272-74.427s-17.006-61.307-31.272-74.427c-15.511-14.265-31.25-19.654-31.407-19.707l.968-2.891c.663.222 16.421 5.602 32.406 20.265 14.76 13.54 32.354 37.847 32.354 76.76s-17.594 63.22-32.354 76.76c-15.984 14.663-31.742 20.043-32.406 20.265z"/><path d="M942.125 782.534c-.322-.427-32.167-43.268-32.167-96.497s31.845-96.07 32.167-96.497l2.435 1.836c-.315.419-31.553 42.479-31.553 94.661 0 52.221 31.237 94.243 31.553 94.661z"/><path d="M942.859 783.061c-.663-.222-16.421-5.602-32.406-20.265-14.76-13.54-32.354-37.847-32.354-76.76s17.594-63.22 32.354-76.76c15.985-14.663 31.743-20.043 32.406-20.265l.968 2.891c-.157.053-15.896 5.442-31.407 19.707-14.266 13.12-31.272 36.683-31.272 74.427s17.006 61.307 31.272 74.427c15.511 14.265 31.25 19.654 31.407 19.707z"/><path d="M1028.222 730.245c-9.507-4.083-36.809-13.577-84.879-13.577-48.071 0-75.372 9.494-84.878 13.576l-1.203-2.801c9.68-4.157 37.444-13.824 86.081-13.824 48.636 0 76.402 9.667 86.083 13.823zm-147.133 29.133-1.3-2.758c10.788-5.083 30.571-11.141 63.553-11.141 32.798 0 52.537 5.999 63.321 11.032l-1.289 2.764c-10.504-4.903-29.793-10.747-62.032-10.747-32.418.001-51.746 5.901-62.253 10.85zm62.254-100.925c-48.639 0-76.402-9.667-86.081-13.823l1.203-2.801c9.505 4.081 36.805 13.575 84.878 13.575 48.077 0 75.375-9.494 84.879-13.576l1.203 2.801c-9.678 4.157-37.44 13.824-86.082 13.824zm0-31.86c-32.985 0-52.767-6.059-63.553-11.142l1.3-2.758c10.505 4.95 29.833 10.851 62.253 10.851 32.239 0 51.527-5.844 62.032-10.747l1.289 2.764c-10.784 5.033-30.524 11.032-63.321 11.032z"/></g><path d="M146.474 408.367h1228.964v267.88c0 10.104-8.191 18.295-18.295 18.295H164.769c-10.104 0-18.295-8.191-18.295-18.295z" fill="#fff"/><path d="M1357.143 696.067H164.768c-10.928 0-19.819-8.891-19.819-19.819V406.843h1232.012v269.404c.001 10.929-8.89 19.82-19.818 19.82zM147.998 409.892v266.355c0 9.247 7.523 16.771 16.77 16.771h1192.375c9.247 0 16.77-7.523 16.77-16.771V409.892z" fill="#231f20"/><path d="M164.769 310.013h1192.374c10.104 0 18.295 8.191 18.295 18.295v80.06H146.474v-80.06c0-10.105 8.191-18.295 18.295-18.295z" fill="#fff"/><path d="M1376.962 409.892H144.95v-81.585c0-10.929 8.891-19.819 19.819-19.819h1192.375c10.928 0 19.819 8.891 19.819 19.819v81.585zm-1228.964-3.049h1225.915v-78.536c0-9.247-7.523-16.771-16.77-16.771H164.768c-9.247 0-16.77 7.523-16.77 16.771z" fill="#231f20"/><path d="M205.599 376.252c-9.409 0-17.063-7.654-17.063-17.062s7.654-17.062 17.063-17.062c9.408 0 17.062 7.654 17.062 17.062s-7.654 17.062-17.062 17.062zm0-31.076c-7.728 0-14.014 6.286-14.014 14.014s6.287 14.014 14.014 14.014 14.014-6.286 14.014-14.014-6.287-14.014-14.014-14.014zm53.695 31.076c-9.409 0-17.063-7.654-17.063-17.062s7.654-17.062 17.063-17.062c9.408 0 17.062 7.654 17.062 17.062s-7.654 17.062-17.062 17.062zm0-31.076c-7.728 0-14.014 6.286-14.014 14.014s6.287 14.014 14.014 14.014 14.014-6.286 14.014-14.014-6.287-14.014-14.014-14.014zm53.695 31.076c-9.408 0-17.062-7.654-17.062-17.062s7.654-17.062 17.062-17.062 17.062 7.654 17.062 17.062-7.654 17.062-17.062 17.062zm0-31.076c-7.727 0-14.014 6.286-14.014 14.014s6.287 14.014 14.014 14.014 14.014-6.286 14.014-14.014-6.287-14.014-14.014-14.014z" fill="#231f20"/><path d="M327.067 534.932h867.778v33.044H327.067z" fill="#fff"/><path d="M1196.369 569.501H325.542v-36.093h870.827zm-867.778-3.048h864.729v-29.995H328.591z" fill="#231f20"/><path d="M327.067 534.932h509.52v33.044h-509.52z" fill="#231f20"/><path d="M838.111 569.501H325.542v-36.093h512.569zm-509.52-3.048h506.471v-29.995H328.591zm412.603 223.625H164.275c-23.854 0-46.829-7.146-66.443-20.666-19.154-13.204-33.847-31.54-42.489-53.027l2.829-1.139c8.418 20.931 22.73 38.793 41.39 51.655 19.103 13.168 41.48 20.128 64.712 20.128h576.919v3.049z" fill="#231f20"/><path d="m653.191 852.07-2.934-.832c.187-.657 4.719-16.276 18.2-32.122 10.251-12.049 27.465-26.004 54.181-30.562-26.716-4.558-43.93-18.513-54.181-30.562-13.48-15.846-18.013-31.465-18.2-32.122l2.933-.833c.044.156 4.58 15.729 17.67 31.074 12.032 14.104 34.001 30.918 70.333 30.918v3.049c-36.392 0-58.378 16.865-70.415 31.014-13.053 15.345-17.543 30.823-17.587 30.978zm-44.133-631.016h727.451v3.049H609.058z" fill="#231f20"/><circle cx="609.059" cy="222.578" fill="#231f20" r="6.851"/><circle cx="1336.51" cy="222.578" fill="#231f20" r="6.851"/><path d="m1318.385 677.02-79.526-21.309-79.525-21.309 21.309 79.526 21.308 79.525 39.004-53.012 39.243 39.243 24.418-24.418-39.243-39.243z" fill="#231f20"/></svg>