<svg height="1500" viewBox="0 0 1500 1500" width="1500" xmlns="http://www.w3.org/2000/svg"><g fill="#231f20"><path d="M673.675 1024.667h167.476v4.054H673.675z"/><path d="M755.386 942.955h4.054v167.476h-4.054z"/><path d="m759.031 1111.652-3.237-2.44c.275-.365 27.504-37.047 27.504-82.518 0-45.522-27.229-82.153-27.504-82.518l3.236-2.441c.283.375 28.321 38.094 28.321 84.958.001 46.864-28.037 84.583-28.32 84.959z"/><path d="M757.413 1112.458c-47.291 0-85.765-38.474-85.765-85.765s38.474-85.765 85.765-85.765 85.765 38.474 85.765 85.765-38.475 85.765-85.765 85.765zm0-167.476c-45.056 0-81.711 36.656-81.711 81.711s36.655 81.711 81.711 81.711 81.711-36.655 81.711-81.711-36.656-81.711-81.711-81.711z"/><path d="m758.056 1112.353-1.288-3.843c.137-.046 13.829-4.743 27.311-17.158 18.003-16.579 27.132-38.333 27.132-64.658 0-62.871-53.897-81.634-54.441-81.816l1.286-3.844c.586.196 14.528 4.956 28.64 17.901 13.033 11.956 28.569 33.416 28.569 67.759s-15.536 55.803-28.569 67.759c-14.113 12.944-28.054 17.704-28.64 17.9z"/><path d="M755.794 1111.652c-.283-.376-28.321-38.094-28.321-84.958s28.038-84.583 28.321-84.958l3.237 2.44c-.275.365-27.504 37.047-27.504 82.518s27.229 82.153 27.504 82.518z"/><path d="M756.77 1112.353c-.586-.196-14.528-4.956-28.64-17.901-13.033-11.956-28.569-33.416-28.569-67.759s15.536-55.804 28.569-67.759c14.112-12.945 28.053-17.705 28.64-17.901l1.288 3.843c-.137.046-13.829 4.743-27.311 17.158-18.003 16.579-27.132 38.333-27.132 64.658 0 62.871 53.897 81.634 54.441 81.816z"/><path d="M831.503 1066.06c-8.289-3.56-32.103-11.838-74.091-11.838s-65.801 8.278-74.09 11.838l-1.6-3.725c8.52-3.658 32.949-12.167 75.689-12.167 42.741 0 67.171 8.509 75.69 12.167zm-128.337 25.515-1.728-3.667c9.515-4.483 26.95-9.827 55.974-9.827 28.861 0 46.257 5.292 55.768 9.731l-1.714 3.673c-9.139-4.266-25.936-9.35-54.054-9.35-28.274 0-45.105 5.133-54.246 9.44zm54.247-88.357c-42.74 0-67.17-8.509-75.689-12.167l1.6-3.725c8.289 3.559 32.102 11.838 74.09 11.838s65.802-8.279 74.091-11.838l1.6 3.725c-8.522 3.658-32.952 12.167-75.692 12.167zm0-27.912c-29.024 0-46.459-5.344-55.974-9.827l1.728-3.667c9.141 4.307 25.972 9.44 54.247 9.44 28.117 0 44.914-5.084 54.054-9.35l1.714 3.673c-9.513 4.439-26.909 9.731-55.769 9.731z"/></g><path d="m1210.66 685.593-25.28-8.246-33.673 17.867-28.176 33.674-46.782 19.118-46.281-32.579 3.037-32.583v-38.681H315.948v281.879l43.418-18.11 80.208-20.123 64.392 6.037 36.221-13.415 4.024 42.257 19.452 29.513-4.025 32.196 26.83 42.296h334.588l11.198-67.846 25.773-29.068 34.879-20.123h55.672l38.232-33.537 55.002-8.72 29.513-31.971 39.335-19.006z" fill="#fff"/><path d="M921.056 1028.72H586.468c-.694 0-1.34-.355-1.711-.941l-26.83-42.296a2.029 2.029 0 0 1-.3-1.337l3.932-31.454-19.04-28.888a2.02 2.02 0 0 1-.325-.923l-3.774-39.633-33.749 12.5a2.029 2.029 0 0 1-.893.117l-64.046-6.004-79.725 20.001-43.278 18.052a2.029 2.029 0 0 1-2.807-1.871v-281.88c0-1.119.908-2.027 2.027-2.027h717.557c1.119 0 2.027.907 2.027 2.027v38.682c0 .063-.003.126-.009.188l-2.928 31.413 44.414 31.265 45.29-18.508 27.854-33.288a2.03 2.03 0 0 1 .604-.49l33.674-17.868a2.023 2.023 0 0 1 1.578-.136l25.28 8.247a2.027 2.027 0 0 1 1.398 1.927v130.829c0 .778-.445 1.487-1.145 1.825l-38.989 18.838-29.252 31.688a2.024 2.024 0 0 1-1.172.627l-54.422 8.628-37.792 33.151c-.37.324-.845.503-1.336.503h-55.129l-34.124 19.687-25.166 28.384-11.104 67.27a2.03 2.03 0 0 1-2.001 1.695zm-333.473-4.053h331.753l10.919-66.15c.062-.377.229-.729.483-1.014l25.772-29.068c.145-.163.315-.302.504-.411l34.879-20.123a2.033 2.033 0 0 1 1.013-.271h54.909l37.66-33.034a2.031 2.031 0 0 1 1.019-.478l54.306-8.61 29.036-31.454c.172-.187.378-.339.607-.45l38.19-18.452V687.064l-23.063-7.523-32.564 17.279-27.921 33.37a2.022 2.022 0 0 1-.788.576l-46.782 19.118a2.026 2.026 0 0 1-1.933-.219l-46.281-32.579a2.028 2.028 0 0 1-.852-1.845l3.028-32.488V646.19H317.975V923l40.611-16.939a1.93 1.93 0 0 1 .287-.095l80.208-20.123c.223-.056.455-.074.682-.052l63.932 5.994 35.787-13.255a2.025 2.025 0 0 1 2.722 1.708l3.977 41.755 19.174 29.092c.266.403.378.888.319 1.367l-3.934 31.474z" fill="#231f20"/><path d="m1033.505 644.163 13.057-26.862-35.048-52.658 12.388-18.455H340.269c-13.432 0-24.321 10.889-24.321 24.321v73.654z" fill="#231f20"/><path d="M1033.505 646.19H315.948a2.027 2.027 0 0 1-2.027-2.027v-73.654c0-14.528 11.82-26.348 26.348-26.348h683.632a2.025 2.025 0 0 1 1.683 3.156l-11.632 17.33 34.297 51.531c.398.598.45 1.363.136 2.009l-13.057 26.862a2.028 2.028 0 0 1-1.823 1.141zm-715.53-4.054h714.262l11.996-24.677-34.405-51.693a2.026 2.026 0 0 1 .004-2.253l10.269-15.299H340.269c-12.293 0-22.294 10.001-22.294 22.294z" fill="#231f20"/><circle cx="374.845" cy="595.175" fill="#fff" r="15.478"/><path d="M374.845 612.681c-9.652 0-17.505-7.853-17.505-17.505s7.853-17.505 17.505-17.505 17.505 7.853 17.505 17.505-7.853 17.505-17.505 17.505zm0-30.957c-7.417 0-13.452 6.034-13.452 13.452s6.034 13.451 13.452 13.451 13.452-6.034 13.452-13.451-6.035-13.452-13.452-13.452z" fill="#fff"/><circle cx="428.333" cy="595.175" fill="#fff" r="15.478"/><path d="M428.333 612.681c-9.652 0-17.505-7.853-17.505-17.505s7.853-17.505 17.505-17.505 17.505 7.853 17.505 17.505-7.853 17.505-17.505 17.505zm0-30.957c-7.417 0-13.451 6.034-13.451 13.452s6.034 13.451 13.451 13.451 13.452-6.034 13.452-13.451-6.035-13.452-13.452-13.452z" fill="#fff"/><circle cx="481.82" cy="595.175" fill="#fff" r="15.478"/><path d="M481.82 612.681c-9.652 0-17.505-7.853-17.505-17.505s7.853-17.505 17.505-17.505 17.505 7.853 17.505 17.505-7.852 17.505-17.505 17.505zm0-30.957c-7.417 0-13.451 6.034-13.451 13.452s6.034 13.451 13.451 13.451 13.452-6.034 13.452-13.451-6.034-13.452-13.452-13.452zm57.001 397.724-21.469-28.08-6.971-41.872-35.193 15.916-64.656-1.517-78.604 25.685-42.045 21.104 5.341 76.143c.94 13.399 12.564 23.5 25.963 22.56l245.596-17.225-29.723-40.316z" fill="#fff"/><path d="M319.445 1071.476c-6.345 0-12.406-2.259-17.242-6.461-5.312-4.616-8.509-11.024-9.001-18.045l-5.341-76.144a2.027 2.027 0 0 1 1.113-1.953l42.045-21.104c.09-.045.184-.084.28-.115l78.604-25.685c.218-.071.45-.105.677-.1l64.195 1.506 34.772-15.726a2.026 2.026 0 0 1 2.834 1.514l6.889 41.375 21.162 27.679c.293.384.44.859.414 1.341l-1.722 31.672 29.291 39.73a2.025 2.025 0 0 1-1.49 3.224l-245.596 17.226c-.63.044-1.259.066-1.884.066zm-27.446-99.586 5.247 74.796c.417 5.94 3.121 11.363 7.616 15.269s10.245 5.827 16.183 5.411l241.919-16.968-27.536-37.349a2.033 2.033 0 0 1-.393-1.313l1.721-31.652-21.014-27.485a2.021 2.021 0 0 1-.389-.898l-6.539-39.272-32.792 14.83a1.957 1.957 0 0 1-.882.179l-64.31-1.508-78.129 25.53zm248.186-89.432a2.027 2.027 0 0 1-1.717-3.101l19.728-31.564-9.769-66.427-90.681-28.913-53.667 20.539c-.392.15-.818.174-1.225.071l-36.891-9.39a2.026 2.026 0 0 1-1.304-1.04l-13.789-26.921-35.851-18.483a2.027 2.027 0 1 1 1.857-3.603l36.43 18.781c.376.194.682.501.875.878l13.668 26.686 35.381 9.006 53.729-20.563a2.026 2.026 0 0 1 1.34-.038l92.563 29.513c.738.235 1.277.87 1.39 1.636l10.061 68.416c.07.476-.032.961-.287 1.369l-20.123 32.196a2.02 2.02 0 0 1-1.718.952z" fill="#231f20"/><path d="M457.687 752.333a2.027 2.027 0 0 1-1.984-2.447l8.658-40.916c.099-.467.36-.885.736-1.178l30.957-24.147c.253-.198.55-.332.865-.392l62.198-11.918 19.651-28.327a2.027 2.027 0 1 1 3.33 2.311l-20.123 29.007a2.021 2.021 0 0 1-1.284.835l-62.53 11.982-29.988 23.391-8.504 40.192a2.03 2.03 0 0 1-1.982 1.607z" fill="#231f20"/><path d="M580.429 646.19a2.027 2.027 0 0 1-2.009-1.779l-6.037-48.988a2.024 2.024 0 0 1 .255-1.258l28.171-48.988a2.026 2.026 0 1 1 3.514 2.021l-27.834 48.401 5.955 48.316a2.027 2.027 0 0 1-2.015 2.275z" fill="#fff"/><path d="M563.662 954.228a2.026 2.026 0 0 1-1.5-3.389l22.806-25.122a2.034 2.034 0 0 1 1.004-.603l36.041-9.099 39.701-13.42 14.434-23.233c.3-.483.79-.818 1.349-.923l46.164-8.635a2.024 2.024 0 0 1 1.071.09l44.315 16.268 40.118-15.18-1.099-38.452c-.01-.334.063-.665.213-.964l14.312-28.625-21.209-34.26-48.237-12.901a2.034 2.034 0 0 1-.777-.403l-30.954-25.889-43.156-8.852-39.206 24.644a2.02 2.02 0 0 1-.686.272l-48.604 9.608-38.369 26.331a2.028 2.028 0 0 1-2.294-3.342l38.713-26.567c.227-.156.484-.264.754-.317l48.646-9.616 39.577-24.877a2.027 2.027 0 0 1 1.486-.27l44.454 9.119c.329.067.636.215.893.431l31.002 25.929 48.581 12.992a2.03 2.03 0 0 1 1.2.891l22.227 35.905c.37.598.404 1.344.09 1.973l-14.59 29.181 1.125 39.386c.025.864-.5 1.648-1.309 1.953l-42.174 15.958a2.03 2.03 0 0 1-1.416.007l-44.501-16.336-44.738 8.368-14.347 23.093c-.248.399-.627.7-1.073.85l-40.465 13.678c-.05.017-.101.032-.153.045l-35.525 8.969-22.395 24.669a2.014 2.014 0 0 1-1.499.665z" fill="#231f20"/><path d="M932.253 960.874c-.446 0-.896-.147-1.271-.449l-25.777-20.788a2.032 2.032 0 0 1-.642-.912l-6.256-17.985-39.554-6.458a2.026 2.026 0 0 1-1.246-.722l-21.348-26.274-25.844-13.111a2.027 2.027 0 1 1 1.834-3.614l26.229 13.306c.253.128.477.309.656.529l21.134 26.011 39.985 6.528c.734.12 1.343.632 1.587 1.334l6.462 18.577 25.326 20.424a2.027 2.027 0 0 1-1.275 3.604z" fill="#231f20"/><path d="m1168.132 896.801-55.583 3.427-41.261 29.732-55.418-5.317-36.641 16.699-28.431 26.474-17.627 66.467 264.071 25.337c13.371 1.283 25.25-8.516 26.533-21.887l17.76-185.1-40.971 15.162z" fill="#fff"/><path d="M1199.584 1061.759c-.839 0-1.685-.04-2.536-.122l-264.07-25.337a2.025 2.025 0 0 1-1.765-2.537l17.627-66.467a2.03 2.03 0 0 1 .578-.964l28.431-26.474c.16-.148.342-.27.541-.361l36.642-16.699a2.033 2.033 0 0 1 1.034-.173l54.658 5.244 40.642-29.286a2.03 2.03 0 0 1 1.061-.379l54.881-3.383 31.907-28.538c.189-.169.409-.302.647-.39l40.971-15.162a2.026 2.026 0 0 1 2.721 2.095l-17.76 185.1c-1.308 13.61-12.806 23.832-26.21 23.833zm-263.842-29.266 261.693 25.109c12.231 1.174 23.147-7.825 24.322-20.063l17.451-181.884-37.58 13.907-32.145 28.75a2.022 2.022 0 0 1-1.227.512l-54.998 3.391-40.785 29.39a2.015 2.015 0 0 1-1.378.373l-54.877-5.265-35.848 16.338-27.762 25.85zm232.39-135.692h.01zm-81.319-18.655a2.027 2.027 0 0 1-2.009-2.316l6.948-48.306-21.485-40.127a2.024 2.024 0 0 1-.225-1.202l4.548-37.23-44.934-31.63-52.77-10.177-63.265 17.315a2.024 2.024 0 0 1-.693.066l-51.188-3.995-43.73 16.976-13.477 30.236a2.028 2.028 0 0 1-3.702-1.65l13.816-30.998a2.025 2.025 0 0 1 1.118-1.064l44.94-17.446c.284-.11.588-.155.891-.131l51.296 4.003 63.38-17.346c.299-.082.614-.094.919-.035l53.66 10.349c.282.054.548.168.783.333l46.281 32.579c.611.43.936 1.161.845 1.903l-4.617 37.797 21.497 40.148c.204.381.281.817.219 1.245l-7.043 48.965a2.026 2.026 0 0 1-2.003 1.738z" fill="#231f20"/><path d="M832.837 646.355a2.027 2.027 0 0 1-1.89-1.295l-12.885-33.229-29.773-27.095-35.374 8.677a2.033 2.033 0 0 1-1.374-.148l-32.3-15.806a2.036 2.036 0 0 1-.842-.769l-17.868-29.45a2.027 2.027 0 0 1 3.466-2.103l17.56 28.942 31.105 15.222 35.709-8.759a2.03 2.03 0 0 1 1.847.469l30.925 28.143c.232.211.412.474.525.766l13.057 33.674a2.026 2.026 0 0 1-1.888 2.761z" fill="#fff"/><path d="M816.5 737.96a2.027 2.027 0 0 1-1.813-1.118l-18.023-35.908a2.032 2.032 0 0 1-.144-1.443l9.011-32.987c.103-.376.312-.715.603-.975l25.35-22.71a2.026 2.026 0 1 1 2.705 3.019l-24.905 22.312-8.649 31.661 17.675 35.214a2.026 2.026 0 0 1-1.81 2.935z" fill="#231f20"/><path d="M1046.562 619.329c-.246 0-.497-.045-.739-.14l-42.607-16.708-41.093-16.379-53.481 26.37c-.19.094-.393.157-.603.188l-45.356 6.648a2.051 2.051 0 0 1-.606-.003l-42.607-6.648a2.027 2.027 0 1 1 .625-4.005l42.304 6.6 44.737-6.557 54.004-26.628a2.03 2.03 0 0 1 1.647-.065l41.92 16.708 42.597 16.704a2.027 2.027 0 0 1-.742 3.915z" fill="#fff"/><path d="m1247.436 547.763-10.989-72.83c-2.004-13.282-14.396-22.424-27.677-20.42l-160.619 24.236-9.495 20.097 42.513 46.84-8.903 28.509z" fill="#231f20"/><path d="M1072.264 576.222a2.03 2.03 0 0 1-1.935-2.632l8.558-27.402-41.733-45.981a2.028 2.028 0 0 1-.332-2.228l9.496-20.096a2.024 2.024 0 0 1 1.53-1.138l160.619-24.236c14.361-2.165 27.816 7.756 29.984 22.122l10.989 72.83a2.027 2.027 0 0 1-1.702 2.307L1072.566 576.2a2.203 2.203 0 0 1-.302.022zm-31.199-77.735 41.603 45.837c.483.532.648 1.28.434 1.966l-7.938 25.417 169.966-25.646-10.687-70.826c-1.834-12.155-13.213-20.554-25.372-18.718l-159.55 24.075z" fill="#231f20"/><path d="m1130.518 670.424-50.625-25.31-1.858-32.671-5.771-38.248 175.172-26.432 6.182 40.967-26.228-4.383-30.631 22.692-22.836 37.501z" fill="#fff"/><path d="M1130.517 672.45c-.31 0-.62-.071-.906-.214l-50.625-25.309a2.025 2.025 0 0 1-1.117-1.698l-1.853-32.577-5.757-38.155a2.026 2.026 0 0 1 1.702-2.307l175.172-26.432a2.03 2.03 0 0 1 2.306 1.702l6.182 40.967a2.028 2.028 0 0 1-2.338 2.302l-25.379-4.241-29.621 21.944-22.63 37.162c-.171.282-.41.518-.693.687l-43.403 25.883c-.319.19-.679.286-1.04.286zm-48.667-28.623 48.584 24.289c.266-.161.567-.341.911-.545l41.108-24.514 22.575-37.072c.136-.223.314-.418.524-.574l30.631-22.692a2.027 2.027 0 0 1 1.541-.37l23.473 3.922-5.462-36.201-171.164 25.827 5.469 36.244c.01.062.016.125.02.188zm-48.345 2.363H315.948a2.027 2.027 0 0 1-2.027-2.027v-73.654c0-14.528 11.82-26.348 26.348-26.348h683.632a2.025 2.025 0 0 1 1.683 3.156l-11.632 17.33 34.297 51.531c.398.598.45 1.363.136 2.009l-13.057 26.862a2.028 2.028 0 0 1-1.823 1.141zm-715.53-4.054h714.262l11.996-24.677-34.405-51.693a2.026 2.026 0 0 1 .004-2.253l10.269-15.299H340.269c-12.293 0-22.294 10.001-22.294 22.294z" fill="#231f20"/><circle cx="315.948" cy="467.356" fill="#fff" r="53.974"/><path d="M315.948 523.356c-30.879 0-56-25.122-56-56.001s25.122-56.001 56-56.001 56.001 25.122 56.001 56.001-25.122 56.001-56.001 56.001zm0-107.947c-28.644 0-51.947 23.303-51.947 51.947s23.303 51.947 51.947 51.947 51.947-23.303 51.947-51.947-23.303-51.947-51.947-51.947z" fill="#231f20"/><path d="m343.108 515.483-3.986-.733c.018-.102 1.831-10.262-.282-20.943-2.745-13.876-10.571-22.104-23.261-24.458l.739-3.985c34.438 6.384 26.871 49.682 26.79 50.119z" fill="#231f20"/><path d="M368.578 470.984c-.078-.067-7.972-6.717-18.278-10.227-13.39-4.562-24.429-1.897-32.812 7.916l-3.082-2.633c22.75-26.632 56.462 1.571 56.8 1.859z" fill="#231f20"/><path d="M314.037 468.032c-11.689-33.017 29.592-48.113 30.01-48.261l1.358 3.819c-.097.035-9.803 3.545-17.997 10.716-10.645 9.315-13.858 20.207-9.55 32.373z" fill="#231f20"/><path d="M315.578 469.348c-34.438-6.385-26.871-49.683-26.79-50.12l3.986.734c-.019.101-1.831 10.262.282 20.943 2.745 13.876 10.571 22.104 23.261 24.458z" fill="#231f20"/><path d="M293.719 480.105c-17.148 0-32.801-13.096-33.031-13.292l2.629-3.086c.078.067 7.972 6.717 18.278 10.227 13.389 4.561 24.429 1.898 32.812-7.916l3.082 2.633c-7.284 8.528-15.693 11.434-23.77 11.434z" fill="#231f20"/><path d="m287.849 514.941-1.358-3.819c.097-.035 9.803-3.545 17.997-10.716 10.645-9.315 13.857-20.207 9.55-32.373l3.821-1.353c11.689 33.016-29.592 48.112-30.01 48.261zM856.33 372.61l6.528 16.965 16.965 6.528-16.965 6.528-6.528 16.965-6.535-16.958-16.958-6.535 16.965-6.528zM187.861 940.153l6.528 16.964 16.965 6.529-16.965 6.528-6.528 16.964-6.535-16.958-16.958-6.534 16.965-6.529zm1083.701 140.251 6.528 16.965 16.965 6.528-16.965 6.528-6.528 16.965-6.535-16.959-16.958-6.534 16.964-6.528zm40.577-367.964 6.528 16.965 16.965 6.528-16.965 6.528-6.528 16.965-6.534-16.959-16.959-6.534 16.965-6.528z" fill="#231f20"/></svg>