<svg width="613" height="171" viewBox="0 0 613 171" fill="none" xmlns="http://www.w3.org/2000/svg">
<path fill-rule="evenodd" clip-rule="evenodd" d="M458.194 53.0884C450.583 60.6998 450.583 72.9502 450.583 97.4508V110.444C450.583 134.945 450.583 147.195 458.194 154.807C465.806 162.418 478.056 162.418 502.557 162.418H561.027C585.528 162.418 597.778 162.418 605.39 154.807C613.001 147.195 613.001 134.945 613.001 110.444V97.4508C613.001 72.9502 613.001 60.6998 605.39 53.0884C597.778 45.4771 585.528 45.4771 561.027 45.4771H502.557C478.056 45.4771 465.806 45.4771 458.194 53.0884ZM495.007 128.934C498.533 130.554 502.678 131.364 507.442 131.364C512.159 131.364 516.28 130.554 519.805 128.934C523.331 127.267 526.261 125.099 528.595 122.431C530.93 119.715 532.669 116.785 533.812 113.641C535.003 110.496 535.599 107.447 535.599 104.493V102.921C535.599 99.6339 534.979 96.418 533.741 93.2736C532.55 90.0816 530.763 87.1992 528.381 84.6265C525.999 82.0538 523.045 80.0052 519.519 78.4806C516.042 76.956 512.016 76.1937 507.442 76.1937C502.821 76.1937 498.747 76.956 495.222 78.4806C491.744 80.0052 488.814 82.0538 486.432 84.6265C484.049 87.1992 482.263 90.0816 481.072 93.2736C479.881 96.418 479.285 99.6339 479.285 102.921V104.493C479.285 107.447 479.857 110.496 481 113.641C482.144 116.785 483.883 119.715 486.217 122.431C488.552 125.099 491.482 127.267 495.007 128.934ZM513.588 117.786C511.778 118.548 509.729 118.929 507.442 118.929C505.155 118.929 503.107 118.548 501.296 117.786C499.486 117.023 497.937 115.952 496.651 114.57C495.365 113.188 494.388 111.592 493.721 109.782C493.054 107.924 492.72 105.923 492.72 103.779C492.72 101.492 493.054 99.4195 493.721 97.5615C494.388 95.7034 495.365 94.1074 496.651 92.7734C497.937 91.4394 499.486 90.4151 501.296 89.7004C503.107 88.9858 505.155 88.6285 507.442 88.6285C509.681 88.6285 511.706 88.9858 513.516 89.7004C515.327 90.4151 516.875 91.4394 518.162 92.7734C519.448 94.1074 520.425 95.7034 521.092 97.5615C521.806 99.4195 522.164 101.492 522.164 103.779C522.164 105.923 521.83 107.924 521.163 109.782C520.496 111.592 519.519 113.188 518.233 114.57C516.947 115.952 515.398 117.023 513.588 117.786ZM549.422 129.077C552.756 130.602 556.854 131.364 561.713 131.364C566.239 131.364 570.098 130.673 573.29 129.291C576.53 127.91 579.008 125.956 580.723 123.431C582.485 120.906 583.367 117.953 583.367 114.57C583.367 111.187 582.509 108.329 580.794 105.994C579.079 103.66 576.721 101.825 573.719 100.491C570.718 99.1098 567.264 98.2523 563.357 97.9188L559.998 97.6329C557.759 97.4424 556.187 96.8707 555.282 95.9178C554.376 94.9649 553.924 93.8215 553.924 92.4875C553.924 91.487 554.162 90.5818 554.638 89.7719C555.162 88.962 555.901 88.3426 556.854 87.9138C557.854 87.4374 559.069 87.1992 560.498 87.1992C562.023 87.1992 563.309 87.485 564.357 88.0568C565.453 88.5808 566.287 89.3193 566.859 90.2721C567.43 91.225 567.716 92.2731 567.716 93.4166H580.58C580.58 89.9863 579.794 86.9848 578.221 84.4121C576.649 81.7918 574.362 79.7669 571.361 78.3377C568.407 76.9084 564.786 76.1937 560.498 76.1937C556.544 76.1937 553.114 76.8369 550.208 78.1233C547.301 79.4096 545.038 81.2677 543.419 83.6975C541.846 86.1272 541.06 89.0573 541.06 92.4875C541.06 97.2994 542.656 101.158 545.848 104.065C549.04 106.971 553.328 108.662 558.712 109.139L562.071 109.424C565.12 109.663 567.287 110.211 568.574 111.068C569.86 111.878 570.503 113.045 570.503 114.57C570.503 115.761 570.146 116.785 569.431 117.643C568.764 118.5 567.764 119.167 566.43 119.644C565.144 120.12 563.571 120.358 561.713 120.358C559.569 120.358 557.807 120.073 556.425 119.501C555.043 118.929 553.995 118.143 553.281 117.143C552.614 116.094 552.28 114.951 552.28 113.712H539.417C539.417 117.143 540.25 120.192 541.918 122.86C543.633 125.48 546.134 127.553 549.422 129.077Z" fill="#FFA3E0"/>
<path d="M47.7168 47.5405L78.9751 128.195C80.2615 131.282 81.6336 133.426 83.0914 134.626C84.6351 135.741 86.05 136.342 87.3364 136.427V139C85.1067 138.828 82.4054 138.743 79.2324 138.743C76.1451 138.657 72.9721 138.614 69.7134 138.614C65.9401 138.614 62.4241 138.657 59.1653 138.743C55.9065 138.743 53.2481 138.828 51.1899 139V136.427C55.5635 136.256 58.3506 135.527 59.5512 134.241C60.7518 132.868 60.4945 129.996 58.7794 125.622L36.1396 64.5203L38.4551 61.6903L17.8734 115.074C16.2441 119.362 15.2579 122.878 14.9148 125.622C14.5718 128.366 14.7862 130.51 15.558 132.054C16.3298 133.597 17.6162 134.712 19.4171 135.398C21.218 135.999 23.4476 136.342 26.1061 136.427V139C23.3619 138.828 20.7034 138.743 18.1307 138.743C15.558 138.657 12.9853 138.614 10.4126 138.614C8.52596 138.614 6.72507 138.657 5.00993 138.743C3.38055 138.743 1.92269 138.828 0.636338 139V136.427C2.52299 135.999 4.36676 134.884 6.16765 133.083C8.05429 131.282 9.85519 128.152 11.5703 123.692L41.0278 47.5405C42.0568 47.6262 43.1717 47.6691 44.3723 47.6691C45.5729 47.6691 46.6877 47.6262 47.7168 47.5405ZM58.908 101.953V104.526H20.5748L21.8611 101.953H58.908ZM114.385 163.183C109.325 163.183 104.737 162.712 100.621 161.768C96.5046 160.825 93.2459 159.41 90.8447 157.523C88.4435 155.723 87.2429 153.407 87.2429 150.577C87.2429 147.833 88.4435 145.389 90.8447 143.245C93.2459 141.101 96.7619 139.472 101.393 138.357L102.293 140.415C100.664 141.358 99.4204 142.645 98.5628 144.274C97.7052 145.903 97.2765 147.619 97.2765 149.419C97.2765 153.107 98.9487 155.937 102.293 157.909C105.723 159.968 110.269 160.997 115.929 160.997C119.788 160.997 123.347 160.482 126.605 159.453C129.864 158.424 132.48 156.837 134.452 154.693C136.424 152.55 137.411 149.891 137.411 146.718C137.411 144.06 136.424 141.83 134.452 140.029C132.565 138.228 128.749 137.328 123.003 137.328H114.514C111.341 137.328 108.425 136.985 105.766 136.299C103.194 135.613 101.136 134.498 99.5919 132.954C98.0483 131.411 97.2765 129.267 97.2765 126.522C97.2765 123.178 98.6486 120.176 101.393 117.518C104.137 114.774 108.425 112.115 114.256 109.543L115.671 110.7C113.527 111.815 111.598 113.016 109.883 114.302C108.253 115.588 107.439 117.218 107.439 119.19C107.439 121.934 109.325 123.307 113.099 123.307H127.634C132.094 123.307 136.039 123.864 139.469 124.979C142.985 126.094 145.772 127.852 147.83 130.253C149.888 132.654 150.917 135.827 150.917 139.772C150.917 143.888 149.588 147.704 146.93 151.22C144.271 154.822 140.241 157.695 134.838 159.839C129.521 162.069 122.703 163.183 114.385 163.183ZM115.543 111.601C110.912 111.601 106.71 110.915 102.936 109.543C99.2489 108.085 96.3331 105.855 94.1892 102.854C92.0453 99.7663 90.9733 95.8644 90.9733 91.1477C90.9733 86.4311 92.0453 82.5721 94.1892 79.5706C96.3331 76.5691 99.2489 74.3394 102.936 72.8816C106.71 71.4237 110.912 70.6948 115.543 70.6948C120.259 70.6948 124.461 71.4237 128.149 72.8816C131.836 74.3394 134.752 76.5691 136.896 79.5706C139.04 82.5721 140.112 86.4311 140.112 91.1477C140.112 95.8644 139.04 99.7663 136.896 102.854C134.752 105.855 131.836 108.085 128.149 109.543C124.461 110.915 120.259 111.601 115.543 111.601ZM115.543 109.285C118.115 109.285 120.131 107.999 121.588 105.426C123.132 102.768 123.904 98.0083 123.904 91.1477C123.904 84.2872 123.132 79.5706 121.588 76.9979C120.131 74.3394 118.115 73.0102 115.543 73.0102C112.97 73.0102 110.912 74.3394 109.368 76.9979C107.91 79.5706 107.181 84.2872 107.181 91.1477C107.181 98.0083 107.91 102.768 109.368 105.426C110.912 107.999 112.97 109.285 115.543 109.285ZM134.967 81.6288L132.522 80.7283C133.809 77.5553 135.91 74.8968 138.826 72.7529C141.741 70.5233 144.829 69.4084 148.087 69.4084C150.574 69.4084 152.504 70.0945 153.876 71.4666C155.334 72.8387 156.063 74.7682 156.063 77.2552C156.063 79.8279 155.377 81.7145 154.005 82.9151C152.632 84.1157 151.132 84.716 149.502 84.716C148.044 84.716 146.715 84.2443 145.515 83.301C144.314 82.2719 143.628 80.7283 143.456 78.6701C143.285 76.5262 143.971 73.8678 145.515 70.6948L146.801 71.2093C143.456 72.4957 140.97 73.9106 139.34 75.4543C137.711 76.9979 136.253 79.056 134.967 81.6288ZM190.698 70.6948C198.244 70.6948 204.161 72.9673 208.449 77.5124C212.737 82.0575 214.881 89.304 214.881 99.2518H171.531L171.402 96.8077H199.959C200.131 92.6056 199.874 88.7466 199.188 85.2305C198.502 81.6288 197.387 78.7559 195.843 76.612C194.385 74.4681 192.456 73.3961 190.055 73.3961C186.796 73.3961 183.966 75.3256 181.565 79.1847C179.163 82.958 177.663 89.1753 177.062 97.8368L177.577 98.6086C177.405 99.7234 177.277 100.924 177.191 102.21C177.191 103.497 177.191 104.783 177.191 106.069C177.191 111.987 178.049 116.875 179.764 120.734C181.479 124.593 183.709 127.423 186.453 129.224C189.197 131.025 192.027 131.925 194.943 131.925C196.915 131.925 198.93 131.625 200.988 131.025C203.047 130.424 205.062 129.309 207.034 127.68C209.007 126.051 210.808 123.735 212.437 120.734L214.881 121.763C213.938 124.764 212.351 127.766 210.122 130.767C207.978 133.683 205.191 136.084 201.76 137.971C198.33 139.858 194.299 140.801 189.669 140.801C183.837 140.801 178.692 139.515 174.232 136.942C169.773 134.369 166.3 130.553 163.813 125.493C161.326 120.348 160.083 114.088 160.083 106.713C160.083 98.9087 161.369 92.3483 163.942 87.0314C166.6 81.7145 170.245 77.6839 174.876 74.9397C179.506 72.1098 184.78 70.6948 190.698 70.6948ZM268.905 70.6948C272.507 70.6948 275.379 71.1664 277.523 72.1098C279.753 73.0531 281.554 74.2537 282.926 75.7115C284.47 77.3409 285.542 79.442 286.142 82.0147C286.828 84.5874 287.171 88.0605 287.171 92.4341V127.037C287.171 130.639 287.814 133.083 289.101 134.369C290.473 135.655 292.745 136.299 295.918 136.299V139C294.375 138.914 291.973 138.828 288.715 138.743C285.542 138.571 282.454 138.485 279.453 138.485C276.28 138.485 273.193 138.571 270.191 138.743C267.19 138.828 264.96 138.914 263.502 139V136.299C266.246 136.299 268.176 135.655 269.291 134.369C270.406 133.083 270.963 130.639 270.963 127.037V88.0605C270.963 85.7451 270.749 83.6869 270.32 81.886C269.891 79.9994 269.033 78.5415 267.747 77.5124C266.461 76.3976 264.617 75.8402 262.216 75.8402C259.386 75.8402 256.856 76.612 254.626 78.1556C252.482 79.6992 250.767 81.8431 249.481 84.5874C248.28 87.2458 247.68 90.2473 247.68 93.5918V127.037C247.68 130.639 248.237 133.083 249.352 134.369C250.467 135.655 252.397 136.299 255.141 136.299V139C253.683 138.914 251.496 138.828 248.58 138.743C245.665 138.571 242.706 138.485 239.705 138.485C236.532 138.485 233.316 138.571 230.057 138.743C226.798 138.828 224.354 138.914 222.725 139V136.299C225.898 136.299 228.127 135.655 229.414 134.369C230.786 133.083 231.472 130.639 231.472 127.037V86.5169C231.472 82.6578 230.829 79.8279 229.542 78.027C228.342 76.1403 226.069 75.197 222.725 75.197V72.4957C225.469 72.7529 228.127 72.8816 230.7 72.8816C233.873 72.8816 236.875 72.7529 239.705 72.4957C242.62 72.1526 245.279 71.681 247.68 71.0807V83.9442C249.824 79.056 252.783 75.6258 256.556 73.6534C260.329 71.681 264.445 70.6948 268.905 70.6948ZM333.917 70.6948C337.09 70.6948 340.005 71.0807 342.664 71.8525C345.408 72.5385 347.766 73.5247 349.739 74.8111C351.797 76.0974 353.426 77.7268 354.627 79.6992C355.828 81.5859 356.428 83.6869 356.428 86.0023C356.428 88.8323 355.57 91.1049 353.855 92.82C352.14 94.5351 349.996 95.3927 347.423 95.3927C344.765 95.3927 342.578 94.6209 340.863 93.0773C339.234 91.5336 338.419 89.4755 338.419 86.9028C338.419 84.4158 339.148 82.3577 340.606 80.7283C342.064 79.0989 343.822 78.027 345.88 77.5124C345.108 76.3976 343.907 75.4971 342.278 74.8111C340.649 74.0393 338.848 73.6534 336.875 73.6534C334.303 73.6534 331.987 74.3394 329.929 75.7115C327.871 76.9979 326.07 78.9703 324.526 81.6288C323.069 84.2015 321.911 87.4173 321.053 91.2764C320.281 95.0497 319.896 99.4233 319.896 104.397C319.896 111.343 320.71 116.832 322.34 120.862C324.055 124.893 326.242 127.766 328.9 129.481C331.558 131.11 334.388 131.925 337.39 131.925C339.191 131.925 341.12 131.582 343.178 130.896C345.237 130.21 347.252 129.052 349.224 127.423C351.282 125.793 353.126 123.478 354.756 120.477L357.2 121.377C356.256 124.378 354.713 127.38 352.569 130.381C350.511 133.383 347.809 135.87 344.465 137.842C341.12 139.815 337.047 140.801 332.245 140.801C326.756 140.801 321.782 139.557 317.323 137.07C312.863 134.498 309.305 130.639 306.646 125.493C304.073 120.348 302.787 113.959 302.787 106.327C302.787 98.7801 304.116 92.3912 306.775 87.1601C309.433 81.8431 313.121 77.7697 317.837 74.9397C322.64 72.1098 328 70.6948 333.917 70.6948ZM425.792 72.4957V75.197C424.163 75.54 422.619 76.4405 421.161 77.8983C419.789 79.3562 418.46 81.9289 417.174 85.6164L398.136 137.842L394.148 143.888L367.649 82.4006C366.02 79.1418 364.476 77.1265 363.018 76.3547C361.561 75.5829 360.36 75.197 359.417 75.197V72.4957C361.904 72.7529 364.476 72.9673 367.135 73.1388C369.879 73.2246 372.623 73.2675 375.367 73.2675C378.54 73.2675 381.585 73.1817 384.5 73.0102C387.502 72.8387 390.289 72.6672 392.862 72.4957V75.197C390.889 75.197 389.131 75.3256 387.588 75.5829C386.044 75.8402 385.015 76.5691 384.5 77.7697C384.072 78.8845 384.415 80.8569 385.53 83.6869L401.609 122.921L400.58 123.435L411.9 92.82C413.358 88.7894 413.958 85.5307 413.701 83.0437C413.443 80.5568 412.5 78.6701 410.871 77.3838C409.241 76.0974 407.012 75.3685 404.182 75.197V72.4957C405.554 72.5814 406.926 72.6672 408.298 72.7529C409.67 72.8387 410.999 72.9244 412.286 73.0102C413.572 73.0102 414.815 73.0102 416.016 73.0102C417.817 73.0102 419.575 72.9673 421.29 72.8816C423.091 72.7958 424.592 72.6672 425.792 72.4957ZM398.136 137.842L393.248 150.834C392.476 152.978 391.618 154.779 390.675 156.237C389.817 157.781 388.831 159.024 387.716 159.968C386.43 161.082 384.844 161.897 382.957 162.412C381.156 162.926 379.141 163.183 376.911 163.183C374.939 163.183 373.009 162.84 371.122 162.154C369.322 161.468 367.778 160.439 366.492 159.067C365.291 157.695 364.691 155.894 364.691 153.664C364.691 151.263 365.505 149.334 367.135 147.876C368.764 146.418 370.994 145.689 373.824 145.689C376.311 145.689 378.326 146.289 379.87 147.49C381.499 148.776 382.314 150.663 382.314 153.15C382.314 154.779 381.842 156.237 380.899 157.523C379.955 158.81 378.626 159.796 376.911 160.482C377.34 160.568 377.726 160.611 378.069 160.611C378.498 160.696 378.841 160.739 379.098 160.739C381.585 160.739 383.814 159.925 385.787 158.295C387.759 156.666 389.346 154.093 390.546 150.577L395.177 137.842H398.136Z" fill="white"/>
</svg>
