<svg height="1500" viewBox="0 0 1500 1500" width="1500" xmlns="http://www.w3.org/2000/svg"><g fill="#231f20"><path d="M247.841 999.931h185.501v3.049H247.841z"/><path d="M339.066 908.704h3.049v185.501h-3.049z"/><path d="m341.808 1095.123-2.435-1.836c.306-.406 30.61-41.211 30.61-91.832 0-50.622-30.303-91.427-30.61-91.833l2.435-1.836c.312.414 31.224 41.999 31.224 93.669.001 51.669-30.911 93.254-31.224 93.668z"/><path d="M340.591 1095.73c-51.983 0-94.275-42.291-94.275-94.274s42.292-94.275 94.275-94.275 94.275 42.292 94.275 94.275-42.292 94.274-94.275 94.274zm0-185.501c-50.302 0-91.226 40.924-91.226 91.227 0 50.302 40.924 91.226 91.226 91.226s91.226-40.924 91.226-91.226c0-50.304-40.924-91.227-91.226-91.227z"/><path d="m341.075 1095.651-.969-2.891c.153-.052 15.419-5.28 30.465-19.117 13.836-12.725 30.329-35.578 30.329-72.188 0-36.67-16.544-59.543-30.423-72.274-15.045-13.802-30.219-18.98-30.37-19.031l.968-2.891c.644.215 15.945 5.439 31.464 19.675 14.329 13.145 31.411 36.744 31.411 74.521s-17.082 61.376-31.411 74.521c-15.52 14.236-30.82 19.46-31.464 19.675z"/><path d="M339.374 1095.123c-.312-.414-31.224-41.999-31.224-93.668 0-51.67 30.912-93.255 31.224-93.669l2.435 1.836c-.306.406-30.61 41.211-30.61 91.833 0 50.621 30.304 91.426 30.61 91.832z"/><path d="M340.107 1095.651c-.644-.215-15.944-5.438-31.464-19.675-14.329-13.145-31.411-36.743-31.411-74.521s17.082-61.377 31.411-74.521c15.519-14.235 30.82-19.46 31.464-19.675l.969 2.891c-.153.052-15.419 5.28-30.465 19.117-13.836 12.726-30.329 35.579-30.329 72.188s16.493 59.463 30.329 72.188c15.045 13.837 30.312 19.065 30.465 19.117z"/><path d="M422.941 1044.397c-9.222-3.96-35.706-13.171-82.35-13.171-46.641 0-73.126 9.211-82.348 13.17l-1.203-2.801c9.395-4.035 36.344-13.418 83.551-13.418 47.21 0 74.158 9.384 83.553 13.419zm-142.742 28.27-1.299-2.758c10.474-4.935 29.678-10.815 61.691-10.815 31.837 0 50.998 5.824 61.466 10.71l-1.29 2.764c-10.188-4.756-28.899-10.425-60.177-10.425-31.448 0-50.199 5.723-60.391 10.524zm60.392-97.934c-47.207 0-74.156-9.383-83.551-13.418l1.203-2.801c9.222 3.959 35.707 13.17 82.348 13.17 46.644 0 73.128-9.211 82.35-13.171l1.203 2.801c-9.395 4.035-36.343 13.419-83.553 13.419zm0-30.917c-32.017 0-51.22-5.881-61.692-10.815l1.3-2.758c10.19 4.801 28.939 10.524 60.392 10.524 31.278 0 49.989-5.669 60.177-10.425l1.29 2.764c-10.469 4.885-29.63 10.71-61.467 10.71zm-92.75 56.115h185.501v3.049H247.841z"/><path d="M339.066 908.704h3.049v185.501h-3.049z"/><path d="m341.808 1095.123-2.435-1.836c.306-.406 30.61-41.211 30.61-91.832 0-50.622-30.303-91.427-30.61-91.833l2.435-1.836c.312.414 31.224 41.999 31.224 93.669.001 51.669-30.911 93.254-31.224 93.668z"/><path d="M340.591 1095.73c-51.983 0-94.275-42.291-94.275-94.274s42.292-94.275 94.275-94.275 94.275 42.292 94.275 94.275-42.292 94.274-94.275 94.274zm0-185.501c-50.302 0-91.226 40.924-91.226 91.227 0 50.302 40.924 91.226 91.226 91.226s91.226-40.924 91.226-91.226c0-50.304-40.924-91.227-91.226-91.227z"/><path d="m341.075 1095.651-.969-2.891c.153-.052 15.419-5.28 30.465-19.117 13.836-12.725 30.329-35.578 30.329-72.188 0-36.67-16.544-59.543-30.423-72.274-15.045-13.802-30.219-18.98-30.37-19.031l.968-2.891c.644.215 15.945 5.439 31.464 19.675 14.329 13.145 31.411 36.744 31.411 74.521s-17.082 61.376-31.411 74.521c-15.52 14.236-30.82 19.46-31.464 19.675z"/><path d="M339.374 1095.123c-.312-.414-31.224-41.999-31.224-93.668 0-51.67 30.912-93.255 31.224-93.669l2.435 1.836c-.306.406-30.61 41.211-30.61 91.833 0 50.621 30.304 91.426 30.61 91.832z"/><path d="M340.107 1095.651c-.644-.215-15.944-5.438-31.464-19.675-14.329-13.145-31.411-36.743-31.411-74.521s17.082-61.377 31.411-74.521c15.519-14.235 30.82-19.46 31.464-19.675l.969 2.891c-.153.052-15.419 5.28-30.465 19.117-13.836 12.726-30.329 35.579-30.329 72.188s16.493 59.463 30.329 72.188c15.045 13.837 30.312 19.065 30.465 19.117z"/><path d="M422.941 1044.397c-9.222-3.96-35.706-13.171-82.35-13.171-46.641 0-73.126 9.211-82.348 13.17l-1.203-2.801c9.395-4.035 36.344-13.418 83.551-13.418 47.21 0 74.158 9.384 83.553 13.419zm-142.742 28.27-1.299-2.758c10.474-4.935 29.678-10.815 61.691-10.815 31.837 0 50.998 5.824 61.466 10.71l-1.29 2.764c-10.188-4.756-28.899-10.425-60.177-10.425-31.448 0-50.199 5.723-60.391 10.524zm60.392-97.934c-47.207 0-74.156-9.383-83.551-13.418l1.203-2.801c9.222 3.959 35.707 13.17 82.348 13.17 46.644 0 73.128-9.211 82.35-13.171l1.203 2.801c-9.395 4.035-36.343 13.419-83.553 13.419zm0-30.917c-32.017 0-51.22-5.881-61.692-10.815l1.3-2.758c10.19 4.801 28.939 10.524 60.392 10.524 31.278 0 49.989-5.669 60.177-10.425l1.29 2.764c-10.469 4.885-29.63 10.71-61.467 10.71zm786.361 201.685c-51.983 0-94.275-42.292-94.275-94.275s42.292-94.274 94.275-94.274c51.984 0 94.275 42.291 94.275 94.274s-42.291 94.275-94.275 94.275zm0-185.501c-50.302 0-91.226 40.924-91.226 91.226 0 50.303 40.924 91.227 91.226 91.227s91.226-40.924 91.226-91.227c0-50.302-40.924-91.226-91.226-91.226z"/><path d="M1126.952 1118.354c-28.516 0-53.995-18.108-63.402-45.061l2.879-1.004c8.98 25.729 33.303 43.016 60.523 43.016s51.543-17.287 60.523-43.016l2.879 1.004c-9.407 26.952-34.886 45.061-63.402 45.061z"/><path d="M1192.563 1075.505c-5.677 0-10.238-2.405-10.446-2.517l1.438-2.688c.048.025 4.863 2.552 10.331 2.104l.247 3.039c-.531.042-1.055.062-1.57.062zm-131.714 0c-.515 0-1.038-.02-1.569-.062l.247-3.039c5.463.451 10.283-2.078 10.331-2.104l1.438 2.688c-.209.112-4.77 2.517-10.447 2.517z"/><ellipse cx="1150.119" cy="1025.259" rx="14.873" ry="31.352"/><ellipse cx="1103.786" cy="1025.259" rx="14.873" ry="31.352"/><path d="M1052.98 940.725H849.955c-13.746 0-24.928-11.183-24.928-24.928v-59.05c0-12.064-9.815-21.88-21.879-21.88H644.169c-13.746 0-24.928-11.183-24.928-24.928v-82.275c0-12.064-9.815-21.88-21.879-21.88H447.948c-13.746 0-24.929-11.183-24.929-24.929V510.539h3.049v170.316c0 12.064 9.815 21.88 21.88 21.88h149.413c13.746 0 24.929 11.183 24.929 24.929v82.275c0 12.064 9.815 21.879 21.879 21.879h158.978c13.746 0 24.928 11.183 24.928 24.929v59.05c0 12.064 9.815 21.879 21.879 21.879h203.025v3.049z"/><path d="M773.986 997.57H483.814c-13.746 0-24.928-11.183-24.928-24.928V831.93c0-12.064-9.815-21.88-21.879-21.88h-113.21v-3.049h113.21c13.746 0 24.928 11.183 24.928 24.929v140.713c0 12.064 9.815 21.879 21.879 21.879h290.172c12.064 0 21.879-9.814 21.879-21.879v-71.437c0-13.746 11.183-24.929 24.929-24.929h172.874c12.064 0 21.879-9.815 21.879-21.88V607.949h3.049v246.448c0 13.746-11.183 24.929-24.928 24.929H820.794c-12.064 0-21.879 9.815-21.879 21.88v71.437c-.001 13.745-11.184 24.927-24.929 24.927z"/><path d="M717.425 910.229H557.504c-13.746 0-24.928-11.183-24.928-24.929V595.215h3.049V885.3c0 12.064 9.815 21.88 21.879 21.88h159.921c12.064 0 21.879-9.815 21.879-21.88v-83.797c0-13.746 11.183-24.929 24.929-24.929h342.698v3.049H764.233c-12.064 0-21.88 9.815-21.88 21.88V885.3c.001 13.746-11.182 24.929-24.928 24.929z"/><circle cx="1017.071" cy="607.949" r="7.029"/><circle cx="1106.931" cy="778.099" r="7.029"/><circle cx="1052.98" cy="939.201" r="7.029"/><circle cx="323.796" cy="808.526" r="7.029"/><circle cx="534.1" cy="595.215" r="7.029"/><circle cx="424.544" cy="510.539" r="7.029"/><path d="M787.501 723.339c-67.016 0-121.537-54.521-121.537-121.537s54.521-121.537 121.537-121.537 121.537 54.521 121.537 121.537-54.521 121.537-121.537 121.537zm0-240.025c-65.334 0-118.488 53.153-118.488 118.488S722.167 720.29 787.501 720.29s118.488-53.153 118.488-118.488-53.154-118.488-118.488-118.488z"/><path d="M787.501 757.684c-85.954 0-155.882-69.928-155.882-155.882S701.547 445.92 787.501 445.92s155.882 69.928 155.882 155.882-69.928 155.882-155.882 155.882zm0-308.715c-84.272 0-152.833 68.561-152.833 152.833s68.561 152.833 152.833 152.833 152.833-68.561 152.833-152.833-68.561-152.833-152.833-152.833z"/><path d="m734.078 653.06 104.67-104.67 2.157 2.156-104.671 104.67zm27.714-3.146 68.313-68.312 2.156 2.156-68.313 68.312zM642.423 765.078l-18.198-18.198 45.324-45.324 2.156 2.156-43.168 43.168 13.886 13.886 43.168-43.168 2.156 2.156z"/></g><path d="m618.991 739.49 30.821 30.821-123.739 123.74c-8.511 8.511-22.31 8.511-30.821 0-8.511-8.511-8.511-22.31 0-30.821z" fill="#fff"/><path d="M510.663 901.947c-5.971 0-11.943-2.272-16.489-6.818a23.166 23.166 0 0 1-6.83-16.488 23.167 23.167 0 0 1 6.83-16.489l124.817-124.817 32.978 32.978-124.818 124.816c-4.546 4.546-10.517 6.818-16.488 6.818zm108.328-160.3L496.33 864.308a20.137 20.137 0 0 0-5.937 14.332 20.133 20.133 0 0 0 5.937 14.333c7.903 7.902 20.762 7.902 28.665 0l122.661-122.661zm-7.568-301.382v59.963h3.28v-59.963c-.538.068-1.084.107-1.64.107s-1.103-.039-1.64-.107zm3.279-25.804v-59.963h-3.28v59.963a13.056 13.056 0 0 1 1.64-.107c.556.001 1.103.04 1.64.107zm11.262 14.542h59.963v-3.28h-59.963c.068.537.107 1.084.107 1.64s-.039 1.103-.107 1.64zm-25.803-3.28h-59.963v3.28h59.963c-.068-.538-.107-1.084-.107-1.64s.039-1.102.107-1.64zm4.938-8.642-42.4-42.4L560.38 377l42.4 42.4a13.086 13.086 0 0 1 2.319-2.319zm15.927 20.565 42.4 42.4 2.319-2.319-42.4-42.4a13.119 13.119 0 0 1-2.319 2.319zm2.319-18.246 42.4-42.4-2.319-2.319-42.4 42.4a13.086 13.086 0 0 1 2.319 2.319zm-20.565 15.927-42.4 42.4 2.319 2.319 42.4-42.4a13.119 13.119 0 0 1-2.319-2.319zM334.123 645.022l8.558 22.238 22.239 8.558-22.239 8.557-8.558 22.239-8.566-22.23-22.23-8.566 22.239-8.558zm505.714 325.637 8.557 22.238 22.239 8.558-22.239 8.557-8.557 22.239-8.566-22.23-22.23-8.566 22.238-8.558zm132.818-534.837 8.557 22.239 22.239 8.557-22.239 8.558-8.557 22.239-8.566-22.231-22.23-8.566 22.238-8.557zm188.637 99.559h4.067v180.716h-4.067z" fill="#231f20"/><path d="M1253.684 623.705v4.067h-180.716v-4.067z" fill="#231f20"/><path d="m1097.984 563.289 2.875-2.876 127.785 127.784-2.876 2.876z" fill="#231f20"/><path d="m1225.776 560.396 2.876 2.876-127.784 127.785-2.876-2.876z" fill="#231f20"/><circle cx="1163.326" cy="625.739" fill="#231f20" r="16.132"/></svg>